SeanSlab_0.ufo
<glyph name="space" format="1">
  <advance width="465"/>
  <unicode hex="0020"/>
  <outline>
    <contour>
      <point x="242" y="669" type="move" name="top"/>
    </contour>
    <contour>
      <point x="284" y="-9" type="move" name="bottom"/>
    </contour>
  </outline>
</glyph>
<glyph name="ampersand" format="1">
  <advance width="814"/>
  <unicode hex="0026"/>
  <outline>
    <contour>
      <point x="790" y="10" type="line"/>
      <point x="644" y="125"/>
      <point x="509" y="233"/>
      <point x="362" y="349" type="curve"/>
      <point x="280" y="419"/>
      <point x="177" y="466"/>
      <point x="177" y="577" type="curve"/>
      <point x="177" y="659"/>
      <point x="243" y="705"/>
      <point x="330" y="705" type="curve"/>
      <point x="424" y="705"/>
      <point x="500" y="665"/>
      <point x="500" y="579" type="curve"/>
      <point x="500" y="469"/>
      <point x="399" y="433"/>
      <point x="294" y="387" type="curve"/>
      <point x="179" y="334"/>
      <point x="66" y="299"/>
      <point x="66" y="177" type="curve"/>
      <point x="66" y="50"/>
      <point x="182" y="-5"/>
      <point x="323" y="-5" type="curve"/>
      <point x="533" y="-5"/>
      <point x="667" y="120"/>
      <point x="746" y="318" type="curve"/>
      <point x="725" y="323"/>
      <point x="746" y="318"/>
      <point x="725" y="323" type="curve"/>
      <point x="650" y="135"/>
      <point x="522" y="16"/>
      <point x="324" y="16" type="curve"/>
      <point x="196" y="16"/>
      <point x="89" y="62"/>
      <point x="89" y="177" type="curve"/>
      <point x="89" y="291"/>
      <point x="196" y="321"/>
      <point x="304" y="370" type="curve"/>
      <point x="415" y="421"/>
      <point x="522" y="460"/>
      <point x="523" y="579" type="curve"/>
      <point x="523" y="678"/>
      <point x="439" y="726"/>
      <point x="331" y="726" type="curve"/>
      <point x="229" y="726"/>
      <point x="154" y="673"/>
      <point x="154" y="577" type="curve"/>
      <point x="154" y="461"/>
      <point x="258" y="409"/>
      <point x="346" y="336" type="curve"/>
      <point x="488" y="224"/>
      <point x="636" y="107"/>
      <point x="778" y="-5" type="curve"/>
    </contour>
  </outline>
</glyph>
<glyph name="parenright" format="1">
  <advance width="420"/>
  <unicode hex="0029"/>
  <outline>
    <contour>
      <point x="29" y="-267" type="curve"/>
      <point x="237" y="-101"/>
      <point x="360" y="60"/>
      <point x="360" y="327" type="curve"/>
      <point x="360" y="588"/>
      <point x="244" y="748"/>
      <point x="34" y="903" type="curve"/>
      <point x="20" y="887"/>
      <point x="34" y="903"/>
      <point x="20" y="887" type="curve"/>
      <point x="221" y="733"/>
      <point x="334" y="579"/>
      <point x="334" y="326" type="curve"/>
      <point x="334" y="68"/>
      <point x="211" y="-86"/>
      <point x="14" y="-252" type="curve"/>
      <point x="29" y="-267"/>
      <point x="14" y="-252"/>
    </contour>
  </outline>
</glyph>
<glyph name="hyphen" format="1">
  <advance width="555"/>
  <unicode hex="002D"/>
  <outline>
    <contour>
      <point x="91" y="260" type="curve"/>
      <point x="215" y="260"/>
      <point x="340" y="260"/>
      <point x="465" y="260" type="curve"/>
      <point x="465" y="284"/>
      <point x="465" y="260"/>
      <point x="465" y="284" type="curve"/>
      <point x="340" y="284"/>
      <point x="215" y="284"/>
      <point x="91" y="284" type="curve"/>
      <point x="91" y="260"/>
      <point x="91" y="284"/>
    </contour>
  </outline>
</glyph>
<glyph name="period" format="1">
  <advance width="213"/>
  <unicode hex="002E"/>
  <outline>
    <contour>
      <point x="125" y="12" type="curve"/>
      <point x="125" y="23"/>
      <point x="117" y="30"/>
      <point x="106" y="30" type="curve"/>
      <point x="95" y="30"/>
      <point x="88" y="23"/>
      <point x="88" y="12" type="curve"/>
      <point x="104" y="12"/>
      <point x="109" y="12"/>
      <point x="125" y="12" type="curve"/>
      <point x="125" y="1"/>
      <point x="117" y="-6"/>
      <point x="106" y="-6" type="curve"/>
      <point x="95" y="-6"/>
      <point x="88" y="1"/>
      <point x="88" y="12" type="curve"/>
      <point x="104" y="12"/>
      <point x="109" y="12"/>
    </contour>
  </outline>
</glyph>
<glyph name="L" format="1">
  <advance width="789"/>
  <unicode hex="004C"/>
  <outline>
    <contour>
      <point x="207" y="825" type="move" name="top"/>
    </contour>
    <contour>
      <point x="436" y="-3" type="move" name="bottom"/>
    </contour>
    <contour>
      <point x="747" y="11" type="curve"/>
      <point x="747" y="131"/>
      <point x="747" y="10"/>
      <point x="747" y="130" type="curve"/>
      <point x="725" y="130"/>
      <point x="747" y="130"/>
      <point x="725" y="130" type="curve"/>
      <point x="725" y="10"/>
      <point x="725" y="131"/>
      <point x="725" y="11" type="curve"/>
      <point x="747" y="11"/>
      <point x="725" y="11"/>
    </contour>
    <contour>
      <point x="204" y="22" type="curve"/>
      <point x="39" y="22"/>
      <point x="206" y="22"/>
      <point x="41" y="22" type="curve"/>
      <point x="41" y="0"/>
      <point x="41" y="22"/>
      <point x="41" y="0" type="curve"/>
      <point x="96" y="0"/>
      <point x="149" y="0"/>
      <point x="204" y="0" type="curve"/>
      <point x="204" y="22"/>
      <point x="204" y="0"/>
    </contour>
    <contour>
      <point x="204" y="722" type="curve"/>
      <point x="149" y="722"/>
      <point x="96" y="722"/>
      <point x="41" y="722" type="curve"/>
      <point x="41" y="700"/>
      <point x="41" y="722"/>
      <point x="41" y="700" type="curve"/>
      <point x="206" y="700"/>
      <point x="39" y="700"/>
      <point x="204" y="700" type="curve"/>
      <point x="204" y="722"/>
      <point x="204" y="700"/>
    </contour>
    <contour>
      <point x="204" y="700" type="curve"/>
      <point x="369" y="700"/>
      <point x="202" y="700"/>
      <point x="367" y="700" type="curve"/>
      <point x="367" y="722"/>
      <point x="367" y="700"/>
      <point x="367" y="722" type="curve"/>
      <point x="313" y="722"/>
      <point x="259" y="722"/>
      <point x="204" y="722" type="curve"/>
      <point x="204" y="700"/>
      <point x="204" y="722"/>
    </contour>
    <contour>
      <point x="218" y="0" type="curve"/>
      <point x="218" y="241"/>
      <point x="218" y="481"/>
      <point x="218" y="722" type="curve"/>
      <point x="193" y="722"/>
      <point x="218" y="722"/>
      <point x="193" y="722" type="curve"/>
      <point x="193" y="481"/>
      <point x="193" y="241"/>
      <point x="193" y="0" type="curve"/>
      <point x="218" y="0"/>
      <point x="193" y="0"/>
    </contour>
    <contour>
      <point x="204" y="0" type="curve"/>
      <point x="385" y="0"/>
      <point x="566" y="0"/>
      <point x="747" y="0" type="curve"/>
      <point x="747" y="22"/>
      <point x="747" y="0"/>
      <point x="747" y="22" type="curve"/>
      <point x="566" y="22"/>
      <point x="385" y="22"/>
      <point x="204" y="22" type="curve"/>
      <point x="204" y="0"/>
      <point x="204" y="22"/>
    </contour>
  </outline>
</glyph>
<glyph name="M" format="1">
  <advance width="1266"/>
  <unicode hex="004D"/>
  <outline>
    <contour>
      <point x="1076" y="0" type="curve"/>
      <point x="1131" y="0"/>
      <point x="1184" y="0"/>
      <point x="1239" y="0" type="curve"/>
      <point x="1239" y="22"/>
      <point x="1239" y="0"/>
      <point x="1239" y="22" type="curve"/>
      <point x="1074" y="22"/>
      <point x="1241" y="22"/>
      <point x="1076" y="22" type="curve"/>
      <point x="1076" y="0"/>
      <point x="1076" y="22"/>
    </contour>
    <contour>
      <point x="1076" y="22" type="curve"/>
      <point x="910" y="22"/>
      <point x="1078" y="22"/>
      <point x="912" y="22" type="curve"/>
      <point x="912" y="0"/>
      <point x="912" y="22"/>
      <point x="912" y="0" type="curve"/>
      <point x="968" y="0"/>
      <point x="1021" y="0"/>
      <point x="1076" y="0" type="curve"/>
      <point x="1076" y="22"/>
      <point x="1076" y="0"/>
    </contour>
    <contour>
      <point x="190" y="22" type="curve"/>
      <point x="25" y="22"/>
      <point x="192" y="22"/>
      <point x="27" y="22" type="curve"/>
      <point x="27" y="0"/>
      <point x="27" y="22"/>
      <point x="27" y="0" type="curve"/>
      <point x="82" y="0"/>
      <point x="135" y="0"/>
      <point x="190" y="0" type="curve"/>
      <point x="190" y="22"/>
      <point x="190" y="0"/>
    </contour>
    <contour>
      <point x="266" y="722" type="curve"/>
      <point x="211" y="722"/>
      <point x="158" y="722"/>
      <point x="103" y="722" type="curve"/>
      <point x="103" y="700"/>
      <point x="103" y="722"/>
      <point x="103" y="700" type="curve"/>
      <point x="268" y="700"/>
      <point x="101" y="700"/>
      <point x="266" y="700" type="curve"/>
      <point x="266" y="722"/>
      <point x="266" y="700"/>
    </contour>
    <contour>
      <point x="997" y="700" type="curve"/>
      <point x="1163" y="700"/>
      <point x="995" y="700"/>
      <point x="1161" y="700" type="curve"/>
      <point x="1161" y="722"/>
      <point x="1161" y="700"/>
      <point x="1161" y="722" type="curve"/>
      <point x="1106" y="722"/>
      <point x="1052" y="722"/>
      <point x="997" y="722" type="curve"/>
      <point x="997" y="700"/>
      <point x="997" y="722"/>
    </contour>
    <contour>
      <point x="190" y="0" type="curve"/>
      <point x="245" y="0"/>
      <point x="188" y="0"/>
      <point x="354" y="0" type="curve"/>
      <point x="354" y="22"/>
      <point x="354" y="0"/>
      <point x="354" y="22" type="curve"/>
      <point x="188" y="22"/>
      <point x="356" y="22"/>
      <point x="190" y="22" type="curve"/>
      <point x="190" y="0"/>
      <point x="190" y="22"/>
    </contour>
    <contour>
      <point x="1087" y="0" type="curve"/>
      <point x="1060" y="241"/>
      <point x="1033" y="481"/>
      <point x="1007" y="722" type="curve"/>
      <point x="985" y="722"/>
      <point x="1007" y="722"/>
      <point x="985" y="722" type="curve"/>
      <point x="1011" y="481"/>
      <point x="1037" y="241"/>
      <point x="1063" y="0" type="curve"/>
      <point x="1087" y="0"/>
      <point x="1063" y="0"/>
    </contour>
    <contour>
      <point x="201" y="0" type="curve"/>
      <point x="226" y="241"/>
      <point x="250" y="481"/>
      <point x="275" y="722" type="curve"/>
      <point x="253" y="722"/>
      <point x="275" y="722"/>
      <point x="253" y="722" type="curve"/>
      <point x="228" y="481"/>
      <point x="202" y="241"/>
      <point x="177" y="0" type="curve"/>
      <point x="201" y="0"/>
      <point x="177" y="0"/>
    </contour>
    <contour>
      <point x="641" y="0" type="curve"/>
      <point x="522" y="241"/>
      <point x="402" y="481"/>
      <point x="279" y="722" type="curve"/>
      <point x="257" y="722"/>
      <point x="277" y="722"/>
      <point x="255" y="722" type="curve"/>
      <point x="375" y="481"/>
      <point x="495" y="241"/>
      <point x="615" y="0" type="curve"/>
      <point x="639" y="0"/>
      <point x="617" y="0"/>
    </contour>
    <contour>
      <point x="651" y="0" type="curve"/>
      <point x="769" y="241"/>
      <point x="887" y="481"/>
      <point x="1005" y="722" type="curve"/>
      <point x="983" y="722"/>
      <point x="1003" y="722"/>
      <point x="981" y="722" type="curve"/>
      <point x="860" y="481"/>
      <point x="743" y="241"/>
      <point x="624" y="0" type="curve"/>
      <point x="649" y="0"/>
      <point x="626" y="0"/>
    </contour>
  </outline>
</glyph>
<glyph name="X" format="1">
  <advance width="949"/>
  <unicode hex="0058"/>
  <outline>
    <contour>
      <point x="161" y="0" type="curve"/>
      <point x="217" y="0"/>
      <point x="160" y="0"/>
      <point x="325" y="0" type="curve"/>
      <point x="325" y="22"/>
      <point x="325" y="0"/>
      <point x="325" y="22" type="curve"/>
      <point x="160" y="22"/>
      <point x="326" y="22"/>
      <point x="161" y="22" type="curve"/>
      <point x="161" y="0"/>
      <point x="161" y="22"/>
    </contour>
    <contour>
      <point x="161" y="22" type="curve"/>
      <point x="-3" y="22"/>
      <point x="162" y="22"/>
      <point x="-2" y="22" type="curve"/>
      <point x="-2" y="0"/>
      <point x="-2" y="22"/>
      <point x="-2" y="0" type="curve"/>
      <point x="53" y="0"/>
      <point x="107" y="0"/>
      <point x="161" y="0" type="curve"/>
      <point x="161" y="22"/>
      <point x="161" y="0"/>
    </contour>
    <contour>
      <point x="785" y="0" type="curve"/>
      <point x="839" y="0"/>
      <point x="894" y="0"/>
      <point x="948" y="0" type="curve"/>
      <point x="948" y="22"/>
      <point x="948" y="0"/>
      <point x="948" y="22" type="curve"/>
      <point x="784" y="22"/>
      <point x="949" y="22"/>
      <point x="785" y="22" type="curve"/>
      <point x="785" y="0"/>
      <point x="785" y="22"/>
    </contour>
    <contour>
      <point x="785" y="22" type="curve"/>
      <point x="621" y="22"/>
      <point x="786" y="22"/>
      <point x="622" y="22" type="curve"/>
      <point x="622" y="0"/>
      <point x="622" y="22"/>
      <point x="622" y="0" type="curve"/>
      <point x="676" y="0"/>
      <point x="730" y="0"/>
      <point x="785" y="0" type="curve"/>
      <point x="785" y="22"/>
      <point x="785" y="0"/>
    </contour>
    <contour>
      <point x="752" y="700" type="curve"/>
      <point x="916" y="700"/>
      <point x="751" y="700"/>
      <point x="915" y="700" type="curve"/>
      <point x="915" y="722"/>
      <point x="915" y="700"/>
      <point x="915" y="722" type="curve"/>
      <point x="860" y="722"/>
      <point x="806" y="722"/>
      <point x="752" y="722" type="curve"/>
      <point x="752" y="700"/>
      <point x="752" y="722"/>
    </contour>
    <contour>
      <point x="752" y="722" type="curve"/>
      <point x="697" y="722"/>
      <point x="643" y="722"/>
      <point x="588" y="722" type="curve"/>
      <point x="588" y="700"/>
      <point x="588" y="722"/>
      <point x="588" y="700" type="curve"/>
      <point x="752" y="700"/>
      <point x="587" y="700"/>
      <point x="752" y="700" type="curve"/>
      <point x="752" y="722"/>
      <point x="752" y="700"/>
    </contour>
    <contour>
      <point x="200" y="722" type="curve"/>
      <point x="146" y="722"/>
      <point x="91" y="722"/>
      <point x="37" y="722" type="curve"/>
      <point x="37" y="700"/>
      <point x="37" y="722"/>
      <point x="37" y="700" type="curve"/>
      <point x="201" y="700"/>
      <point x="36" y="700"/>
      <point x="200" y="700" type="curve"/>
      <point x="200" y="722"/>
      <point x="200" y="700"/>
    </contour>
    <contour>
      <point x="200" y="700" type="curve"/>
      <point x="365" y="700"/>
      <point x="199" y="700"/>
      <point x="364" y="700" type="curve"/>
      <point x="364" y="722"/>
      <point x="364" y="700"/>
      <point x="364" y="722" type="curve"/>
      <point x="309" y="722"/>
      <point x="255" y="722"/>
      <point x="200" y="722" type="curve"/>
      <point x="200" y="700"/>
      <point x="200" y="722"/>
    </contour>
    <contour>
      <point x="763" y="722" type="curve"/>
      <point x="549" y="481"/>
      <point x="335" y="241"/>
      <point x="122" y="0" type="curve"/>
      <point x="154" y="0"/>
      <point x="122" y="0"/>
      <point x="154" y="0" type="curve"/>
      <point x="366" y="241"/>
      <point x="578" y="481"/>
      <point x="792" y="722" type="curve"/>
      <point x="763" y="722"/>
      <point x="792" y="722"/>
    </contour>
    <contour>
      <point x="164" y="722" type="curve"/>
      <point x="375" y="481"/>
      <point x="586" y="241"/>
      <point x="797" y="0" type="curve"/>
      <point x="827" y="0"/>
      <point x="797" y="0"/>
      <point x="827" y="0" type="curve"/>
      <point x="616" y="241"/>
      <point x="404" y="481"/>
      <point x="193" y="722" type="curve"/>
      <point x="164" y="722"/>
      <point x="193" y="722"/>
    </contour>
  </outline>
</glyph>
<glyph name="f" format="1">
  <advance width="598"/>
  <unicode hex="0066"/>
  <outline>
    <contour>
      <point x="568" y="773" type="curve"/>
      <point x="568" y="653"/>
      <point x="568" y="774"/>
      <point x="568" y="654" type="curve"/>
      <point x="590" y="654"/>
      <point x="568" y="654"/>
      <point x="590" y="654" type="curve"/>
      <point x="590" y="774"/>
      <point x="590" y="653"/>
      <point x="590" y="773" type="curve"/>
      <point x="568" y="773"/>
      <point x="590" y="773"/>
    </contour>
    <contour>
      <point x="278" y="0" type="curve"/>
      <point x="332" y="0"/>
      <point x="387" y="0"/>
      <point x="441" y="0" type="curve"/>
      <point x="441" y="22"/>
      <point x="441" y="0"/>
      <point x="441" y="22" type="curve"/>
      <point x="277" y="22"/>
      <point x="442" y="22"/>
      <point x="278" y="22" type="curve"/>
      <point x="278" y="0"/>
      <point x="278" y="22"/>
    </contour>
    <contour>
      <point x="278" y="22" type="curve"/>
      <point x="114" y="22"/>
      <point x="279" y="22"/>
      <point x="115" y="22" type="curve"/>
      <point x="115" y="0"/>
      <point x="115" y="22"/>
      <point x="115" y="0" type="curve"/>
      <point x="169" y="0"/>
      <point x="223" y="0"/>
      <point x="278" y="0" type="curve"/>
      <point x="278" y="22"/>
      <point x="278" y="0"/>
    </contour>
    <contour>
      <point x="40" y="511" type="curve"/>
      <point x="569" y="511" type="line"/>
      <point x="569" y="533"/>
      <point x="569" y="511"/>
      <point x="569" y="533" type="curve"/>
      <point x="40" y="533" type="line"/>
      <point x="40" y="511"/>
      <point x="40" y="533"/>
    </contour>
    <contour>
      <point x="290" y="0" type="curve"/>
      <point x="290" y="640" type="line"/>
      <point x="290" y="733"/>
      <point x="357" y="783"/>
      <point x="454" y="783" type="curve"/>
      <point x="498" y="783"/>
      <point x="541" y="770"/>
      <point x="580" y="756" type="curve"/>
      <point x="590" y="773"/>
      <point x="580" y="756"/>
      <point x="590" y="773" type="curve"/>
      <point x="547" y="789"/>
      <point x="500" y="805"/>
      <point x="454" y="805" type="curve"/>
      <point x="343" y="805"/>
      <point x="266" y="748"/>
      <point x="266" y="640" type="curve"/>
      <point x="266" y="0" type="line"/>
      <point x="290" y="0"/>
      <point x="266" y="0"/>
    </contour>
  </outline>
</glyph>
<glyph name="j" format="1">
  <advance width="353"/>
  <unicode hex="006A"/>
  <outline>
    <contour>
      <point x="232" y="533" type="curve"/>
      <point x="177" y="533"/>
      <point x="124" y="533"/>
      <point x="69" y="533" type="curve"/>
      <point x="69" y="511"/>
      <point x="69" y="533"/>
      <point x="69" y="511" type="curve"/>
      <point x="233" y="511"/>
      <point x="68" y="511"/>
      <point x="232" y="511" type="curve"/>
      <point x="232" y="533"/>
      <point x="232" y="511"/>
    </contour>
    <contour>
      <point x="7" y="-301" type="curve"/>
      <point x="18" y="-301"/>
      <point x="31" y="-304"/>
      <point x="45" y="-304" type="curve"/>
      <point x="156" y="-304"/>
      <point x="246" y="-250"/>
      <point x="246" y="-142" type="curve"/>
      <point x="246" y="83"/>
      <point x="246" y="308"/>
      <point x="246" y="533" type="curve"/>
      <point x="222" y="533"/>
      <point x="246" y="533"/>
      <point x="222" y="533" type="curve"/>
      <point x="222" y="308"/>
      <point x="222" y="83"/>
      <point x="222" y="-142" type="curve"/>
      <point x="222" y="-235"/>
      <point x="143" y="-282"/>
      <point x="45" y="-282" type="curve"/>
      <point x="34" y="-282"/>
      <point x="19" y="-280"/>
      <point x="11" y="-279" type="curve"/>
      <point x="8" y="-301"/>
      <point x="11" y="-279"/>
    </contour>
    <contour>
      <point x="254" y="683" type="curve"/>
      <point x="254" y="694"/>
      <point x="246" y="701"/>
      <point x="234" y="701" type="curve"/>
      <point x="223" y="701"/>
      <point x="216" y="694"/>
      <point x="216" y="683" type="curve"/>
      <point x="232" y="683"/>
      <point x="238" y="683"/>
      <point x="254" y="683" type="curve"/>
      <point x="254" y="672"/>
      <point x="246" y="665"/>
      <point x="234" y="665" type="curve"/>
      <point x="223" y="665"/>
      <point x="216" y="672"/>
      <point x="216" y="683" type="curve"/>
      <point x="232" y="683"/>
      <point x="238" y="683"/>
    </contour>
  </outline>
</glyph>
<glyph name="l" format="1">
  <advance width="345"/>
  <unicode hex="006C"/>
  <outline>
    <contour>
      <point x="172" y="913" type="move" name="top"/>
    </contour>
    <contour>
      <point x="182" y="-4" type="move" name="bottom"/>
    </contour>
    <contour>
      <point x="172" y="22" type="curve"/>
      <point x="8" y="22"/>
      <point x="172" y="22"/>
      <point x="8" y="22" type="curve"/>
      <point x="8" y="0"/>
      <point x="8" y="22"/>
      <point x="8" y="0" type="curve"/>
      <point x="63" y="0"/>
      <point x="118" y="0"/>
      <point x="172" y="0" type="curve"/>
      <point x="172" y="22"/>
      <point x="172" y="0"/>
    </contour>
    <contour>
      <point x="175" y="800" type="curve"/>
      <point x="121" y="800"/>
      <point x="65" y="800"/>
      <point x="11" y="800" type="curve"/>
      <point x="11" y="778"/>
      <point x="11" y="800"/>
      <point x="11" y="778" type="curve"/>
      <point x="175" y="778"/>
      <point x="11" y="778"/>
      <point x="175" y="778" type="curve"/>
      <point x="175" y="800"/>
      <point x="175" y="778"/>
    </contour>
    <contour>
      <point x="172" y="0" type="curve"/>
      <point x="228" y="0"/>
      <point x="282" y="0"/>
      <point x="338" y="0" type="curve"/>
      <point x="338" y="22"/>
      <point x="338" y="0"/>
      <point x="338" y="22" type="curve"/>
      <point x="172" y="22"/>
      <point x="338" y="22"/>
      <point x="172" y="22" type="curve"/>
      <point x="172" y="0"/>
      <point x="172" y="22"/>
    </contour>
    <contour>
      <point x="183" y="0" type="curve"/>
      <point x="183" y="267"/>
      <point x="183" y="533"/>
      <point x="183" y="800" type="curve"/>
      <point x="159" y="800"/>
      <point x="183" y="800"/>
      <point x="159" y="800" type="curve"/>
      <point x="159" y="533"/>
      <point x="159" y="267"/>
      <point x="159" y="0" type="curve"/>
      <point x="183" y="0"/>
      <point x="159" y="0"/>
    </contour>
  </outline>
</glyph>
<glyph name="q" format="1">
  <advance width="781"/>
  <unicode hex="0071"/>
  <outline>
    <contour>
      <point x="624" y="511" type="curve"/>
      <point x="775" y="511"/>
      <point x="624" y="511"/>
      <point x="774" y="511" type="curve"/>
      <point x="774" y="533"/>
      <point x="774" y="511"/>
      <point x="774" y="533" type="curve"/>
      <point x="725" y="533"/>
      <point x="675" y="533"/>
      <point x="624" y="533" type="curve"/>
      <point x="624" y="511"/>
      <point x="624" y="533"/>
    </contour>
    <contour>
      <point x="624" y="-279" type="curve"/>
      <point x="460" y="-278"/>
      <point x="625" y="-279"/>
      <point x="461" y="-278" type="curve"/>
      <point x="461" y="-300"/>
      <point x="461" y="-278"/>
      <point x="461" y="-300" type="curve"/>
      <point x="516" y="-300"/>
      <point x="570" y="-300"/>
      <point x="624" y="-300" type="curve"/>
      <point x="624" y="-279"/>
      <point x="624" y="-300"/>
    </contour>
    <contour>
      <point x="624" y="-300" type="curve"/>
      <point x="675" y="-300"/>
      <point x="725" y="-300"/>
      <point x="774" y="-300" type="curve"/>
      <point x="774" y="-278"/>
      <point x="774" y="-300"/>
      <point x="774" y="-278" type="curve"/>
      <point x="624" y="-279"/>
      <point x="775" y="-278"/>
      <point x="624" y="-279" type="curve"/>
      <point x="624" y="-300"/>
      <point x="624" y="-279"/>
    </contour>
    <contour>
      <point x="630" y="443" type="curve"/>
      <point x="554" y="503"/>
      <point x="449" y="538"/>
      <point x="349" y="538" type="curve"/>
      <point x="177" y="538"/>
      <point x="65" y="433"/>
      <point x="65" y="264" type="curve"/>
      <point x="65" y="95"/>
      <point x="181" y="-5"/>
      <point x="353" y="-5" type="curve"/>
      <point x="459" y="-5"/>
      <point x="561" y="43"/>
      <point x="629" y="121" type="curve"/>
      <point x="613" y="135"/>
      <point x="633" y="126"/>
      <point x="618" y="140" type="curve"/>
      <point x="549" y="62"/>
      <point x="454" y="17"/>
      <point x="353" y="17" type="curve"/>
      <point x="197" y="17"/>
      <point x="90" y="110"/>
      <point x="90" y="265" type="curve"/>
      <point x="90" y="420"/>
      <point x="193" y="516"/>
      <point x="350" y="516" type="curve"/>
      <point x="445" y="516"/>
      <point x="544" y="481"/>
      <point x="620" y="426" type="curve"/>
      <point x="633" y="441"/>
      <point x="617" y="428"/>
    </contour>
    <contour>
      <point x="635" y="-300" type="curve"/>
      <point x="635" y="-22"/>
      <point x="635" y="255"/>
      <point x="635" y="533" type="curve"/>
      <point x="610" y="533"/>
      <point x="635" y="533"/>
      <point x="610" y="533" type="curve"/>
      <point x="610" y="255"/>
      <point x="610" y="-22"/>
      <point x="610" y="-300" type="curve"/>
      <point x="635" y="-300"/>
      <point x="610" y="-300"/>
    </contour>
  </outline>
</glyph>
<glyph name="t" format="1">
  <advance width="544"/>
  <unicode hex="0074"/>
  <outline>
    <contour>
      <point x="376" y="-8" type="move" name="bottom"/>
    </contour>
    <contour>
      <point x="21" y="511" type="curve"/>
      <point x="524" y="511" type="line"/>
      <point x="524" y="533"/>
      <point x="524" y="511"/>
      <point x="524" y="533" type="curve"/>
      <point x="21" y="533" type="line"/>
      <point x="21" y="511"/>
      <point x="21" y="533"/>
    </contour>
    <contour>
      <point x="494" y="48" type="curve"/>
      <point x="448" y="29"/>
      <point x="415" y="17"/>
      <point x="367" y="17" type="curve"/>
      <point x="280" y="17"/>
      <point x="231" y="56"/>
      <point x="231" y="145" type="curve"/>
      <point x="231" y="673" type="line"/>
      <point x="209" y="660"/>
      <point x="229" y="671"/>
      <point x="207" y="658" type="curve"/>
      <point x="207" y="143" type="line"/>
      <point x="207" y="43"/>
      <point x="265" y="-5"/>
      <point x="365" y="-5" type="curve"/>
      <point x="417" y="-5"/>
      <point x="453" y="9"/>
      <point x="503" y="28" type="curve"/>
      <point x="494" y="48"/>
      <point x="503" y="28"/>
    </contour>
  </outline>
</glyph>
<glyph name="z" format="1">
  <advance width="634"/>
  <unicode hex="007A"/>
  <outline>
    <contour>
      <point x="312" y="669" type="move" name="top"/>
    </contour>
    <contour>
      <point x="72" y="511" type="curve"/>
      <point x="230" y="511"/>
      <point x="387" y="511"/>
      <point x="545" y="511" type="curve"/>
      <point x="543" y="514"/>
      <point x="541" y="515"/>
      <point x="538" y="518" type="curve"/>
      <point x="536" y="520"/>
      <point x="535" y="521"/>
      <point x="533" y="523" type="curve"/>
      <point x="529" y="520"/>
      <point x="526" y="516"/>
      <point x="522" y="512" type="curve"/>
      <point x="56" y="22" type="line"/>
      <point x="56" y="10"/>
      <point x="56" y="22"/>
      <point x="56" y="10" type="curve"/>
      <point x="56" y="0"/>
      <point x="56" y="10"/>
      <point x="56" y="0" type="curve"/>
      <point x="61" y="0"/>
      <point x="56" y="0"/>
      <point x="61" y="0" type="curve"/>
      <point x="581" y="0"/>
      <point x="407" y="0"/>
      <point x="581" y="0" type="curve"/>
      <point x="581" y="22"/>
      <point x="581" y="0"/>
      <point x="581" y="22" type="curve"/>
      <point x="407" y="22"/>
      <point x="234" y="22"/>
      <point x="61" y="22" type="curve"/>
      <point x="63" y="20"/>
      <point x="65" y="18"/>
      <point x="67" y="16" type="curve"/>
      <point x="69" y="14"/>
      <point x="73" y="12"/>
      <point x="75" y="10" type="curve"/>
      <point x="78" y="13"/>
      <point x="81" y="17"/>
      <point x="85" y="21" type="curve"/>
      <point x="552" y="511" type="line"/>
      <point x="552" y="523"/>
      <point x="552" y="511"/>
      <point x="552" y="523" type="curve"/>
      <point x="552" y="533"/>
      <point x="552" y="523"/>
      <point x="552" y="533" type="curve"/>
      <point x="545" y="533"/>
      <point x="552" y="533"/>
      <point x="545" y="533" type="curve"/>
      <point x="387" y="533"/>
      <point x="230" y="533"/>
      <point x="72" y="533" type="curve"/>
      <point x="72" y="511"/>
      <point x="72" y="533"/>
    </contour>
    <contour>
      <point x="72" y="522" type="curve"/>
      <point x="72" y="402"/>
      <point x="72" y="523"/>
      <point x="72" y="403" type="curve"/>
      <point x="93" y="403"/>
      <point x="72" y="403"/>
      <point x="93" y="403" type="curve"/>
      <point x="93" y="523"/>
      <point x="93" y="402"/>
      <point x="93" y="522" type="curve"/>
      <point x="72" y="522"/>
      <point x="93" y="522"/>
    </contour>
    <contour>
      <point x="581" y="11" type="curve"/>
      <point x="581" y="131"/>
      <point x="581" y="10"/>
      <point x="581" y="130" type="curve"/>
      <point x="559" y="130"/>
      <point x="581" y="130"/>
      <point x="559" y="130" type="curve"/>
      <point x="559" y="10"/>
      <point x="559" y="131"/>
      <point x="559" y="11" type="curve"/>
      <point x="581" y="11"/>
      <point x="559" y="11"/>
    </contour>
  </outline>
</glyph>
<glyph name="braceleft" format="1">
  <advance width="387"/>
  <unicode hex="007B"/>
  <outline>
    <contour>
      <point x="338" y="-102" type="curve"/>
      <point x="254" y="-102"/>
      <point x="199" y="-56"/>
      <point x="199" y="26" type="curve"/>
      <point x="199" y="85"/>
      <point x="199" y="144"/>
      <point x="199" y="203" type="curve"/>
      <point x="199" y="296"/>
      <point x="136" y="350"/>
      <point x="41" y="350" type="curve"/>
      <point x="41" y="328"/>
      <point x="41" y="350"/>
      <point x="41" y="328" type="curve"/>
      <point x="122" y="328"/>
      <point x="178" y="285"/>
      <point x="178" y="205" type="curve"/>
      <point x="178" y="146"/>
      <point x="178" y="86"/>
      <point x="178" y="27" type="curve"/>
      <point x="178" y="-68"/>
      <point x="241" y="-123"/>
      <point x="338" y="-123" type="curve"/>
      <point x="338" y="-102"/>
      <point x="338" y="-123"/>
    </contour>
    <contour>
      <point x="338" y="800" type="curve"/>
      <point x="240" y="800"/>
      <point x="177" y="746"/>
      <point x="177" y="650" type="curve"/>
      <point x="177" y="590"/>
      <point x="177" y="530"/>
      <point x="177" y="470" type="curve"/>
      <point x="177" y="391"/>
      <point x="122" y="350"/>
      <point x="41" y="350" type="curve"/>
      <point x="41" y="328"/>
      <point x="41" y="350"/>
      <point x="41" y="328" type="curve"/>
      <point x="135" y="328"/>
      <point x="199" y="380"/>
      <point x="199" y="473" type="curve"/>
      <point x="199" y="532"/>
      <point x="199" y="591"/>
      <point x="199" y="650" type="curve"/>
      <point x="199" y="732"/>
      <point x="253" y="779"/>
      <point x="338" y="779" type="curve"/>
      <point x="338" y="800"/>
      <point x="338" y="779"/>
    </contour>
  </outline>
</glyph>
<glyph name="currency" format="1">
  <advance width="713"/>
  <unicode hex="00A4"/>
  <outline>
    <contour>
      <point x="179" y="310" type="curve"/>
      <point x="179" y="407"/>
      <point x="255" y="458"/>
      <point x="359" y="458" type="curve"/>
      <point x="462" y="458"/>
      <point x="533" y="406"/>
      <point x="533" y="310" type="curve"/>
      <point x="533" y="213"/>
      <point x="463" y="156"/>
      <point x="362" y="156" type="curve"/>
      <point x="254" y="156"/>
      <point x="179" y="209"/>
      <point x="179" y="310" type="curve"/>
      <point x="156" y="310"/>
      <point x="179" y="310"/>
      <point x="156" y="310" type="curve"/>
      <point x="156" y="196"/>
      <point x="241" y="135"/>
      <point x="361" y="135" type="curve"/>
      <point x="477" y="135"/>
      <point x="556" y="200"/>
      <point x="556" y="311" type="curve"/>
      <point x="556" y="420"/>
      <point x="475" y="479"/>
      <point x="361" y="479" type="curve"/>
      <point x="241" y="479"/>
      <point x="156" y="422"/>
      <point x="156" y="310" type="curve"/>
      <point x="179" y="310"/>
      <point x="156" y="310"/>
    </contour>
    <contour>
      <point x="508" y="409" type="line"/>
      <point x="643" y="539" type="line"/>
      <point x="622" y="561" type="line"/>
      <point x="491" y="426" type="line"/>
    </contour>
    <contour>
      <point x="490" y="193" type="line"/>
      <point x="621" y="58" type="line"/>
      <point x="642" y="80" type="line"/>
      <point x="507" y="210" type="line"/>
    </contour>
    <contour>
      <point x="203" y="210" type="line"/>
      <point x="68" y="80" type="line"/>
      <point x="89" y="58" type="line"/>
      <point x="220" y="193" type="line"/>
    </contour>
    <contour>
      <point x="220" y="426" type="line"/>
      <point x="89" y="561" type="line"/>
      <point x="68" y="539" type="line"/>
      <point x="203" y="409" type="line"/>
    </contour>
  </outline>
</glyph>
<glyph name="section" format="1">
  <advance width="581"/>
  <unicode hex="00A7"/>
  <outline>
    <contour>
      <point x="478" y="709" type="curve"/>
      <point x="413" y="738"/>
      <point x="363" y="752"/>
      <point x="291" y="752" type="curve"/>
      <point x="190" y="752"/>
      <point x="115" y="714"/>
      <point x="115" y="627" type="curve"/>
      <point x="115" y="542"/>
      <point x="185" y="510"/>
      <point x="272" y="485" type="curve"/>
      <point x="378" y="456"/>
      <point x="491" y="459"/>
      <point x="491" y="361" type="curve"/>
      <point x="491" y="282"/>
      <point x="423" y="242"/>
      <point x="331" y="228" type="curve"/>
      <point x="345" y="211"/>
      <point x="331" y="228"/>
      <point x="345" y="211" type="curve"/>
      <point x="442" y="230"/>
      <point x="515" y="269"/>
      <point x="515" y="361" type="curve"/>
      <point x="514" y="473"/>
      <point x="399" y="477"/>
      <point x="284" y="505" type="curve"/>
      <point x="205" y="526"/>
      <point x="138" y="553"/>
      <point x="138" y="627" type="curve"/>
      <point x="138" y="701"/>
      <point x="202" y="731"/>
      <point x="289" y="731" type="curve"/>
      <point x="358" y="731"/>
      <point x="405" y="719"/>
      <point x="468" y="691" type="curve"/>
      <point x="478" y="709"/>
      <point x="468" y="691"/>
    </contour>
    <contour>
      <point x="231" y="513" type="curve"/>
      <point x="141" y="491"/>
      <point x="71" y="455"/>
      <point x="71" y="367" type="curve"/>
      <point x="71" y="261"/>
      <point x="174" y="248"/>
      <point x="284" y="220" type="curve"/>
      <point x="371" y="196"/>
      <point x="454" y="180"/>
      <point x="454" y="100" type="curve"/>
      <point x="454" y="26"/>
      <point x="383" y="-8"/>
      <point x="294" y="-8" type="curve"/>
      <point x="216" y="-8"/>
      <point x="163" y="8"/>
      <point x="95" y="44" type="curve"/>
      <point x="82" y="28"/>
      <point x="95" y="44"/>
      <point x="82" y="28" type="curve"/>
      <point x="153" y="-13"/>
      <point x="211" y="-29"/>
      <point x="293" y="-29" type="curve"/>
      <point x="396" y="-29"/>
      <point x="477" y="6"/>
      <point x="477" y="100" type="curve"/>
      <point x="476" y="191"/>
      <point x="394" y="216"/>
      <point x="298" y="239" type="curve"/>
      <point x="197" y="266"/>
      <point x="95" y="276"/>
      <point x="95" y="367" type="curve"/>
      <point x="95" y="447"/>
      <point x="159" y="477"/>
      <point x="242" y="498" type="curve"/>
      <point x="231" y="513"/>
      <point x="242" y="498"/>
    </contour>
    <contour>
      <point x="104" y="28" type="curve"/>
      <point x="104" y="148"/>
      <point x="104" y="28"/>
      <point x="104" y="148" type="curve"/>
      <point x="82" y="148"/>
      <point x="104" y="148"/>
      <point x="82" y="148" type="curve"/>
      <point x="82" y="28"/>
      <point x="82" y="148"/>
      <point x="82" y="28" type="curve"/>
      <point x="104" y="28"/>
      <point x="82" y="28"/>
    </contour>
    <contour>
      <point x="478" y="589" type="curve"/>
      <point x="478" y="709"/>
      <point x="478" y="589"/>
      <point x="478" y="709" type="curve"/>
      <point x="456" y="709"/>
      <point x="478" y="709"/>
      <point x="456" y="709" type="curve"/>
      <point x="456" y="589"/>
      <point x="456" y="709"/>
      <point x="456" y="589" type="curve"/>
      <point x="478" y="589"/>
      <point x="456" y="589"/>
    </contour>
  </outline>
</glyph>
<glyph name="guillemotleft" format="1">
  <advance width="756"/>
  <unicode hex="00AB"/>
  <outline>
    <contour>
      <point x="365" y="397" type="curve"/>
      <point x="79" y="288" type="line"/>
      <point x="79" y="265"/>
      <point x="79" y="288"/>
      <point x="79" y="265" type="curve"/>
      <point x="365" y="374" type="line"/>
      <point x="365" y="397"/>
      <point x="365" y="374"/>
    </contour>
    <contour>
      <point x="365" y="179" type="curve"/>
      <point x="79" y="288" type="line"/>
      <point x="79" y="265"/>
      <point x="79" y="288"/>
      <point x="79" y="265" type="curve"/>
      <point x="365" y="156" type="line"/>
      <point x="365" y="179"/>
      <point x="365" y="156"/>
    </contour>
    <contour>
      <point x="656" y="397" type="curve"/>
      <point x="370" y="288" type="line"/>
      <point x="370" y="265"/>
      <point x="370" y="288"/>
      <point x="370" y="265" type="curve"/>
      <point x="656" y="374" type="line"/>
      <point x="656" y="397"/>
      <point x="656" y="374"/>
    </contour>
    <contour>
      <point x="657" y="179" type="curve"/>
      <point x="370" y="288" type="line"/>
      <point x="370" y="265"/>
      <point x="370" y="288"/>
      <point x="370" y="265" type="curve"/>
      <point x="657" y="156" type="line"/>
      <point x="657" y="179"/>
      <point x="657" y="156"/>
    </contour>
  </outline>
</glyph>
<glyph name="registered" format="1">
  <advance width="935"/>
  <unicode hex="00AE"/>
  <outline>
    <contour>
      <point x="91" y="319" type="curve"/>
      <point x="91" y="518"/>
      <point x="259" y="625"/>
      <point x="472" y="625" type="curve"/>
      <point x="680" y="625"/>
      <point x="844" y="515"/>
      <point x="844" y="318" type="curve"/>
      <point x="844" y="126"/>
      <point x="684" y="17"/>
      <point x="480" y="17" type="curve"/>
      <point x="265" y="17"/>
      <point x="91" y="119"/>
      <point x="91" y="319" type="curve"/>
      <point x="68" y="319"/>
      <point x="91" y="319"/>
      <point x="68" y="319" type="curve"/>
      <point x="68" y="108"/>
      <point x="250" y="-4"/>
      <point x="479" y="-4" type="curve"/>
      <point x="698" y="-4"/>
      <point x="867" y="113"/>
      <point x="867" y="319" type="curve"/>
      <point x="867" y="528"/>
      <point x="694" y="645"/>
      <point x="472" y="645" type="curve"/>
      <point x="247" y="645"/>
      <point x="68" y="531"/>
      <point x="68" y="319" type="curve"/>
      <point x="91" y="319"/>
      <point x="68" y="319"/>
    </contour>
    <contour>
      <point x="599" y="149" type="curve"/>
      <point x="626" y="149"/>
      <point x="653" y="149"/>
      <point x="680" y="149" type="curve"/>
      <point x="680" y="169"/>
      <point x="680" y="149"/>
      <point x="680" y="169" type="curve"/>
      <point x="659" y="169"/>
      <point x="637" y="169"/>
      <point x="616" y="169" type="curve"/>
      <point x="599" y="149"/>
      <point x="616" y="169"/>
    </contour>
    <contour>
      <point x="386" y="491" type="curve"/>
      <point x="351" y="491"/>
      <point x="318" y="491"/>
      <point x="283" y="491" type="curve"/>
      <point x="283" y="470"/>
      <point x="283" y="491"/>
      <point x="283" y="470" type="curve"/>
      <point x="310" y="470"/>
      <point x="336" y="470"/>
      <point x="363" y="470" type="curve"/>
      <point x="386" y="491"/>
      <point x="363" y="470"/>
    </contour>
    <contour>
      <point x="386" y="170" type="curve"/>
      <point x="351" y="170"/>
      <point x="318" y="170"/>
      <point x="283" y="170" type="curve"/>
      <point x="283" y="149"/>
      <point x="283" y="170"/>
      <point x="283" y="149" type="curve"/>
      <point x="310" y="149"/>
      <point x="336" y="149"/>
      <point x="363" y="149" type="curve"/>
      <point x="386" y="170"/>
      <point x="363" y="149"/>
    </contour>
    <contour>
      <point x="362" y="149" type="curve"/>
      <point x="392" y="149"/>
      <point x="423" y="149"/>
      <point x="453" y="149" type="curve"/>
      <point x="453" y="169"/>
      <point x="453" y="149"/>
      <point x="453" y="169" type="curve"/>
      <point x="431" y="169"/>
      <point x="408" y="169"/>
      <point x="385" y="169" type="curve"/>
      <point x="362" y="149"/>
      <point x="385" y="169"/>
    </contour>
    <contour>
      <point x="487" y="309" type="curve"/>
      <point x="525" y="256"/>
      <point x="562" y="202"/>
      <point x="599" y="149" type="curve"/>
      <point x="616" y="169"/>
      <point x="599" y="149"/>
      <point x="616" y="169" type="curve"/>
      <point x="515" y="309" type="line"/>
      <point x="487" y="309"/>
      <point x="515" y="309"/>
    </contour>
    <contour>
      <point x="386" y="170" type="curve"/>
      <point x="386" y="277"/>
      <point x="386" y="384"/>
      <point x="386" y="491" type="curve"/>
      <point x="363" y="470"/>
      <point x="386" y="491"/>
      <point x="363" y="470" type="curve"/>
      <point x="363" y="363"/>
      <point x="363" y="256"/>
      <point x="363" y="149" type="curve"/>
      <point x="386" y="170"/>
      <point x="363" y="149"/>
    </contour>
    <contour>
      <point x="377" y="295" type="curve"/>
      <point x="403" y="295"/>
      <point x="431" y="295"/>
      <point x="458" y="295" type="curve"/>
      <point x="540" y="295"/>
      <point x="602" y="316"/>
      <point x="602" y="392" type="curve"/>
      <point x="602" y="462"/>
      <point x="544" y="491"/>
      <point x="467" y="491" type="curve"/>
      <point x="441" y="491"/>
      <point x="413" y="491"/>
      <point x="386" y="491" type="curve"/>
      <point x="363" y="470"/>
      <point x="386" y="491"/>
      <point x="363" y="470" type="curve"/>
      <point x="396" y="470"/>
      <point x="430" y="470"/>
      <point x="463" y="470" type="curve"/>
      <point x="528" y="470"/>
      <point x="579" y="449"/>
      <point x="579" y="390" type="curve"/>
      <point x="579" y="329"/>
      <point x="528" y="316"/>
      <point x="461" y="316" type="curve"/>
      <point x="433" y="316"/>
      <point x="404" y="316"/>
      <point x="377" y="316" type="curve"/>
      <point x="377" y="295"/>
      <point x="377" y="316"/>
    </contour>
  </outline>
</glyph>
<glyph name="threesuperior" format="1">
  <advance width="510"/>
  <unicode hex="00B3"/>
  <outline>
    <contour>
      <point x="254" y="708" type="move" name="_top"/>
    </contour>
    <contour>
      <point x="245" y="289" type="move" name="_bottom"/>
    </contour>
    <contour>
      <point x="111" y="643" type="curve"/>
      <point x="150" y="671"/>
      <point x="192" y="688"/>
      <point x="241" y="688" type="curve"/>
      <point x="320" y="688"/>
      <point x="384" y="672"/>
      <point x="384" y="602" type="curve"/>
      <point x="384" y="517"/>
      <point x="283" y="519"/>
      <point x="184" y="513" type="curve"/>
      <point x="184" y="495"/>
      <point x="184" y="513"/>
      <point x="184" y="495" type="curve"/>
      <point x="300" y="496"/>
      <point x="407" y="504"/>
      <point x="407" y="604" type="curve"/>
      <point x="407" y="685"/>
      <point x="335" y="708"/>
      <point x="244" y="708" type="curve"/>
      <point x="188" y="708"/>
      <point x="137" y="690"/>
      <point x="97" y="656" type="curve"/>
      <point x="111" y="643"/>
      <point x="97" y="656"/>
    </contour>
    <contour>
      <point x="89" y="323" type="curve"/>
      <point x="135" y="301"/>
      <point x="181" y="290"/>
      <point x="232" y="290" type="curve"/>
      <point x="340" y="287"/>
      <point x="430" y="309"/>
      <point x="427" y="402" type="curve"/>
      <point x="427" y="512"/>
      <point x="309" y="504"/>
      <point x="184" y="506" type="curve"/>
      <point x="184" y="491"/>
      <point x="184" y="506"/>
      <point x="184" y="491" type="curve"/>
      <point x="299" y="486"/>
      <point x="404" y="492"/>
      <point x="404" y="401" type="curve"/>
      <point x="404" y="322"/>
      <point x="328" y="308"/>
      <point x="234" y="310" type="curve"/>
      <point x="187" y="310"/>
      <point x="143" y="319"/>
      <point x="101" y="338" type="curve"/>
      <point x="89" y="323"/>
      <point x="101" y="338"/>
    </contour>
  </outline>
</glyph>
<glyph name="acute" format="1">
  <advance width="288"/>
  <unicode hex="00B4"/>
  <outline>
    <contour>
      <point x="20" y="591" type="move" name="_top"/>
    </contour>
    <contour>
      <point x="34" y="591" type="line"/>
      <point x="220" y="757" type="line"/>
      <point x="181" y="757" type="line"/>
      <point x="5" y="591" type="line"/>
    </contour>
  </outline>
</glyph>
<glyph name="periodcentered" format="1">
  <advance width="218"/>
  <unicode hex="00B7"/>
  <outline>
    <contour>
      <point x="127" y="440" type="curve"/>
      <point x="127" y="451"/>
      <point x="119" y="458"/>
      <point x="108" y="458" type="curve"/>
      <point x="97" y="458"/>
      <point x="90" y="451"/>
      <point x="90" y="440" type="curve"/>
      <point x="106" y="440"/>
      <point x="111" y="440"/>
      <point x="127" y="440" type="curve"/>
      <point x="127" y="429"/>
      <point x="119" y="422"/>
      <point x="108" y="422" type="curve"/>
      <point x="97" y="422"/>
      <point x="90" y="429"/>
      <point x="90" y="440" type="curve"/>
      <point x="106" y="440"/>
      <point x="111" y="440"/>
    </contour>
  </outline>
</glyph>
<glyph name="cedilla" format="1">
  <advance width="381"/>
  <unicode hex="00B8"/>
  <outline>
    <contour>
      <point x="165" y="3" type="move" name="_bottom"/>
    </contour>
    <contour>
      <point x="150" y="17" type="curve"/>
      <point x="131" y="-10"/>
      <point x="112" y="-36"/>
      <point x="93" y="-63" type="curve"/>
      <point x="109" y="-80"/>
      <point x="93" y="-63"/>
      <point x="109" y="-80" type="curve"/>
      <point x="128" y="-52"/>
      <point x="148" y="-25"/>
      <point x="167" y="3" type="curve"/>
      <point x="150" y="17"/>
      <point x="167" y="3"/>
    </contour>
    <contour>
      <point x="109" y="-81" type="curve"/>
      <point x="129" y="-70"/>
      <point x="146" y="-68"/>
      <point x="170" y="-68" type="curve"/>
      <point x="212" y="-68"/>
      <point x="241" y="-86"/>
      <point x="241" y="-125" type="curve"/>
      <point x="241" y="-168"/>
      <point x="202" y="-180"/>
      <point x="153" y="-180" type="curve"/>
      <point x="119" y="-180"/>
      <point x="93" y="-178"/>
      <point x="62" y="-163" type="curve"/>
      <point x="53" y="-180"/>
      <point x="62" y="-163"/>
      <point x="53" y="-180" type="curve"/>
      <point x="87" y="-195"/>
      <point x="115" y="-201"/>
      <point x="152" y="-201" type="curve"/>
      <point x="215" y="-201"/>
      <point x="264" y="-182"/>
      <point x="264" y="-125" type="curve"/>
      <point x="264" y="-74"/>
      <point x="226" y="-47"/>
      <point x="172" y="-47" type="curve"/>
      <point x="142" y="-47"/>
      <point x="121" y="-53"/>
      <point x="94" y="-64" type="curve"/>
      <point x="109" y="-81"/>
      <point x="94" y="-64"/>
    </contour>
  </outline>
</glyph>
<glyph name="onesuperior" format="1">
  <advance width="449"/>
  <unicode hex="00B9"/>
  <outline>
    <contour>
      <point x="265" y="700" type="move" name="_top"/>
    </contour>
    <contour>
      <point x="263" y="296" type="move" name="_bottom"/>
    </contour>
    <contour>
      <point x="252" y="295" type="curve"/>
      <point x="294" y="295"/>
      <point x="334" y="295"/>
      <point x="377" y="295" type="curve"/>
      <point x="377" y="316"/>
      <point x="377" y="295"/>
      <point x="377" y="316" type="curve"/>
      <point x="342" y="316"/>
      <point x="310" y="316"/>
      <point x="275" y="316" type="curve"/>
      <point x="252" y="295"/>
      <point x="275" y="316"/>
    </contour>
    <contour>
      <point x="276" y="316" type="curve"/>
      <point x="231" y="316"/>
      <point x="189" y="316"/>
      <point x="144" y="316" type="curve"/>
      <point x="144" y="295"/>
      <point x="144" y="316"/>
      <point x="144" y="295" type="curve"/>
      <point x="181" y="295"/>
      <point x="216" y="295"/>
      <point x="252" y="295" type="curve"/>
      <point x="276" y="316"/>
      <point x="252" y="295"/>
    </contour>
    <contour>
      <point x="94" y="576" type="line"/>
      <point x="275" y="693" type="line"/>
      <point x="252" y="703" type="line"/>
      <point x="84" y="594" type="line"/>
    </contour>
    <contour>
      <point x="276" y="316" type="curve"/>
      <point x="276" y="703" type="line"/>
      <point x="252" y="703" type="line"/>
      <point x="252" y="295" type="line"/>
      <point x="276" y="316"/>
      <point x="252" y="295"/>
    </contour>
  </outline>
</glyph>
<glyph name="guillemotright" format="1">
  <advance width="756"/>
  <unicode hex="00BB"/>
  <outline>
    <contour>
      <point x="391" y="397" type="curve"/>
      <point x="677" y="288" type="line"/>
      <point x="677" y="265"/>
      <point x="677" y="288"/>
      <point x="677" y="265" type="curve"/>
      <point x="391" y="374" type="line"/>
      <point x="391" y="397"/>
      <point x="391" y="374"/>
    </contour>
    <contour>
      <point x="391" y="179" type="curve"/>
      <point x="677" y="288" type="line"/>
      <point x="677" y="265"/>
      <point x="677" y="288"/>
      <point x="677" y="265" type="curve"/>
      <point x="391" y="156" type="line"/>
      <point x="391" y="179"/>
      <point x="391" y="156"/>
    </contour>
    <contour>
      <point x="100" y="397" type="curve"/>
      <point x="386" y="288" type="line"/>
      <point x="386" y="265"/>
      <point x="386" y="288"/>
      <point x="386" y="265" type="curve"/>
      <point x="100" y="374" type="line"/>
      <point x="100" y="397"/>
      <point x="100" y="374"/>
    </contour>
    <contour>
      <point x="100" y="179" type="curve"/>
      <point x="386" y="288" type="line"/>
      <point x="386" y="265"/>
      <point x="386" y="288"/>
      <point x="386" y="265" type="curve"/>
      <point x="100" y="156" type="line"/>
      <point x="100" y="179"/>
      <point x="100" y="156"/>
    </contour>
  </outline>
</glyph>
<glyph name="onehalf" format="1">
  <advance width="1306"/>
  <unicode hex="00BD"/>
  <outline>
    <contour>
      <point x="392" y="-93" type="line"/>
      <point x="940" y="757" type="line"/>
      <point x="913" y="757" type="line"/>
      <point x="365" y="-93" type="line"/>
    </contour>
    <contour>
      <point x="212" y="353" type="curve"/>
      <point x="255" y="353"/>
      <point x="295" y="353"/>
      <point x="338" y="353" type="curve"/>
      <point x="338" y="374"/>
      <point x="338" y="353"/>
      <point x="338" y="374" type="curve"/>
      <point x="302" y="374"/>
      <point x="270" y="374"/>
      <point x="235" y="374" type="curve"/>
      <point x="212" y="353"/>
      <point x="235" y="374"/>
    </contour>
    <contour>
      <point x="236" y="374" type="curve"/>
      <point x="191" y="374"/>
      <point x="149" y="374"/>
      <point x="104" y="374" type="curve"/>
      <point x="104" y="353"/>
      <point x="104" y="374"/>
      <point x="104" y="353" type="curve"/>
      <point x="141" y="353"/>
      <point x="176" y="353"/>
      <point x="213" y="353" type="curve"/>
      <point x="236" y="374"/>
      <point x="213" y="353"/>
    </contour>
    <contour>
      <point x="55" y="633" type="line"/>
      <point x="236" y="750" type="line"/>
      <point x="213" y="760" type="line"/>
      <point x="44" y="651" type="line"/>
    </contour>
    <contour>
      <point x="236" y="374" type="curve"/>
      <point x="236" y="760" type="line"/>
      <point x="213" y="760" type="line"/>
      <point x="213" y="353" type="line"/>
      <point x="236" y="374"/>
      <point x="213" y="353"/>
    </contour>
    <contour>
      <point x="1261" y="-97" type="curve"/>
      <point x="1261" y="-64"/>
      <point x="1261" y="-33"/>
      <point x="1261" y="2" type="curve"/>
      <point x="1240" y="2"/>
      <point x="1261" y="2"/>
      <point x="1240" y="2" type="curve"/>
      <point x="1240" y="-26"/>
      <point x="1240" y="-50"/>
      <point x="1240" y="-76" type="curve"/>
      <point x="1261" y="-97"/>
      <point x="1240" y="-76"/>
    </contour>
    <contour>
      <point x="860" y="-97" type="curve"/>
      <point x="1000" y="-97"/>
      <point x="1130" y="-97"/>
      <point x="1261" y="-97" type="curve"/>
      <point x="1240" y="-76"/>
      <point x="1261" y="-97"/>
      <point x="1240" y="-76" type="curve"/>
      <point x="1114" y="-76"/>
      <point x="987" y="-76"/>
      <point x="860" y="-76" type="curve"/>
      <point x="860" y="-97"/>
      <point x="860" y="-76"/>
    </contour>
    <contour>
      <point x="915" y="221" type="curve"/>
      <point x="955" y="272"/>
      <point x="1003" y="296"/>
      <point x="1073" y="296" type="curve"/>
      <point x="1152" y="296"/>
      <point x="1213" y="268"/>
      <point x="1213" y="198" type="curve"/>
      <point x="1213" y="136"/>
      <point x="1163" y="113"/>
      <point x="1112" y="78" type="curve"/>
      <point x="1027" y="27"/>
      <point x="943" y="-25"/>
      <point x="860" y="-76" type="curve"/>
      <point x="870" y="-97"/>
      <point x="860" y="-76"/>
      <point x="870" y="-97" type="curve"/>
      <point x="955" y="-44"/>
      <point x="1041" y="9"/>
      <point x="1127" y="61" type="curve"/>
      <point x="1183" y="101"/>
      <point x="1235" y="130"/>
      <point x="1235" y="199" type="curve"/>
      <point x="1235" y="281"/>
      <point x="1165" y="317"/>
      <point x="1074" y="317" type="curve"/>
      <point x="996" y="317"/>
      <point x="938" y="294"/>
      <point x="897" y="232" type="curve"/>
      <point x="915" y="221"/>
      <point x="897" y="232"/>
    </contour>
  </outline>
</glyph>
<glyph name="Atilde" format="1">
  <advance width="1002"/>
  <unicode hex="00C3"/>
  <outline>
    <contour>
      <point x="130" y="22" type="curve"/>
      <point x="-26" y="22"/>
      <point x="132" y="22"/>
      <point x="-24" y="22" type="curve"/>
      <point x="-24" y="0"/>
      <point x="-24" y="22"/>
      <point x="-24" y="0" type="curve"/>
      <point x="28" y="0"/>
      <point x="78" y="0"/>
      <point x="130" y="0" type="curve"/>
      <point x="130" y="22"/>
      <point x="130" y="0"/>
    </contour>
    <contour>
      <point x="130" y="0" type="curve"/>
      <point x="185" y="0"/>
      <point x="128" y="0"/>
      <point x="290" y="0" type="curve"/>
      <point x="290" y="22"/>
      <point x="290" y="0"/>
      <point x="290" y="22" type="curve"/>
      <point x="128" y="22"/>
      <point x="292" y="22"/>
      <point x="130" y="22" type="curve"/>
      <point x="130" y="0"/>
      <point x="130" y="22"/>
    </contour>
    <contour>
      <point x="833" y="0" type="curve"/>
      <point x="885" y="0"/>
      <point x="935" y="0"/>
      <point x="987" y="0" type="curve"/>
      <point x="987" y="22"/>
      <point x="987" y="0"/>
      <point x="987" y="22" type="curve"/>
      <point x="831" y="22"/>
      <point x="989" y="22"/>
      <point x="833" y="22" type="curve"/>
      <point x="833" y="0"/>
      <point x="833" y="22"/>
    </contour>
    <contour>
      <point x="833" y="22" type="curve"/>
      <point x="672" y="22"/>
      <point x="835" y="22"/>
      <point x="674" y="22" type="curve"/>
      <point x="674" y="0"/>
      <point x="674" y="22"/>
      <point x="674" y="0" type="curve"/>
      <point x="728" y="0"/>
      <point x="779" y="0"/>
      <point x="833" y="0" type="curve"/>
      <point x="833" y="22"/>
      <point x="833" y="0"/>
    </contour>
    <contour>
      <point x="718" y="277" type="curve"/>
      <point x="567" y="277"/>
      <point x="416" y="277"/>
      <point x="266" y="277" type="curve"/>
      <point x="256" y="254"/>
      <point x="266" y="277"/>
      <point x="256" y="254" type="curve"/>
      <point x="412" y="254"/>
      <point x="569" y="254"/>
      <point x="726" y="254" type="curve"/>
      <point x="718" y="277"/>
      <point x="726" y="254"/>
    </contour>
    <contour>
      <point x="861" y="0" type="curve"/>
      <point x="745" y="241"/>
      <point x="630" y="481"/>
      <point x="514" y="722" type="curve"/>
      <point x="492" y="722"/>
      <point x="514" y="722"/>
      <point x="492" y="722" type="curve"/>
      <point x="607" y="481"/>
      <point x="721" y="241"/>
      <point x="835" y="0" type="curve"/>
      <point x="861" y="0"/>
      <point x="835" y="0"/>
    </contour>
    <contour>
      <point x="128" y="0" type="curve"/>
      <point x="256" y="241"/>
      <point x="383" y="481"/>
      <point x="512" y="722" type="curve"/>
      <point x="490" y="722"/>
      <point x="512" y="722"/>
      <point x="490" y="722" type="curve"/>
      <point x="360" y="481"/>
      <point x="231" y="241"/>
      <point x="102" y="0" type="curve"/>
      <point x="128" y="0"/>
      <point x="102" y="0"/>
    </contour>
    <contour>
      <point x="718" y="948" type="curve"/>
      <point x="700" y="892"/>
      <point x="677" y="845"/>
      <point x="621" y="845" type="curve"/>
      <point x="573" y="845"/>
      <point x="541" y="862"/>
      <point x="505" y="894" type="curve"/>
      <point x="467" y="928"/>
      <point x="437" y="949"/>
      <point x="387" y="949" type="curve"/>
      <point x="315" y="949"/>
      <point x="277" y="902"/>
      <point x="259" y="830" type="curve"/>
      <point x="278" y="824"/>
      <point x="259" y="830"/>
      <point x="278" y="824" type="curve"/>
      <point x="295" y="886"/>
      <point x="326" y="928"/>
      <point x="387" y="928" type="curve"/>
      <point x="430" y="928"/>
      <point x="456" y="910"/>
      <point x="488" y="880" type="curve"/>
      <point x="529" y="845"/>
      <point x="565" y="824"/>
      <point x="619" y="824" type="curve"/>
      <point x="687" y="824"/>
      <point x="716" y="877"/>
      <point x="738" y="944" type="curve"/>
      <point x="718" y="948"/>
      <point x="738" y="944"/>
    </contour>
  </outline>
</glyph>
<glyph name="Adieresis" format="1">
  <advance width="1002"/>
  <unicode hex="00C4"/>
  <outline>
    <contour>
      <point x="130" y="22" type="curve"/>
      <point x="-26" y="22"/>
      <point x="132" y="22"/>
      <point x="-24" y="22" type="curve"/>
      <point x="-24" y="0"/>
      <point x="-24" y="22"/>
      <point x="-24" y="0" type="curve"/>
      <point x="28" y="0"/>
      <point x="78" y="0"/>
      <point x="130" y="0" type="curve"/>
      <point x="130" y="22"/>
      <point x="130" y="0"/>
    </contour>
    <contour>
      <point x="130" y="0" type="curve"/>
      <point x="185" y="0"/>
      <point x="128" y="0"/>
      <point x="290" y="0" type="curve"/>
      <point x="290" y="22"/>
      <point x="290" y="0"/>
      <point x="290" y="22" type="curve"/>
      <point x="128" y="22"/>
      <point x="292" y="22"/>
      <point x="130" y="22" type="curve"/>
      <point x="130" y="0"/>
      <point x="130" y="22"/>
    </contour>
    <contour>
      <point x="833" y="0" type="curve"/>
      <point x="885" y="0"/>
      <point x="935" y="0"/>
      <point x="987" y="0" type="curve"/>
      <point x="987" y="22"/>
      <point x="987" y="0"/>
      <point x="987" y="22" type="curve"/>
      <point x="831" y="22"/>
      <point x="989" y="22"/>
      <point x="833" y="22" type="curve"/>
      <point x="833" y="0"/>
      <point x="833" y="22"/>
    </contour>
    <contour>
      <point x="833" y="22" type="curve"/>
      <point x="672" y="22"/>
      <point x="835" y="22"/>
      <point x="674" y="22" type="curve"/>
      <point x="674" y="0"/>
      <point x="674" y="22"/>
      <point x="674" y="0" type="curve"/>
      <point x="728" y="0"/>
      <point x="779" y="0"/>
      <point x="833" y="0" type="curve"/>
      <point x="833" y="22"/>
      <point x="833" y="0"/>
    </contour>
    <contour>
      <point x="718" y="277" type="curve"/>
      <point x="567" y="277"/>
      <point x="416" y="277"/>
      <point x="266" y="277" type="curve"/>
      <point x="256" y="254"/>
      <point x="266" y="277"/>
      <point x="256" y="254" type="curve"/>
      <point x="412" y="254"/>
      <point x="569" y="254"/>
      <point x="726" y="254" type="curve"/>
      <point x="718" y="277"/>
      <point x="726" y="254"/>
    </contour>
    <contour>
      <point x="861" y="0" type="curve"/>
      <point x="745" y="241"/>
      <point x="630" y="481"/>
      <point x="514" y="722" type="curve"/>
      <point x="492" y="722"/>
      <point x="514" y="722"/>
      <point x="492" y="722" type="curve"/>
      <point x="607" y="481"/>
      <point x="721" y="241"/>
      <point x="835" y="0" type="curve"/>
      <point x="861" y="0"/>
      <point x="835" y="0"/>
    </contour>
    <contour>
      <point x="128" y="0" type="curve"/>
      <point x="256" y="241"/>
      <point x="383" y="481"/>
      <point x="512" y="722" type="curve"/>
      <point x="490" y="722"/>
      <point x="512" y="722"/>
      <point x="490" y="722" type="curve"/>
      <point x="360" y="481"/>
      <point x="231" y="241"/>
      <point x="102" y="0" type="curve"/>
      <point x="128" y="0"/>
      <point x="102" y="0"/>
    </contour>
    <contour>
      <point x="442" y="843" type="curve"/>
      <point x="442" y="854"/>
      <point x="434" y="861"/>
      <point x="422" y="861" type="curve"/>
      <point x="411" y="861"/>
      <point x="404" y="854"/>
      <point x="404" y="843" type="curve"/>
      <point x="420" y="843"/>
      <point x="425" y="843"/>
      <point x="442" y="843" type="curve"/>
      <point x="442" y="832"/>
      <point x="434" y="825"/>
      <point x="422" y="825" type="curve"/>
      <point x="411" y="825"/>
      <point x="404" y="832"/>
      <point x="404" y="843" type="curve"/>
      <point x="420" y="843"/>
      <point x="425" y="843"/>
    </contour>
    <contour>
      <point x="596" y="843" type="curve"/>
      <point x="596" y="854"/>
      <point x="588" y="861"/>
      <point x="576" y="861" type="curve"/>
      <point x="565" y="861"/>
      <point x="558" y="854"/>
      <point x="558" y="843" type="curve"/>
      <point x="574" y="843"/>
      <point x="580" y="843"/>
      <point x="596" y="843" type="curve"/>
      <point x="596" y="832"/>
      <point x="588" y="825"/>
      <point x="576" y="825" type="curve"/>
      <point x="565" y="825"/>
      <point x="558" y="832"/>
      <point x="558" y="843" type="curve"/>
      <point x="574" y="843"/>
      <point x="580" y="843"/>
    </contour>
  </outline>
</glyph>
<glyph name="Aring" format="1">
  <advance width="1002"/>
  <unicode hex="00C5"/>
  <outline>
    <contour>
      <point x="130" y="22" type="curve"/>
      <point x="-26" y="22"/>
      <point x="132" y="22"/>
      <point x="-24" y="22" type="curve"/>
      <point x="-24" y="0"/>
      <point x="-24" y="22"/>
      <point x="-24" y="0" type="curve"/>
      <point x="28" y="0"/>
      <point x="78" y="0"/>
      <point x="130" y="0" type="curve"/>
      <point x="130" y="22"/>
      <point x="130" y="0"/>
    </contour>
    <contour>
      <point x="130" y="0" type="curve"/>
      <point x="185" y="0"/>
      <point x="128" y="0"/>
      <point x="290" y="0" type="curve"/>
      <point x="290" y="22"/>
      <point x="290" y="0"/>
      <point x="290" y="22" type="curve"/>
      <point x="128" y="22"/>
      <point x="292" y="22"/>
      <point x="130" y="22" type="curve"/>
      <point x="130" y="0"/>
      <point x="130" y="22"/>
    </contour>
    <contour>
      <point x="833" y="0" type="curve"/>
      <point x="885" y="0"/>
      <point x="935" y="0"/>
      <point x="987" y="0" type="curve"/>
      <point x="987" y="22"/>
      <point x="987" y="0"/>
      <point x="987" y="22" type="curve"/>
      <point x="831" y="22"/>
      <point x="989" y="22"/>
      <point x="833" y="22" type="curve"/>
      <point x="833" y="0"/>
      <point x="833" y="22"/>
    </contour>
    <contour>
      <point x="833" y="22" type="curve"/>
      <point x="672" y="22"/>
      <point x="835" y="22"/>
      <point x="674" y="22" type="curve"/>
      <point x="674" y="0"/>
      <point x="674" y="22"/>
      <point x="674" y="0" type="curve"/>
      <point x="728" y="0"/>
      <point x="779" y="0"/>
      <point x="833" y="0" type="curve"/>
      <point x="833" y="22"/>
      <point x="833" y="0"/>
    </contour>
    <contour>
      <point x="718" y="277" type="curve"/>
      <point x="567" y="277"/>
      <point x="416" y="277"/>
      <point x="266" y="277" type="curve"/>
      <point x="256" y="254"/>
      <point x="266" y="277"/>
      <point x="256" y="254" type="curve"/>
      <point x="412" y="254"/>
      <point x="569" y="254"/>
      <point x="726" y="254" type="curve"/>
      <point x="718" y="277"/>
      <point x="726" y="254"/>
    </contour>
    <contour>
      <point x="861" y="0" type="curve"/>
      <point x="745" y="241"/>
      <point x="630" y="481"/>
      <point x="514" y="722" type="curve"/>
      <point x="492" y="722"/>
      <point x="514" y="722"/>
      <point x="492" y="722" type="curve"/>
      <point x="607" y="481"/>
      <point x="721" y="241"/>
      <point x="835" y="0" type="curve"/>
      <point x="861" y="0"/>
      <point x="835" y="0"/>
    </contour>
    <contour>
      <point x="128" y="0" type="curve"/>
      <point x="256" y="241"/>
      <point x="383" y="481"/>
      <point x="512" y="722" type="curve"/>
      <point x="490" y="722"/>
      <point x="512" y="722"/>
      <point x="490" y="722" type="curve"/>
      <point x="360" y="481"/>
      <point x="231" y="241"/>
      <point x="102" y="0" type="curve"/>
      <point x="128" y="0"/>
      <point x="102" y="0"/>
    </contour>
    <contour>
      <point x="358" y="940" type="curve"/>
      <point x="358" y="863"/>
      <point x="418" y="824"/>
      <point x="501" y="824" type="curve"/>
      <point x="585" y="824"/>
      <point x="647" y="861"/>
      <point x="647" y="940" type="curve"/>
      <point x="647" y="1020"/>
      <point x="584" y="1057"/>
      <point x="498" y="1057" type="curve"/>
      <point x="416" y="1057"/>
      <point x="358" y="1018"/>
      <point x="358" y="940" type="curve"/>
      <point x="380" y="940"/>
      <point x="358" y="940"/>
      <point x="380" y="940" type="curve"/>
      <point x="380" y="1004"/>
      <point x="429" y="1036"/>
      <point x="498" y="1036" type="curve"/>
      <point x="571" y="1036"/>
      <point x="624" y="1007"/>
      <point x="624" y="940" type="curve"/>
      <point x="624" y="875"/>
      <point x="572" y="845"/>
      <point x="501" y="845" type="curve"/>
      <point x="431" y="845"/>
      <point x="380" y="875"/>
      <point x="380" y="940" type="curve"/>
      <point x="358" y="940"/>
      <point x="380" y="940"/>
    </contour>
  </outline>
</glyph>
<glyph name="AE" format="1">
  <advance width="1211"/>
  <unicode hex="00C6"/>
  <outline>
    <contour>
      <point x="142" y="22" type="curve"/>
      <point x="-21" y="22"/>
      <point x="143" y="22"/>
      <point x="-20" y="22" type="curve"/>
      <point x="-20" y="0"/>
      <point x="-20" y="22"/>
      <point x="-20" y="0" type="curve"/>
      <point x="34" y="0"/>
      <point x="88" y="0"/>
      <point x="142" y="0" type="curve"/>
      <point x="142" y="22"/>
      <point x="142" y="0"/>
    </contour>
    <contour>
      <point x="142" y="0" type="curve"/>
      <point x="198" y="0"/>
      <point x="141" y="0"/>
      <point x="309" y="0" type="curve"/>
      <point x="309" y="22"/>
      <point x="309" y="0"/>
      <point x="309" y="22" type="curve"/>
      <point x="141" y="22"/>
      <point x="310" y="22"/>
      <point x="142" y="22" type="curve"/>
      <point x="142" y="0"/>
      <point x="142" y="22"/>
    </contour>
    <contour>
      <point x="605" y="241" type="curve"/>
      <point x="453" y="241"/>
      <point x="432" y="241"/>
      <point x="281" y="241" type="curve"/>
      <point x="271" y="218"/>
      <point x="281" y="241"/>
      <point x="271" y="218" type="curve"/>
      <point x="428" y="218"/>
      <point x="455" y="218"/>
      <point x="612" y="218" type="curve"/>
      <point x="605" y="241"/>
      <point x="612" y="218"/>
    </contour>
    <contour>
      <point x="140" y="0" type="curve"/>
      <point x="624" y="722" type="line"/>
      <point x="602" y="722"/>
      <point x="618" y="722"/>
      <point x="596" y="722" type="curve"/>
      <point x="111" y="0" type="line"/>
      <point x="138" y="0"/>
      <point x="114" y="0"/>
    </contour>
    <contour>
      <point x="1160" y="11" type="curve"/>
      <point x="1160" y="131"/>
      <point x="1160" y="10"/>
      <point x="1160" y="130" type="curve"/>
      <point x="1138" y="130"/>
      <point x="1160" y="130"/>
      <point x="1138" y="130" type="curve"/>
      <point x="1138" y="10"/>
      <point x="1138" y="131"/>
      <point x="1138" y="11" type="curve"/>
      <point x="1160" y="11"/>
      <point x="1138" y="11"/>
    </contour>
    <contour>
      <point x="1095" y="711" type="curve"/>
      <point x="1095" y="591"/>
      <point x="1095" y="712"/>
      <point x="1095" y="592" type="curve"/>
      <point x="1117" y="592"/>
      <point x="1095" y="592"/>
      <point x="1117" y="592" type="curve"/>
      <point x="1117" y="712"/>
      <point x="1117" y="591"/>
      <point x="1117" y="711" type="curve"/>
      <point x="1095" y="711"/>
      <point x="1117" y="711"/>
    </contour>
    <contour>
      <point x="610" y="22" type="curve"/>
      <point x="445" y="22"/>
      <point x="612" y="22"/>
      <point x="447" y="22" type="curve"/>
      <point x="447" y="0"/>
      <point x="447" y="22"/>
      <point x="447" y="0" type="curve"/>
      <point x="502" y="0"/>
      <point x="555" y="0"/>
      <point x="610" y="0" type="curve"/>
      <point x="610" y="22"/>
      <point x="610" y="0"/>
    </contour>
    <contour>
      <point x="610" y="722" type="curve"/>
      <point x="555" y="722"/>
      <point x="502" y="722"/>
      <point x="447" y="722" type="curve"/>
      <point x="447" y="700"/>
      <point x="447" y="722"/>
      <point x="447" y="700" type="curve"/>
      <point x="612" y="700"/>
      <point x="445" y="700"/>
      <point x="610" y="700" type="curve"/>
      <point x="610" y="722"/>
      <point x="610" y="700"/>
    </contour>
    <contour>
      <point x="614" y="363" type="curve"/>
      <point x="754" y="363"/>
      <point x="895" y="363"/>
      <point x="1036" y="363" type="curve"/>
      <point x="1036" y="385"/>
      <point x="1036" y="363"/>
      <point x="1036" y="385" type="curve"/>
      <point x="895" y="385"/>
      <point x="754" y="385"/>
      <point x="614" y="385" type="curve"/>
      <point x="614" y="363"/>
      <point x="614" y="385"/>
    </contour>
    <contour>
      <point x="594" y="700" type="curve"/>
      <point x="768" y="700"/>
      <point x="942" y="700"/>
      <point x="1117" y="700" type="curve"/>
      <point x="1117" y="722"/>
      <point x="1117" y="700"/>
      <point x="1117" y="722" type="curve"/>
      <point x="942" y="722"/>
      <point x="768" y="722"/>
      <point x="594" y="722" type="curve"/>
      <point x="594" y="700"/>
      <point x="594" y="722"/>
    </contour>
    <contour>
      <point x="620" y="0" type="curve"/>
      <point x="620" y="722" type="line"/>
      <point x="596" y="722"/>
      <point x="620" y="722"/>
      <point x="596" y="722" type="curve"/>
      <point x="596" y="481"/>
      <point x="596" y="241"/>
      <point x="596" y="0" type="curve"/>
      <point x="620" y="0"/>
      <point x="596" y="0"/>
    </contour>
    <contour>
      <point x="594" y="0" type="curve"/>
      <point x="783" y="0"/>
      <point x="971" y="0"/>
      <point x="1160" y="0" type="curve"/>
      <point x="1160" y="22"/>
      <point x="1160" y="0"/>
      <point x="1160" y="22" type="curve"/>
      <point x="971" y="22"/>
      <point x="783" y="22"/>
      <point x="594" y="22" type="curve"/>
      <point x="594" y="0"/>
      <point x="594" y="22"/>
    </contour>
  </outline>
</glyph>
<glyph name="Edieresis" format="1">
  <advance width="805"/>
  <unicode hex="00CB"/>
  <outline>
    <contour>
      <point x="754" y="11" type="curve"/>
      <point x="754" y="131"/>
      <point x="754" y="10"/>
      <point x="754" y="130" type="curve"/>
      <point x="733" y="130"/>
      <point x="754" y="130"/>
      <point x="733" y="130" type="curve"/>
      <point x="733" y="10"/>
      <point x="733" y="131"/>
      <point x="733" y="11" type="curve"/>
      <point x="754" y="11"/>
      <point x="733" y="11"/>
    </contour>
    <contour>
      <point x="690" y="711" type="curve"/>
      <point x="690" y="591"/>
      <point x="690" y="712"/>
      <point x="690" y="592" type="curve"/>
      <point x="712" y="592"/>
      <point x="690" y="592"/>
      <point x="712" y="592" type="curve"/>
      <point x="712" y="712"/>
      <point x="712" y="591"/>
      <point x="712" y="711" type="curve"/>
      <point x="690" y="711"/>
      <point x="712" y="711"/>
    </contour>
    <contour>
      <point x="205" y="22" type="curve"/>
      <point x="40" y="22"/>
      <point x="207" y="22"/>
      <point x="42" y="22" type="curve"/>
      <point x="42" y="0"/>
      <point x="42" y="22"/>
      <point x="42" y="0" type="curve"/>
      <point x="97" y="0"/>
      <point x="149" y="0"/>
      <point x="205" y="0" type="curve"/>
      <point x="205" y="22"/>
      <point x="205" y="0"/>
    </contour>
    <contour>
      <point x="205" y="722" type="curve"/>
      <point x="149" y="722"/>
      <point x="97" y="722"/>
      <point x="42" y="722" type="curve"/>
      <point x="42" y="700"/>
      <point x="42" y="722"/>
      <point x="42" y="700" type="curve"/>
      <point x="207" y="700"/>
      <point x="40" y="700"/>
      <point x="205" y="700" type="curve"/>
      <point x="205" y="722"/>
      <point x="205" y="700"/>
    </contour>
    <contour>
      <point x="209" y="363" type="curve"/>
      <point x="349" y="363"/>
      <point x="490" y="363"/>
      <point x="631" y="363" type="curve"/>
      <point x="631" y="385"/>
      <point x="631" y="363"/>
      <point x="631" y="385" type="curve"/>
      <point x="490" y="385"/>
      <point x="349" y="385"/>
      <point x="209" y="385" type="curve"/>
      <point x="209" y="363"/>
      <point x="209" y="385"/>
    </contour>
    <contour>
      <point x="189" y="700" type="curve"/>
      <point x="363" y="700"/>
      <point x="537" y="700"/>
      <point x="712" y="700" type="curve"/>
      <point x="712" y="722"/>
      <point x="712" y="700"/>
      <point x="712" y="722" type="curve"/>
      <point x="537" y="722"/>
      <point x="363" y="722"/>
      <point x="189" y="722" type="curve"/>
      <point x="189" y="700"/>
      <point x="189" y="722"/>
    </contour>
    <contour>
      <point x="215" y="0" type="curve"/>
      <point x="215" y="722" type="line"/>
      <point x="191" y="722"/>
      <point x="215" y="722"/>
      <point x="191" y="722" type="curve"/>
      <point x="191" y="481"/>
      <point x="191" y="241"/>
      <point x="191" y="0" type="curve"/>
      <point x="215" y="0"/>
      <point x="191" y="0"/>
    </contour>
    <contour>
      <point x="189" y="0" type="curve"/>
      <point x="378" y="0"/>
      <point x="566" y="0"/>
      <point x="754" y="0" type="curve"/>
      <point x="754" y="22"/>
      <point x="754" y="0"/>
      <point x="754" y="22" type="curve"/>
      <point x="566" y="22"/>
      <point x="378" y="22"/>
      <point x="189" y="22" type="curve"/>
      <point x="189" y="0"/>
      <point x="189" y="22"/>
    </contour>
    <contour>
      <point x="364" y="843" type="curve"/>
      <point x="364" y="854"/>
      <point x="356" y="861"/>
      <point x="344" y="861" type="curve"/>
      <point x="333" y="861"/>
      <point x="326" y="854"/>
      <point x="326" y="843" type="curve"/>
      <point x="342" y="843"/>
      <point x="348" y="843"/>
      <point x="364" y="843" type="curve"/>
      <point x="364" y="832"/>
      <point x="356" y="825"/>
      <point x="344" y="825" type="curve"/>
      <point x="333" y="825"/>
      <point x="326" y="832"/>
      <point x="326" y="843" type="curve"/>
      <point x="342" y="843"/>
      <point x="348" y="843"/>
    </contour>
    <contour>
      <point x="518" y="843" type="curve"/>
      <point x="518" y="854"/>
      <point x="510" y="861"/>
      <point x="498" y="861" type="curve"/>
      <point x="487" y="861"/>
      <point x="480" y="854"/>
      <point x="480" y="843" type="curve"/>
      <point x="496" y="843"/>
      <point x="502" y="843"/>
      <point x="518" y="843" type="curve"/>
      <point x="518" y="832"/>
      <point x="510" y="825"/>
      <point x="498" y="825" type="curve"/>
      <point x="487" y="825"/>
      <point x="480" y="832"/>
      <point x="480" y="843" type="curve"/>
      <point x="496" y="843"/>
      <point x="502" y="843"/>
    </contour>
  </outline>
</glyph>
<glyph name="Icircumflex" format="1">
  <advance width="429"/>
  <unicode hex="00CE"/>
  <outline>
    <contour>
      <point x="213" y="722" type="curve"/>
      <point x="157" y="722"/>
      <point x="105" y="722"/>
      <point x="50" y="722" type="curve"/>
      <point x="50" y="700"/>
      <point x="50" y="722"/>
      <point x="50" y="700" type="curve"/>
      <point x="215" y="700"/>
      <point x="48" y="700"/>
      <point x="213" y="700" type="curve"/>
      <point x="213" y="722"/>
      <point x="213" y="700"/>
    </contour>
    <contour>
      <point x="213" y="700" type="curve"/>
      <point x="379" y="700"/>
      <point x="211" y="700"/>
      <point x="377" y="700" type="curve"/>
      <point x="377" y="722"/>
      <point x="377" y="700"/>
      <point x="377" y="722" type="curve"/>
      <point x="321" y="722"/>
      <point x="268" y="722"/>
      <point x="213" y="722" type="curve"/>
      <point x="213" y="700"/>
      <point x="213" y="722"/>
    </contour>
    <contour>
      <point x="213" y="0" type="curve"/>
      <point x="268" y="0"/>
      <point x="321" y="0"/>
      <point x="377" y="0" type="curve"/>
      <point x="377" y="22"/>
      <point x="377" y="0"/>
      <point x="377" y="22" type="curve"/>
      <point x="211" y="22"/>
      <point x="379" y="22"/>
      <point x="213" y="22" type="curve"/>
      <point x="213" y="0"/>
      <point x="213" y="22"/>
    </contour>
    <contour>
      <point x="213" y="22" type="curve"/>
      <point x="48" y="22"/>
      <point x="215" y="22"/>
      <point x="50" y="22" type="curve"/>
      <point x="50" y="0"/>
      <point x="50" y="22"/>
      <point x="50" y="0" type="curve"/>
      <point x="105" y="0"/>
      <point x="157" y="0"/>
      <point x="213" y="0" type="curve"/>
      <point x="213" y="22"/>
      <point x="213" y="0"/>
    </contour>
    <contour>
      <point x="223" y="0" type="curve"/>
      <point x="223" y="241"/>
      <point x="223" y="481"/>
      <point x="223" y="722" type="curve"/>
      <point x="199" y="722"/>
      <point x="223" y="722"/>
      <point x="199" y="722" type="curve"/>
      <point x="199" y="481"/>
      <point x="199" y="241"/>
      <point x="199" y="0" type="curve"/>
      <point x="223" y="0"/>
      <point x="199" y="0"/>
    </contour>
    <contour>
      <point x="41" y="825" type="line"/>
      <point x="227" y="991" type="line"/>
      <point x="188" y="991" type="line"/>
      <point x="12" y="825" type="line"/>
    </contour>
    <contour>
      <point x="413" y="825" type="line"/>
      <point x="237" y="991" type="line"/>
      <point x="198" y="991" type="line"/>
      <point x="383" y="825" type="line"/>
    </contour>
  </outline>
</glyph>
<glyph name="Idieresis" format="1">
  <advance width="409"/>
  <unicode hex="00CF"/>
  <outline>
    <contour>
      <point x="205" y="722" type="curve"/>
      <point x="149" y="722"/>
      <point x="97" y="722"/>
      <point x="42" y="722" type="curve"/>
      <point x="42" y="700"/>
      <point x="42" y="722"/>
      <point x="42" y="700" type="curve"/>
      <point x="207" y="700"/>
      <point x="40" y="700"/>
      <point x="205" y="700" type="curve"/>
      <point x="205" y="722"/>
      <point x="205" y="700"/>
    </contour>
    <contour>
      <point x="205" y="700" type="curve"/>
      <point x="371" y="700"/>
      <point x="203" y="700"/>
      <point x="369" y="700" type="curve"/>
      <point x="369" y="722"/>
      <point x="369" y="700"/>
      <point x="369" y="722" type="curve"/>
      <point x="313" y="722"/>
      <point x="260" y="722"/>
      <point x="205" y="722" type="curve"/>
      <point x="205" y="700"/>
      <point x="205" y="722"/>
    </contour>
    <contour>
      <point x="205" y="0" type="curve"/>
      <point x="260" y="0"/>
      <point x="313" y="0"/>
      <point x="369" y="0" type="curve"/>
      <point x="369" y="22"/>
      <point x="369" y="0"/>
      <point x="369" y="22" type="curve"/>
      <point x="203" y="22"/>
      <point x="371" y="22"/>
      <point x="205" y="22" type="curve"/>
      <point x="205" y="0"/>
      <point x="205" y="22"/>
    </contour>
    <contour>
      <point x="205" y="22" type="curve"/>
      <point x="40" y="22"/>
      <point x="207" y="22"/>
      <point x="42" y="22" type="curve"/>
      <point x="42" y="0"/>
      <point x="42" y="22"/>
      <point x="42" y="0" type="curve"/>
      <point x="97" y="0"/>
      <point x="149" y="0"/>
      <point x="205" y="0" type="curve"/>
      <point x="205" y="22"/>
      <point x="205" y="0"/>
    </contour>
    <contour>
      <point x="215" y="0" type="curve"/>
      <point x="215" y="241"/>
      <point x="215" y="481"/>
      <point x="215" y="722" type="curve"/>
      <point x="191" y="722"/>
      <point x="215" y="722"/>
      <point x="191" y="722" type="curve"/>
      <point x="191" y="481"/>
      <point x="191" y="241"/>
      <point x="191" y="0" type="curve"/>
      <point x="215" y="0"/>
      <point x="191" y="0"/>
    </contour>
    <contour>
      <point x="145" y="843" type="curve"/>
      <point x="145" y="854"/>
      <point x="137" y="861"/>
      <point x="125" y="861" type="curve"/>
      <point x="114" y="861"/>
      <point x="107" y="854"/>
      <point x="107" y="843" type="curve"/>
      <point x="124" y="843"/>
      <point x="129" y="843"/>
      <point x="145" y="843" type="curve"/>
      <point x="145" y="832"/>
      <point x="137" y="825"/>
      <point x="125" y="825" type="curve"/>
      <point x="114" y="825"/>
      <point x="107" y="832"/>
      <point x="107" y="843" type="curve"/>
      <point x="124" y="843"/>
      <point x="129" y="843"/>
    </contour>
    <contour>
      <point x="299" y="843" type="curve"/>
      <point x="299" y="854"/>
      <point x="291" y="861"/>
      <point x="280" y="861" type="curve"/>
      <point x="269" y="861"/>
      <point x="262" y="854"/>
      <point x="262" y="843" type="curve"/>
      <point x="278" y="843"/>
      <point x="283" y="843"/>
      <point x="299" y="843" type="curve"/>
      <point x="299" y="832"/>
      <point x="291" y="825"/>
      <point x="280" y="825" type="curve"/>
      <point x="269" y="825"/>
      <point x="262" y="832"/>
      <point x="262" y="843" type="curve"/>
      <point x="278" y="843"/>
      <point x="283" y="843"/>
    </contour>
  </outline>
</glyph>
<glyph name="Otilde" format="1">
  <advance width="908"/>
  <unicode hex="00D5"/>
  <outline>
    <contour>
      <point x="94" y="360" type="curve"/>
      <point x="94" y="573"/>
      <point x="235" y="705"/>
      <point x="452" y="705" type="curve"/>
      <point x="669" y="705"/>
      <point x="812" y="575"/>
      <point x="812" y="363" type="curve"/>
      <point x="812" y="151"/>
      <point x="671" y="18"/>
      <point x="455" y="18" type="curve"/>
      <point x="237" y="18"/>
      <point x="94" y="147"/>
      <point x="94" y="360" type="curve"/>
      <point x="70" y="360"/>
      <point x="94" y="360"/>
      <point x="70" y="360" type="curve"/>
      <point x="70" y="132"/>
      <point x="223" y="-5"/>
      <point x="454" y="-5" type="curve"/>
      <point x="685" y="-5"/>
      <point x="837" y="134"/>
      <point x="837" y="363" type="curve"/>
      <point x="837" y="590"/>
      <point x="684" y="727"/>
      <point x="453" y="727" type="curve"/>
      <point x="221" y="727"/>
      <point x="70" y="588"/>
      <point x="70" y="360" type="curve"/>
      <point x="94" y="360"/>
      <point x="70" y="360"/>
    </contour>
    <contour>
      <point x="669" y="948" type="curve"/>
      <point x="651" y="892"/>
      <point x="628" y="845"/>
      <point x="572" y="845" type="curve"/>
      <point x="524" y="845"/>
      <point x="492" y="862"/>
      <point x="457" y="894" type="curve"/>
      <point x="419" y="928"/>
      <point x="388" y="949"/>
      <point x="338" y="949" type="curve"/>
      <point x="267" y="949"/>
      <point x="228" y="902"/>
      <point x="210" y="830" type="curve"/>
      <point x="229" y="824"/>
      <point x="210" y="830"/>
      <point x="229" y="824" type="curve"/>
      <point x="246" y="886"/>
      <point x="277" y="928"/>
      <point x="338" y="928" type="curve"/>
      <point x="381" y="928"/>
      <point x="407" y="910"/>
      <point x="439" y="880" type="curve"/>
      <point x="480" y="845"/>
      <point x="516" y="824"/>
      <point x="570" y="824" type="curve"/>
      <point x="638" y="824"/>
      <point x="667" y="877"/>
      <point x="689" y="944" type="curve"/>
      <point x="669" y="948"/>
      <point x="689" y="944"/>
    </contour>
  </outline>
</glyph>
<glyph name="multiply" format="1">
  <advance width="569"/>
  <unicode hex="00D7"/>
  <outline>
    <contour>
      <point x="100" y="108" type="line"/>
      <point x="481" y="490" type="line"/>
      <point x="464" y="507" type="line"/>
      <point x="83" y="125" type="line"/>
    </contour>
    <contour>
      <point x="487" y="122" type="line"/>
      <point x="101" y="510" type="line"/>
      <point x="84" y="493" type="line"/>
      <point x="470" y="105" type="line"/>
    </contour>
  </outline>
</glyph>
<glyph name="ae" format="1">
  <advance width="1101"/>
  <unicode hex="00E6"/>
  <outline>
    <contour>
      <point x="85" y="464" type="curve"/>
      <point x="85" y="344"/>
      <point x="85" y="476"/>
      <point x="85" y="356" type="curve"/>
      <point x="107" y="356"/>
      <point x="85" y="356"/>
      <point x="107" y="356" type="curve"/>
      <point x="107" y="476"/>
      <point x="107" y="344"/>
      <point x="107" y="464" type="curve"/>
      <point x="85" y="464"/>
      <point x="107" y="464"/>
    </contour>
    <contour>
      <point x="540" y="284" type="curve"/>
      <point x="540" y="414"/>
      <point x="540" y="260"/>
      <point x="540" y="390" type="curve"/>
      <point x="540" y="510"/>
      <point x="456" y="538"/>
      <point x="329" y="538" type="curve"/>
      <point x="225" y="538"/>
      <point x="147" y="507"/>
      <point x="85" y="464" type="curve"/>
      <point x="94" y="446"/>
      <point x="92" y="466"/>
      <point x="101" y="448" type="curve"/>
      <point x="161" y="486"/>
      <point x="227" y="516"/>
      <point x="326" y="516" type="curve"/>
      <point x="441" y="516"/>
      <point x="516" y="493"/>
      <point x="516" y="383" type="curve"/>
      <point x="516" y="255"/>
      <point x="516" y="412"/>
      <point x="516" y="284" type="curve"/>
      <point x="541" y="284"/>
      <point x="515" y="284"/>
    </contour>
    <contour>
      <point x="528" y="294" type="curve"/>
      <point x="428" y="294"/>
      <point x="368" y="295"/>
      <point x="263" y="286" type="curve"/>
      <point x="151" y="274"/>
      <point x="66" y="251"/>
      <point x="66" y="148" type="curve"/>
      <point x="66" y="42"/>
      <point x="139" y="-5"/>
      <point x="254" y="-5" type="curve"/>
      <point x="384" y="-5"/>
      <point x="470" y="47"/>
      <point x="558" y="143" type="curve"/>
      <point x="546" y="155"/>
      <point x="555" y="148"/>
      <point x="543" y="160" type="curve"/>
      <point x="458" y="72"/>
      <point x="379" y="17"/>
      <point x="259" y="17" type="curve"/>
      <point x="162" y="17"/>
      <point x="90" y="55"/>
      <point x="90" y="150" type="curve"/>
      <point x="90" y="228"/>
      <point x="166" y="256"/>
      <point x="262" y="266" type="curve"/>
      <point x="368" y="275"/>
      <point x="427" y="272"/>
      <point x="528" y="272" type="curve"/>
      <point x="527" y="291"/>
      <point x="529" y="275"/>
    </contour>
    <contour>
      <point x="529" y="272" type="curve"/>
      <point x="696" y="272"/>
      <point x="864" y="272"/>
      <point x="1032" y="272" type="curve"/>
      <point x="1032" y="272"/>
      <point x="1032" y="272"/>
      <point x="1032" y="272" type="curve"/>
      <point x="1032" y="275"/>
      <point x="1032" y="272"/>
      <point x="1032" y="275" type="curve"/>
      <point x="1032" y="284"/>
      <point x="1032" y="293"/>
      <point x="1032" y="302" type="curve"/>
      <point x="1032" y="458"/>
      <point x="937" y="537"/>
      <point x="781" y="537" type="curve"/>
      <point x="615" y="537"/>
      <point x="516" y="448"/>
      <point x="516" y="280" type="curve"/>
      <point x="516" y="94"/>
      <point x="628" y="-6"/>
      <point x="812" y="-6" type="curve"/>
      <point x="901" y="-6"/>
      <point x="958" y="17"/>
      <point x="1030" y="73" type="curve"/>
      <point x="1015" y="89"/>
      <point x="1030" y="73"/>
      <point x="1015" y="89" type="curve"/>
      <point x="948" y="38"/>
      <point x="894" y="16"/>
      <point x="812" y="16" type="curve"/>
      <point x="643" y="16"/>
      <point x="540" y="109"/>
      <point x="540" y="280" type="curve"/>
      <point x="540" y="433"/>
      <point x="629" y="515"/>
      <point x="779" y="515" type="curve"/>
      <point x="921" y="515"/>
      <point x="1009" y="445"/>
      <point x="1009" y="304" type="curve"/>
      <point x="1009" y="294"/>
      <point x="1009" y="285"/>
      <point x="1009" y="275" type="curve"/>
      <point x="1013" y="278"/>
      <point x="1017" y="281"/>
      <point x="1021" y="284" type="curve"/>
      <point x="1025" y="287"/>
      <point x="1028" y="291"/>
      <point x="1032" y="294" type="curve"/>
      <point x="864" y="294"/>
      <point x="696" y="294"/>
      <point x="529" y="294" type="curve"/>
      <point x="529" y="272"/>
      <point x="529" y="294"/>
    </contour>
  </outline>
</glyph>
<glyph name="icircumflex" format="1">
  <advance width="368"/>
  <unicode hex="00EE"/>
  <outline>
    <contour>
      <point x="195" y="22" type="curve"/>
      <point x="31" y="22"/>
      <point x="196" y="22"/>
      <point x="32" y="22" type="curve"/>
      <point x="32" y="0"/>
      <point x="32" y="22"/>
      <point x="32" y="0" type="curve"/>
      <point x="88" y="0"/>
      <point x="141" y="0"/>
      <point x="195" y="0" type="curve"/>
      <point x="195" y="22"/>
      <point x="195" y="0"/>
    </contour>
    <contour>
      <point x="195" y="0" type="curve"/>
      <point x="246" y="0"/>
      <point x="296" y="0"/>
      <point x="346" y="0" type="curve"/>
      <point x="346" y="22"/>
      <point x="346" y="0"/>
      <point x="346" y="22" type="curve"/>
      <point x="195" y="22"/>
      <point x="347" y="22"/>
      <point x="195" y="22" type="curve"/>
      <point x="195" y="0"/>
      <point x="195" y="22"/>
    </contour>
    <contour>
      <point x="195" y="533" type="curve"/>
      <point x="141" y="533"/>
      <point x="88" y="533"/>
      <point x="32" y="533" type="curve"/>
      <point x="32" y="511"/>
      <point x="32" y="533"/>
      <point x="32" y="511" type="curve"/>
      <point x="196" y="511"/>
      <point x="31" y="511"/>
      <point x="195" y="511" type="curve"/>
      <point x="195" y="533"/>
      <point x="195" y="511"/>
    </contour>
    <contour>
      <point x="209" y="0" type="curve"/>
      <point x="209" y="178"/>
      <point x="209" y="355"/>
      <point x="209" y="533" type="curve"/>
      <point x="183" y="533"/>
      <point x="209" y="533"/>
      <point x="183" y="533" type="curve"/>
      <point x="183" y="355"/>
      <point x="183" y="178"/>
      <point x="183" y="0" type="curve"/>
      <point x="209" y="0"/>
      <point x="183" y="0"/>
    </contour>
    <contour>
      <point x="22" y="671" type="line"/>
      <point x="208" y="837" type="line"/>
      <point x="169" y="837" type="line"/>
      <point x="-7" y="671" type="line"/>
    </contour>
    <contour>
      <point x="394" y="671" type="line"/>
      <point x="218" y="837" type="line"/>
      <point x="179" y="837" type="line"/>
      <point x="364" y="671" type="line"/>
    </contour>
  </outline>
</glyph>
<glyph name="idieresis" format="1">
  <advance width="359"/>
  <unicode hex="00EF"/>
  <outline>
    <contour>
      <point x="199" y="22" type="curve"/>
      <point x="35" y="22"/>
      <point x="200" y="22"/>
      <point x="36" y="22" type="curve"/>
      <point x="36" y="0"/>
      <point x="36" y="22"/>
      <point x="36" y="0" type="curve"/>
      <point x="91" y="0"/>
      <point x="145" y="0"/>
      <point x="199" y="0" type="curve"/>
      <point x="199" y="22"/>
      <point x="199" y="0"/>
    </contour>
    <contour>
      <point x="199" y="0" type="curve"/>
      <point x="250" y="0"/>
      <point x="299" y="0"/>
      <point x="350" y="0" type="curve"/>
      <point x="350" y="22"/>
      <point x="350" y="0"/>
      <point x="350" y="22" type="curve"/>
      <point x="198" y="22"/>
      <point x="351" y="22"/>
      <point x="199" y="22" type="curve"/>
      <point x="199" y="0"/>
      <point x="199" y="22"/>
    </contour>
    <contour>
      <point x="199" y="533" type="curve"/>
      <point x="145" y="533"/>
      <point x="91" y="533"/>
      <point x="36" y="533" type="curve"/>
      <point x="36" y="511"/>
      <point x="36" y="533"/>
      <point x="36" y="511" type="curve"/>
      <point x="200" y="511"/>
      <point x="35" y="511"/>
      <point x="199" y="511" type="curve"/>
      <point x="199" y="533"/>
      <point x="199" y="511"/>
    </contour>
    <contour>
      <point x="213" y="0" type="curve"/>
      <point x="213" y="178"/>
      <point x="213" y="355"/>
      <point x="213" y="533" type="curve"/>
      <point x="187" y="533"/>
      <point x="213" y="533"/>
      <point x="187" y="533" type="curve"/>
      <point x="187" y="355"/>
      <point x="187" y="178"/>
      <point x="187" y="0" type="curve"/>
      <point x="213" y="0"/>
      <point x="187" y="0"/>
    </contour>
    <contour>
      <point x="138" y="689" type="curve"/>
      <point x="138" y="700"/>
      <point x="130" y="707"/>
      <point x="118" y="707" type="curve"/>
      <point x="107" y="707"/>
      <point x="100" y="700"/>
      <point x="100" y="689" type="curve"/>
      <point x="116" y="689"/>
      <point x="122" y="689"/>
      <point x="138" y="689" type="curve"/>
      <point x="138" y="678"/>
      <point x="130" y="671"/>
      <point x="118" y="671" type="curve"/>
      <point x="107" y="671"/>
      <point x="100" y="678"/>
      <point x="100" y="689" type="curve"/>
      <point x="116" y="689"/>
      <point x="122" y="689"/>
    </contour>
    <contour>
      <point x="292" y="689" type="curve"/>
      <point x="292" y="700"/>
      <point x="284" y="707"/>
      <point x="272" y="707" type="curve"/>
      <point x="261" y="707"/>
      <point x="254" y="700"/>
      <point x="254" y="689" type="curve"/>
      <point x="271" y="689"/>
      <point x="276" y="689"/>
      <point x="292" y="689" type="curve"/>
      <point x="292" y="678"/>
      <point x="284" y="671"/>
      <point x="272" y="671" type="curve"/>
      <point x="261" y="671"/>
      <point x="254" y="678"/>
      <point x="254" y="689" type="curve"/>
      <point x="271" y="689"/>
      <point x="276" y="689"/>
    </contour>
  </outline>
</glyph>
<glyph name="eth" format="1">
  <advance width="690"/>
  <unicode hex="00F0"/>
  <outline>
    <contour>
      <point x="177" y="513" type="curve"/>
      <point x="267" y="602"/>
      <point x="356" y="692"/>
      <point x="445" y="782" type="curve"/>
      <point x="462" y="765"/>
      <point x="445" y="782"/>
      <point x="462" y="765" type="curve"/>
      <point x="373" y="675"/>
      <point x="283" y="586"/>
      <point x="194" y="496" type="curve"/>
      <point x="177" y="513"/>
      <point x="194" y="496"/>
    </contour>
    <contour>
      <point x="603" y="223" type="curve"/>
      <point x="543" y="332"/>
      <point x="460" y="379"/>
      <point x="334" y="379" type="curve"/>
      <point x="196" y="379"/>
      <point x="96" y="322"/>
      <point x="96" y="195" type="curve"/>
      <point x="96" y="72"/>
      <point x="194" y="13"/>
      <point x="327" y="13" type="curve"/>
      <point x="486" y="13"/>
      <point x="598" y="87"/>
      <point x="598" y="235" type="curve"/>
      <point x="598" y="528"/>
      <point x="364" y="661"/>
      <point x="58" y="707" type="curve"/>
      <point x="62" y="730"/>
      <point x="58" y="707"/>
      <point x="62" y="730" type="curve"/>
      <point x="383" y="686"/>
      <point x="621" y="540"/>
      <point x="621" y="234" type="curve"/>
      <point x="621" y="71"/>
      <point x="502" y="-12"/>
      <point x="328" y="-12" type="curve"/>
      <point x="178" y="-12"/>
      <point x="72" y="57"/>
      <point x="72" y="196" type="curve"/>
      <point x="72" y="337"/>
      <point x="180" y="402"/>
      <point x="332" y="402" type="curve"/>
      <point x="466" y="402"/>
      <point x="567" y="349"/>
      <point x="616" y="230" type="curve"/>
      <point x="603" y="223"/>
      <point x="616" y="230"/>
    </contour>
  </outline>
</glyph>
<glyph name="ograve" format="1">
  <advance width="711"/>
  <unicode hex="00F2"/>
  <outline>
    <contour>
      <point x="91" y="268" type="curve"/>
      <point x="91" y="428"/>
      <point x="192" y="517"/>
      <point x="351" y="517" type="curve"/>
      <point x="516" y="517"/>
      <point x="620" y="427"/>
      <point x="620" y="266" type="curve"/>
      <point x="620" y="107"/>
      <point x="517" y="17"/>
      <point x="356" y="17" type="curve"/>
      <point x="192" y="17"/>
      <point x="91" y="109"/>
      <point x="91" y="268" type="curve"/>
      <point x="67" y="268"/>
      <point x="91" y="268"/>
      <point x="67" y="268" type="curve"/>
      <point x="67" y="95"/>
      <point x="178" y="-5"/>
      <point x="355" y="-5" type="curve"/>
      <point x="533" y="-5"/>
      <point x="645" y="93"/>
      <point x="645" y="266" type="curve"/>
      <point x="645" y="440"/>
      <point x="531" y="538"/>
      <point x="352" y="538" type="curve"/>
      <point x="177" y="538"/>
      <point x="67" y="439"/>
      <point x="67" y="268" type="curve"/>
      <point x="91" y="268"/>
      <point x="67" y="268"/>
    </contour>
    <contour>
      <point x="369" y="671" type="line"/>
      <point x="193" y="837" type="line"/>
      <point x="154" y="837" type="line"/>
      <point x="339" y="671" type="line"/>
    </contour>
  </outline>
</glyph>
<glyph name="ocircumflex" format="1">
  <advance width="711"/>
  <unicode hex="00F4"/>
  <outline>
    <contour>
      <point x="91" y="268" type="curve"/>
      <point x="91" y="428"/>
      <point x="192" y="517"/>
      <point x="351" y="517" type="curve"/>
      <point x="516" y="517"/>
      <point x="620" y="427"/>
      <point x="620" y="266" type="curve"/>
      <point x="620" y="107"/>
      <point x="517" y="17"/>
      <point x="356" y="17" type="curve"/>
      <point x="192" y="17"/>
      <point x="91" y="109"/>
      <point x="91" y="268" type="curve"/>
      <point x="67" y="268"/>
      <point x="91" y="268"/>
      <point x="67" y="268" type="curve"/>
      <point x="67" y="95"/>
      <point x="178" y="-5"/>
      <point x="355" y="-5" type="curve"/>
      <point x="533" y="-5"/>
      <point x="645" y="93"/>
      <point x="645" y="266" type="curve"/>
      <point x="645" y="440"/>
      <point x="531" y="538"/>
      <point x="352" y="538" type="curve"/>
      <point x="177" y="538"/>
      <point x="67" y="439"/>
      <point x="67" y="268" type="curve"/>
      <point x="91" y="268"/>
      <point x="67" y="268"/>
    </contour>
    <contour>
      <point x="180" y="671" type="line"/>
      <point x="365" y="837" type="line"/>
      <point x="326" y="837" type="line"/>
      <point x="151" y="671" type="line"/>
    </contour>
    <contour>
      <point x="551" y="671" type="line"/>
      <point x="375" y="837" type="line"/>
      <point x="336" y="837" type="line"/>
      <point x="522" y="671" type="line"/>
    </contour>
  </outline>
</glyph>
<glyph name="odieresis" format="1">
  <advance width="711"/>
  <unicode hex="00F6"/>
  <outline>
    <contour>
      <point x="91" y="268" type="curve"/>
      <point x="91" y="428"/>
      <point x="192" y="517"/>
      <point x="351" y="517" type="curve"/>
      <point x="516" y="517"/>
      <point x="620" y="427"/>
      <point x="620" y="266" type="curve"/>
      <point x="620" y="107"/>
      <point x="517" y="17"/>
      <point x="356" y="17" type="curve"/>
      <point x="192" y="17"/>
      <point x="91" y="109"/>
      <point x="91" y="268" type="curve"/>
      <point x="67" y="268"/>
      <point x="91" y="268"/>
      <point x="67" y="268" type="curve"/>
      <point x="67" y="95"/>
      <point x="178" y="-5"/>
      <point x="355" y="-5" type="curve"/>
      <point x="533" y="-5"/>
      <point x="645" y="93"/>
      <point x="645" y="266" type="curve"/>
      <point x="645" y="440"/>
      <point x="531" y="538"/>
      <point x="352" y="538" type="curve"/>
      <point x="177" y="538"/>
      <point x="67" y="439"/>
      <point x="67" y="268" type="curve"/>
      <point x="91" y="268"/>
      <point x="67" y="268"/>
    </contour>
    <contour>
      <point x="292" y="689" type="curve"/>
      <point x="292" y="700"/>
      <point x="284" y="707"/>
      <point x="272" y="707" type="curve"/>
      <point x="261" y="707"/>
      <point x="254" y="700"/>
      <point x="254" y="689" type="curve"/>
      <point x="270" y="689"/>
      <point x="276" y="689"/>
      <point x="292" y="689" type="curve"/>
      <point x="292" y="678"/>
      <point x="284" y="671"/>
      <point x="272" y="671" type="curve"/>
      <point x="261" y="671"/>
      <point x="254" y="678"/>
      <point x="254" y="689" type="curve"/>
      <point x="270" y="689"/>
      <point x="276" y="689"/>
    </contour>
    <contour>
      <point x="446" y="689" type="curve"/>
      <point x="446" y="700"/>
      <point x="438" y="707"/>
      <point x="426" y="707" type="curve"/>
      <point x="415" y="707"/>
      <point x="408" y="700"/>
      <point x="408" y="689" type="curve"/>
      <point x="424" y="689"/>
      <point x="430" y="689"/>
      <point x="446" y="689" type="curve"/>
      <point x="446" y="678"/>
      <point x="438" y="671"/>
      <point x="426" y="671" type="curve"/>
      <point x="415" y="671"/>
      <point x="408" y="678"/>
      <point x="408" y="689" type="curve"/>
      <point x="424" y="689"/>
      <point x="430" y="689"/>
    </contour>
  </outline>
</glyph>
<glyph name="oslash" format="1">
  <advance width="711"/>
  <unicode hex="00F8"/>
  <outline>
    <contour>
      <point x="156" y="-79" type="line"/>
      <point x="584" y="587" type="line"/>
      <point x="566" y="598" type="line"/>
      <point x="138" y="-66" type="line"/>
    </contour>
    <contour>
      <point x="91" y="268" type="curve"/>
      <point x="91" y="428"/>
      <point x="192" y="517"/>
      <point x="351" y="517" type="curve"/>
      <point x="516" y="517"/>
      <point x="620" y="427"/>
      <point x="620" y="266" type="curve"/>
      <point x="620" y="107"/>
      <point x="517" y="17"/>
      <point x="356" y="17" type="curve"/>
      <point x="192" y="17"/>
      <point x="91" y="109"/>
      <point x="91" y="268" type="curve"/>
      <point x="67" y="268"/>
      <point x="91" y="268"/>
      <point x="67" y="268" type="curve"/>
      <point x="67" y="95"/>
      <point x="178" y="-5"/>
      <point x="355" y="-5" type="curve"/>
      <point x="533" y="-5"/>
      <point x="645" y="93"/>
      <point x="645" y="266" type="curve"/>
      <point x="645" y="440"/>
      <point x="531" y="538"/>
      <point x="352" y="538" type="curve"/>
      <point x="177" y="538"/>
      <point x="67" y="439"/>
      <point x="67" y="268" type="curve"/>
      <point x="91" y="268"/>
      <point x="67" y="268"/>
    </contour>
  </outline>
</glyph>
<glyph name="thorn" format="1">
  <advance width="746"/>
  <unicode hex="00FE"/>
  <outline>
    <contour>
      <point x="128" y="-278" type="curve"/>
      <point x="-37" y="-278"/>
      <point x="128" y="-278"/>
      <point x="-36" y="-278" type="curve"/>
      <point x="-36" y="-299"/>
      <point x="-36" y="-278"/>
      <point x="-36" y="-299" type="curve"/>
      <point x="20" y="-299"/>
      <point x="73" y="-299"/>
      <point x="128" y="-299" type="curve"/>
      <point x="128" y="-278"/>
      <point x="128" y="-299"/>
    </contour>
    <contour>
      <point x="128" y="-300" type="curve"/>
      <point x="178" y="-300"/>
      <point x="228" y="-300"/>
      <point x="278" y="-300" type="curve"/>
      <point x="278" y="-278"/>
      <point x="278" y="-300"/>
      <point x="278" y="-278" type="curve"/>
      <point x="127" y="-279"/>
      <point x="279" y="-278"/>
      <point x="128" y="-279" type="curve"/>
      <point x="128" y="-300"/>
      <point x="128" y="-279"/>
    </contour>
    <contour>
      <point x="129" y="800" type="curve"/>
      <point x="74" y="800"/>
      <point x="21" y="800"/>
      <point x="-34" y="800" type="curve"/>
      <point x="-34" y="778"/>
      <point x="-34" y="800"/>
      <point x="-34" y="778" type="curve"/>
      <point x="130" y="778"/>
      <point x="-35" y="778"/>
      <point x="129" y="778" type="curve"/>
      <point x="129" y="799"/>
      <point x="129" y="778"/>
    </contour>
    <contour>
      <point x="134" y="423" type="curve"/>
      <point x="187" y="475"/>
      <point x="290" y="516"/>
      <point x="402" y="516" type="curve"/>
      <point x="553" y="516"/>
      <point x="655" y="424"/>
      <point x="655" y="276" type="curve"/>
      <point x="659" y="119"/>
      <point x="556" y="15"/>
      <point x="401" y="17" type="curve"/>
      <point x="294" y="17"/>
      <point x="219" y="55"/>
      <point x="136" y="122" type="curve"/>
      <point x="120" y="111"/>
      <point x="136" y="122"/>
      <point x="120" y="111" type="curve"/>
      <point x="206" y="36"/>
      <point x="287" y="-5"/>
      <point x="401" y="-5" type="curve"/>
      <point x="569" y="-5"/>
      <point x="679" y="108"/>
      <point x="678" y="277" type="curve"/>
      <point x="678" y="438"/>
      <point x="565" y="538"/>
      <point x="403" y="538" type="curve"/>
      <point x="286" y="538"/>
      <point x="180" y="494"/>
      <point x="122" y="437" type="curve"/>
      <point x="134" y="423"/>
      <point x="122" y="437"/>
    </contour>
    <contour>
      <point x="140" y="-300" type="curve"/>
      <point x="140" y="-22"/>
      <point x="140" y="522"/>
      <point x="140" y="800" type="curve"/>
      <point x="116" y="800"/>
      <point x="140" y="800"/>
      <point x="116" y="800" type="curve"/>
      <point x="116" y="522"/>
      <point x="116" y="-22"/>
      <point x="116" y="-300" type="curve"/>
      <point x="140" y="-300"/>
      <point x="116" y="-300"/>
    </contour>
  </outline>
</glyph>
<glyph name="Aogonek" format="1">
  <advance width="1002"/>
  <unicode hex="0104"/>
  <outline>
    <contour>
      <point x="130" y="22" type="curve"/>
      <point x="-26" y="22"/>
      <point x="132" y="22"/>
      <point x="-24" y="22" type="curve"/>
      <point x="-24" y="0"/>
      <point x="-24" y="22"/>
      <point x="-24" y="0" type="curve"/>
      <point x="28" y="0"/>
      <point x="78" y="0"/>
      <point x="130" y="0" type="curve"/>
      <point x="130" y="22"/>
      <point x="130" y="0"/>
    </contour>
    <contour>
      <point x="130" y="0" type="curve"/>
      <point x="185" y="0"/>
      <point x="128" y="0"/>
      <point x="290" y="0" type="curve"/>
      <point x="290" y="22"/>
      <point x="290" y="0"/>
      <point x="290" y="22" type="curve"/>
      <point x="128" y="22"/>
      <point x="292" y="22"/>
      <point x="130" y="22" type="curve"/>
      <point x="130" y="0"/>
      <point x="130" y="22"/>
    </contour>
    <contour>
      <point x="833" y="0" type="curve"/>
      <point x="885" y="0"/>
      <point x="935" y="0"/>
      <point x="987" y="0" type="curve"/>
      <point x="987" y="22"/>
      <point x="987" y="0"/>
      <point x="987" y="22" type="curve"/>
      <point x="831" y="22"/>
      <point x="989" y="22"/>
      <point x="833" y="22" type="curve"/>
      <point x="833" y="0"/>
      <point x="833" y="22"/>
    </contour>
    <contour>
      <point x="833" y="22" type="curve"/>
      <point x="672" y="22"/>
      <point x="835" y="22"/>
      <point x="674" y="22" type="curve"/>
      <point x="674" y="0"/>
      <point x="674" y="22"/>
      <point x="674" y="0" type="curve"/>
      <point x="728" y="0"/>
      <point x="779" y="0"/>
      <point x="833" y="0" type="curve"/>
      <point x="833" y="22"/>
      <point x="833" y="0"/>
    </contour>
    <contour>
      <point x="718" y="277" type="curve"/>
      <point x="567" y="277"/>
      <point x="416" y="277"/>
      <point x="266" y="277" type="curve"/>
      <point x="256" y="254"/>
      <point x="266" y="277"/>
      <point x="256" y="254" type="curve"/>
      <point x="412" y="254"/>
      <point x="569" y="254"/>
      <point x="726" y="254" type="curve"/>
      <point x="718" y="277"/>
      <point x="726" y="254"/>
    </contour>
    <contour>
      <point x="861" y="0" type="curve"/>
      <point x="745" y="241"/>
      <point x="630" y="481"/>
      <point x="514" y="722" type="curve"/>
      <point x="492" y="722"/>
      <point x="514" y="722"/>
      <point x="492" y="722" type="curve"/>
      <point x="607" y="481"/>
      <point x="721" y="241"/>
      <point x="835" y="0" type="curve"/>
      <point x="861" y="0"/>
      <point x="835" y="0"/>
    </contour>
    <contour>
      <point x="128" y="0" type="curve"/>
      <point x="256" y="241"/>
      <point x="383" y="481"/>
      <point x="512" y="722" type="curve"/>
      <point x="490" y="722"/>
      <point x="512" y="722"/>
      <point x="490" y="722" type="curve"/>
      <point x="360" y="481"/>
      <point x="231" y="241"/>
      <point x="102" y="0" type="curve"/>
      <point x="128" y="0"/>
      <point x="102" y="0"/>
    </contour>
    <contour>
      <point x="852" y="14" type="curve"/>
      <point x="782" y="-12"/>
      <point x="716" y="-28"/>
      <point x="716" y="-100" type="curve"/>
      <point x="716" y="-161"/>
      <point x="762" y="-195"/>
      <point x="827" y="-195" type="curve"/>
      <point x="865" y="-195"/>
      <point x="890" y="-184"/>
      <point x="925" y="-167" type="curve"/>
      <point x="915" y="-152"/>
      <point x="924" y="-166"/>
      <point x="914" y="-151" type="curve"/>
      <point x="884" y="-166"/>
      <point x="861" y="-174"/>
      <point x="829" y="-174" type="curve"/>
      <point x="776" y="-174"/>
      <point x="738" y="-149"/>
      <point x="738" y="-100" type="curve"/>
      <point x="738" y="-36"/>
      <point x="799" y="-26"/>
      <point x="861" y="0" type="curve"/>
      <point x="853" y="13"/>
      <point x="860" y="1"/>
    </contour>
  </outline>
</glyph>
<glyph name="eogonek" format="1">
  <advance width="655"/>
  <unicode hex="0119"/>
  <outline>
    <contour>
      <point x="84" y="273" type="curve"/>
      <point x="251" y="273"/>
      <point x="419" y="273"/>
      <point x="586" y="273" type="curve"/>
      <point x="587" y="273"/>
      <point x="586" y="273"/>
      <point x="587" y="273" type="curve"/>
      <point x="587" y="276"/>
      <point x="587" y="273"/>
      <point x="587" y="276" type="curve"/>
      <point x="587" y="285"/>
      <point x="587" y="294"/>
      <point x="587" y="303" type="curve"/>
      <point x="587" y="458"/>
      <point x="491" y="538"/>
      <point x="336" y="538" type="curve"/>
      <point x="170" y="538"/>
      <point x="71" y="448"/>
      <point x="71" y="281" type="curve"/>
      <point x="71" y="95"/>
      <point x="182" y="-5"/>
      <point x="367" y="-5" type="curve"/>
      <point x="455" y="-5"/>
      <point x="513" y="18"/>
      <point x="585" y="74" type="curve"/>
      <point x="570" y="90"/>
      <point x="585" y="74"/>
      <point x="570" y="90" type="curve"/>
      <point x="503" y="39"/>
      <point x="449" y="17"/>
      <point x="367" y="17" type="curve"/>
      <point x="198" y="17"/>
      <point x="95" y="110"/>
      <point x="95" y="281" type="curve"/>
      <point x="95" y="433"/>
      <point x="184" y="516"/>
      <point x="334" y="516" type="curve"/>
      <point x="475" y="516"/>
      <point x="564" y="445"/>
      <point x="564" y="305" type="curve"/>
      <point x="564" y="295"/>
      <point x="564" y="286"/>
      <point x="564" y="276" type="curve"/>
      <point x="568" y="279"/>
      <point x="572" y="282"/>
      <point x="575" y="285" type="curve"/>
      <point x="579" y="288"/>
      <point x="582" y="292"/>
      <point x="586" y="295" type="curve"/>
      <point x="419" y="295"/>
      <point x="251" y="295"/>
      <point x="84" y="295" type="curve"/>
      <point x="84" y="273"/>
      <point x="84" y="295"/>
    </contour>
    <contour>
      <point x="366" y="11" type="curve"/>
      <point x="296" y="-15"/>
      <point x="231" y="-31"/>
      <point x="231" y="-103" type="curve"/>
      <point x="231" y="-164"/>
      <point x="276" y="-198"/>
      <point x="341" y="-198" type="curve"/>
      <point x="380" y="-198"/>
      <point x="405" y="-187"/>
      <point x="439" y="-170" type="curve"/>
      <point x="430" y="-155"/>
      <point x="438" y="-169"/>
      <point x="429" y="-154" type="curve"/>
      <point x="398" y="-169"/>
      <point x="376" y="-177"/>
      <point x="343" y="-177" type="curve"/>
      <point x="290" y="-177"/>
      <point x="253" y="-152"/>
      <point x="253" y="-103" type="curve"/>
      <point x="253" y="-39"/>
      <point x="314" y="-29"/>
      <point x="375" y="-3" type="curve"/>
      <point x="367" y="10"/>
      <point x="375" y="-2"/>
    </contour>
  </outline>
</glyph>
<glyph name="Iogonek" format="1">
  <advance width="409"/>
  <unicode hex="012E"/>
  <outline>
    <contour>
      <point x="205" y="722" type="curve"/>
      <point x="149" y="722"/>
      <point x="97" y="722"/>
      <point x="42" y="722" type="curve"/>
      <point x="42" y="700"/>
      <point x="42" y="722"/>
      <point x="42" y="700" type="curve"/>
      <point x="207" y="700"/>
      <point x="40" y="700"/>
      <point x="205" y="700" type="curve"/>
      <point x="205" y="722"/>
      <point x="205" y="700"/>
    </contour>
    <contour>
      <point x="205" y="700" type="curve"/>
      <point x="371" y="700"/>
      <point x="203" y="700"/>
      <point x="369" y="700" type="curve"/>
      <point x="369" y="722"/>
      <point x="369" y="700"/>
      <point x="369" y="722" type="curve"/>
      <point x="313" y="722"/>
      <point x="260" y="722"/>
      <point x="205" y="722" type="curve"/>
      <point x="205" y="700"/>
      <point x="205" y="722"/>
    </contour>
    <contour>
      <point x="205" y="0" type="curve"/>
      <point x="260" y="0"/>
      <point x="313" y="0"/>
      <point x="369" y="0" type="curve"/>
      <point x="369" y="22"/>
      <point x="369" y="0"/>
      <point x="369" y="22" type="curve"/>
      <point x="203" y="22"/>
      <point x="371" y="22"/>
      <point x="205" y="22" type="curve"/>
      <point x="205" y="0"/>
      <point x="205" y="22"/>
    </contour>
    <contour>
      <point x="205" y="22" type="curve"/>
      <point x="40" y="22"/>
      <point x="207" y="22"/>
      <point x="42" y="22" type="curve"/>
      <point x="42" y="0"/>
      <point x="42" y="22"/>
      <point x="42" y="0" type="curve"/>
      <point x="97" y="0"/>
      <point x="149" y="0"/>
      <point x="205" y="0" type="curve"/>
      <point x="205" y="22"/>
      <point x="205" y="0"/>
    </contour>
    <contour>
      <point x="215" y="0" type="curve"/>
      <point x="215" y="241"/>
      <point x="215" y="481"/>
      <point x="215" y="722" type="curve"/>
      <point x="191" y="722"/>
      <point x="215" y="722"/>
      <point x="191" y="722" type="curve"/>
      <point x="191" y="481"/>
      <point x="191" y="241"/>
      <point x="191" y="0" type="curve"/>
      <point x="215" y="0"/>
      <point x="191" y="0"/>
    </contour>
    <contour>
      <point x="206" y="14" type="curve"/>
      <point x="136" y="-12"/>
      <point x="71" y="-28"/>
      <point x="71" y="-100" type="curve"/>
      <point x="71" y="-161"/>
      <point x="116" y="-195"/>
      <point x="181" y="-195" type="curve"/>
      <point x="220" y="-195"/>
      <point x="245" y="-184"/>
      <point x="279" y="-167" type="curve"/>
      <point x="269" y="-152"/>
      <point x="278" y="-166"/>
      <point x="269" y="-151" type="curve"/>
      <point x="238" y="-166"/>
      <point x="216" y="-174"/>
      <point x="183" y="-174" type="curve"/>
      <point x="130" y="-174"/>
      <point x="93" y="-149"/>
      <point x="93" y="-100" type="curve"/>
      <point x="93" y="-36"/>
      <point x="154" y="-26"/>
      <point x="215" y="0" type="curve"/>
      <point x="207" y="13"/>
      <point x="215" y="1"/>
    </contour>
  </outline>
</glyph>
<glyph name="iogonek" format="1">
  <advance width="359"/>
  <unicode hex="012F"/>
  <outline>
    <contour>
      <point x="199" y="22" type="curve"/>
      <point x="35" y="22"/>
      <point x="200" y="22"/>
      <point x="36" y="22" type="curve"/>
      <point x="36" y="0"/>
      <point x="36" y="22"/>
      <point x="36" y="0" type="curve"/>
      <point x="91" y="0"/>
      <point x="145" y="0"/>
      <point x="199" y="0" type="curve"/>
      <point x="199" y="22"/>
      <point x="199" y="0"/>
    </contour>
    <contour>
      <point x="199" y="0" type="curve"/>
      <point x="250" y="0"/>
      <point x="299" y="0"/>
      <point x="350" y="0" type="curve"/>
      <point x="350" y="22"/>
      <point x="350" y="0"/>
      <point x="350" y="22" type="curve"/>
      <point x="198" y="22"/>
      <point x="351" y="22"/>
      <point x="199" y="22" type="curve"/>
      <point x="199" y="0"/>
      <point x="199" y="22"/>
    </contour>
    <contour>
      <point x="199" y="533" type="curve"/>
      <point x="145" y="533"/>
      <point x="91" y="533"/>
      <point x="36" y="533" type="curve"/>
      <point x="36" y="511"/>
      <point x="36" y="533"/>
      <point x="36" y="511" type="curve"/>
      <point x="200" y="511"/>
      <point x="35" y="511"/>
      <point x="199" y="511" type="curve"/>
      <point x="199" y="533"/>
      <point x="199" y="511"/>
    </contour>
    <contour>
      <point x="213" y="0" type="curve"/>
      <point x="213" y="178"/>
      <point x="213" y="355"/>
      <point x="213" y="533" type="curve"/>
      <point x="187" y="533"/>
      <point x="213" y="533"/>
      <point x="187" y="533" type="curve"/>
      <point x="187" y="355"/>
      <point x="187" y="178"/>
      <point x="187" y="0" type="curve"/>
      <point x="213" y="0"/>
      <point x="187" y="0"/>
    </contour>
    <contour>
      <point x="218" y="684" type="curve"/>
      <point x="218" y="695"/>
      <point x="210" y="702"/>
      <point x="198" y="702" type="curve"/>
      <point x="187" y="702"/>
      <point x="180" y="695"/>
      <point x="180" y="684" type="curve"/>
      <point x="196" y="684"/>
      <point x="202" y="684"/>
      <point x="218" y="684" type="curve"/>
      <point x="218" y="673"/>
      <point x="210" y="666"/>
      <point x="198" y="666" type="curve"/>
      <point x="187" y="666"/>
      <point x="180" y="673"/>
      <point x="180" y="684" type="curve"/>
      <point x="196" y="684"/>
      <point x="202" y="684"/>
    </contour>
    <contour>
      <point x="204" y="14" type="curve"/>
      <point x="134" y="-12"/>
      <point x="68" y="-28"/>
      <point x="68" y="-100" type="curve"/>
      <point x="68" y="-161"/>
      <point x="114" y="-195"/>
      <point x="179" y="-195" type="curve"/>
      <point x="217" y="-195"/>
      <point x="242" y="-184"/>
      <point x="277" y="-167" type="curve"/>
      <point x="267" y="-152"/>
      <point x="276" y="-166"/>
      <point x="266" y="-151" type="curve"/>
      <point x="236" y="-166"/>
      <point x="213" y="-174"/>
      <point x="181" y="-174" type="curve"/>
      <point x="128" y="-174"/>
      <point x="90" y="-149"/>
      <point x="90" y="-100" type="curve"/>
      <point x="90" y="-36"/>
      <point x="151" y="-26"/>
      <point x="213" y="0" type="curve"/>
      <point x="205" y="13"/>
      <point x="212" y="1"/>
    </contour>
  </outline>
</glyph>
<glyph name="Idotaccent" format="1">
  <advance width="409"/>
  <unicode hex="0130"/>
  <outline>
    <contour>
      <point x="205" y="722" type="curve"/>
      <point x="149" y="722"/>
      <point x="97" y="722"/>
      <point x="42" y="722" type="curve"/>
      <point x="42" y="700"/>
      <point x="42" y="722"/>
      <point x="42" y="700" type="curve"/>
      <point x="207" y="700"/>
      <point x="40" y="700"/>
      <point x="205" y="700" type="curve"/>
      <point x="205" y="722"/>
      <point x="205" y="700"/>
    </contour>
    <contour>
      <point x="205" y="700" type="curve"/>
      <point x="371" y="700"/>
      <point x="203" y="700"/>
      <point x="369" y="700" type="curve"/>
      <point x="369" y="722"/>
      <point x="369" y="700"/>
      <point x="369" y="722" type="curve"/>
      <point x="313" y="722"/>
      <point x="260" y="722"/>
      <point x="205" y="722" type="curve"/>
      <point x="205" y="700"/>
      <point x="205" y="722"/>
    </contour>
    <contour>
      <point x="205" y="0" type="curve"/>
      <point x="260" y="0"/>
      <point x="313" y="0"/>
      <point x="369" y="0" type="curve"/>
      <point x="369" y="22"/>
      <point x="369" y="0"/>
      <point x="369" y="22" type="curve"/>
      <point x="203" y="22"/>
      <point x="371" y="22"/>
      <point x="205" y="22" type="curve"/>
      <point x="205" y="0"/>
      <point x="205" y="22"/>
    </contour>
    <contour>
      <point x="205" y="22" type="curve"/>
      <point x="40" y="22"/>
      <point x="207" y="22"/>
      <point x="42" y="22" type="curve"/>
      <point x="42" y="0"/>
      <point x="42" y="22"/>
      <point x="42" y="0" type="curve"/>
      <point x="97" y="0"/>
      <point x="149" y="0"/>
      <point x="205" y="0" type="curve"/>
      <point x="205" y="22"/>
      <point x="205" y="0"/>
    </contour>
    <contour>
      <point x="215" y="0" type="curve"/>
      <point x="215" y="241"/>
      <point x="215" y="481"/>
      <point x="215" y="722" type="curve"/>
      <point x="191" y="722"/>
      <point x="215" y="722"/>
      <point x="191" y="722" type="curve"/>
      <point x="191" y="481"/>
      <point x="191" y="241"/>
      <point x="191" y="0" type="curve"/>
      <point x="215" y="0"/>
      <point x="191" y="0"/>
    </contour>
    <contour>
      <point x="222" y="842" type="curve"/>
      <point x="222" y="853"/>
      <point x="214" y="860"/>
      <point x="202" y="860" type="curve"/>
      <point x="191" y="860"/>
      <point x="185" y="853"/>
      <point x="185" y="842" type="curve"/>
      <point x="201" y="842"/>
      <point x="206" y="842"/>
      <point x="222" y="842" type="curve"/>
      <point x="222" y="831"/>
      <point x="214" y="824"/>
      <point x="202" y="824" type="curve"/>
      <point x="191" y="824"/>
      <point x="185" y="831"/>
      <point x="185" y="842" type="curve"/>
      <point x="201" y="842"/>
      <point x="206" y="842"/>
    </contour>
  </outline>
</glyph>
<glyph name="kcommaaccent" format="1">
  <advance width="737"/>
  <unicode hex="0137"/>
  <outline>
    <contour>
      <point x="170" y="22" type="curve"/>
      <point x="6" y="22"/>
      <point x="171" y="22"/>
      <point x="7" y="22" type="curve"/>
      <point x="7" y="0"/>
      <point x="7" y="22"/>
      <point x="7" y="0" type="curve"/>
      <point x="61" y="0"/>
      <point x="115" y="0"/>
      <point x="170" y="0" type="curve"/>
      <point x="170" y="22"/>
      <point x="170" y="0"/>
    </contour>
    <contour>
      <point x="558" y="0" type="curve"/>
      <point x="612" y="0"/>
      <point x="667" y="0"/>
      <point x="721" y="0" type="curve"/>
      <point x="721" y="22"/>
      <point x="721" y="0"/>
      <point x="721" y="22" type="curve"/>
      <point x="558" y="22"/>
      <point x="721" y="22"/>
      <point x="558" y="22" type="curve"/>
      <point x="558" y="0"/>
      <point x="558" y="22"/>
    </contour>
    <contour>
      <point x="525" y="511" type="curve"/>
      <point x="671" y="511"/>
      <point x="524" y="511"/>
      <point x="670" y="511" type="curve"/>
      <point x="670" y="533"/>
      <point x="670" y="511"/>
      <point x="670" y="533" type="curve"/>
      <point x="622" y="533"/>
      <point x="573" y="533"/>
      <point x="525" y="533" type="curve"/>
      <point x="525" y="511"/>
      <point x="525" y="533"/>
    </contour>
    <contour>
      <point x="170" y="0" type="curve"/>
      <point x="220" y="0"/>
      <point x="170" y="0"/>
      <point x="317" y="0" type="curve"/>
      <point x="317" y="22"/>
      <point x="317" y="0"/>
      <point x="317" y="22" type="curve"/>
      <point x="170" y="22"/>
      <point x="318" y="22"/>
      <point x="170" y="22" type="curve"/>
      <point x="170" y="0"/>
      <point x="170" y="22"/>
    </contour>
    <contour>
      <point x="525" y="533" type="curve"/>
      <point x="475" y="533"/>
      <point x="425" y="533"/>
      <point x="374" y="533" type="curve"/>
      <point x="374" y="511"/>
      <point x="374" y="533"/>
      <point x="374" y="511" type="curve"/>
      <point x="526" y="511"/>
      <point x="373" y="511"/>
      <point x="525" y="511" type="curve"/>
      <point x="525" y="533"/>
      <point x="525" y="511"/>
    </contour>
    <contour>
      <point x="173" y="800" type="curve"/>
      <point x="118" y="800"/>
      <point x="64" y="800"/>
      <point x="9" y="800" type="curve"/>
      <point x="9" y="778"/>
      <point x="9" y="800"/>
      <point x="9" y="778" type="curve"/>
      <point x="174" y="778"/>
      <point x="8" y="778"/>
      <point x="173" y="778" type="curve"/>
      <point x="173" y="800"/>
      <point x="173" y="778"/>
    </contour>
    <contour>
      <point x="183" y="0" type="curve"/>
      <point x="183" y="800" type="line"/>
      <point x="159" y="800"/>
      <point x="183" y="800"/>
      <point x="159" y="800" type="curve"/>
      <point x="159" y="533"/>
      <point x="159" y="267"/>
      <point x="159" y="0" type="curve"/>
      <point x="183" y="0"/>
      <point x="159" y="0"/>
    </contour>
    <contour>
      <point x="528" y="533" type="curve"/>
      <point x="172" y="275" type="line"/>
      <point x="214" y="275"/>
      <point x="172" y="275"/>
      <point x="214" y="275" type="curve"/>
      <point x="569" y="533" type="line"/>
      <point x="528" y="533"/>
      <point x="570" y="533"/>
    </contour>
    <contour>
      <point x="603" y="0" type="curve"/>
      <point x="214" y="275" type="line"/>
      <point x="172" y="275"/>
      <point x="214" y="275"/>
      <point x="172" y="275" type="curve"/>
      <point x="558" y="0" type="line"/>
      <point x="604" y="0"/>
      <point x="557" y="0"/>
    </contour>
    <contour>
      <point x="345" y="-240" type="line"/>
      <point x="376" y="-214"/>
      <point x="404" y="-180"/>
      <point x="404" y="-126" type="curve"/>
      <point x="404" y="-105"/>
      <point x="400" y="-87"/>
      <point x="381" y="-87" type="curve"/>
      <point x="368" y="-87"/>
      <point x="361" y="-93"/>
      <point x="361" y="-105" type="curve"/>
      <point x="361" y="-115"/>
      <point x="365" y="-121"/>
      <point x="376" y="-126" type="curve"/>
      <point x="376" y="-151"/>
      <point x="364" y="-194"/>
      <point x="330" y="-221" type="curve"/>
    </contour>
  </outline>
</glyph>
<glyph name="Lcaron" format="1">
  <advance width="791"/>
  <unicode hex="013D"/>
  <outline>
    <contour>
      <point x="747" y="11" type="curve"/>
      <point x="747" y="131"/>
      <point x="747" y="10"/>
      <point x="747" y="130" type="curve"/>
      <point x="725" y="130"/>
      <point x="747" y="130"/>
      <point x="725" y="130" type="curve"/>
      <point x="725" y="10"/>
      <point x="725" y="131"/>
      <point x="725" y="11" type="curve"/>
      <point x="747" y="11"/>
      <point x="725" y="11"/>
    </contour>
    <contour>
      <point x="204" y="22" type="curve"/>
      <point x="39" y="22"/>
      <point x="206" y="22"/>
      <point x="41" y="22" type="curve"/>
      <point x="41" y="0"/>
      <point x="41" y="22"/>
      <point x="41" y="0" type="curve"/>
      <point x="96" y="0"/>
      <point x="149" y="0"/>
      <point x="204" y="0" type="curve"/>
      <point x="204" y="22"/>
      <point x="204" y="0"/>
    </contour>
    <contour>
      <point x="204" y="722" type="curve"/>
      <point x="149" y="722"/>
      <point x="96" y="722"/>
      <point x="41" y="722" type="curve"/>
      <point x="41" y="700"/>
      <point x="41" y="722"/>
      <point x="41" y="700" type="curve"/>
      <point x="206" y="700"/>
      <point x="39" y="700"/>
      <point x="204" y="700" type="curve"/>
      <point x="204" y="722"/>
      <point x="204" y="700"/>
    </contour>
    <contour>
      <point x="204" y="700" type="curve"/>
      <point x="369" y="700"/>
      <point x="202" y="700"/>
      <point x="367" y="700" type="curve"/>
      <point x="367" y="722"/>
      <point x="367" y="700"/>
      <point x="367" y="722" type="curve"/>
      <point x="313" y="722"/>
      <point x="259" y="722"/>
      <point x="204" y="722" type="curve"/>
      <point x="204" y="700"/>
      <point x="204" y="722"/>
    </contour>
    <contour>
      <point x="218" y="0" type="curve"/>
      <point x="218" y="241"/>
      <point x="218" y="481"/>
      <point x="218" y="722" type="curve"/>
      <point x="193" y="722"/>
      <point x="218" y="722"/>
      <point x="193" y="722" type="curve"/>
      <point x="193" y="481"/>
      <point x="193" y="241"/>
      <point x="193" y="0" type="curve"/>
      <point x="218" y="0"/>
      <point x="193" y="0"/>
    </contour>
    <contour>
      <point x="204" y="0" type="curve"/>
      <point x="385" y="0"/>
      <point x="566" y="0"/>
      <point x="747" y="0" type="curve"/>
      <point x="747" y="22"/>
      <point x="747" y="0"/>
      <point x="747" y="22" type="curve"/>
      <point x="566" y="22"/>
      <point x="385" y="22"/>
      <point x="204" y="22" type="curve"/>
      <point x="204" y="0"/>
      <point x="204" y="22"/>
    </contour>
    <contour>
      <point x="560" y="570" type="line"/>
      <point x="591" y="596"/>
      <point x="619" y="630"/>
      <point x="619" y="685" type="curve"/>
      <point x="619" y="705"/>
      <point x="615" y="723"/>
      <point x="596" y="723" type="curve"/>
      <point x="583" y="723"/>
      <point x="576" y="717"/>
      <point x="576" y="705" type="curve"/>
      <point x="576" y="695"/>
      <point x="580" y="689"/>
      <point x="591" y="684" type="curve"/>
      <point x="591" y="659"/>
      <point x="579" y="617"/>
      <point x="545" y="589" type="curve"/>
    </contour>
  </outline>
</glyph>
<glyph name="Lslash" format="1">
  <advance width="789"/>
  <unicode hex="0141"/>
  <outline>
    <contour>
      <point x="84" y="175" type="curve"/>
      <point x="209" y="280"/>
      <point x="333" y="384"/>
      <point x="458" y="489" type="curve"/>
      <point x="458" y="514"/>
      <point x="458" y="489"/>
      <point x="458" y="514" type="curve"/>
      <point x="333" y="409"/>
      <point x="209" y="304"/>
      <point x="84" y="200" type="curve"/>
      <point x="84" y="175"/>
      <point x="84" y="200"/>
    </contour>
    <contour>
      <point x="747" y="11" type="curve"/>
      <point x="747" y="131"/>
      <point x="747" y="10"/>
      <point x="747" y="130" type="curve"/>
      <point x="725" y="130"/>
      <point x="747" y="130"/>
      <point x="725" y="130" type="curve"/>
      <point x="725" y="10"/>
      <point x="725" y="131"/>
      <point x="725" y="11" type="curve"/>
      <point x="747" y="11"/>
      <point x="725" y="11"/>
    </contour>
    <contour>
      <point x="204" y="22" type="curve"/>
      <point x="39" y="22"/>
      <point x="206" y="22"/>
      <point x="41" y="22" type="curve"/>
      <point x="41" y="0"/>
      <point x="41" y="22"/>
      <point x="41" y="0" type="curve"/>
      <point x="96" y="0"/>
      <point x="149" y="0"/>
      <point x="204" y="0" type="curve"/>
      <point x="204" y="22"/>
      <point x="204" y="0"/>
    </contour>
    <contour>
      <point x="204" y="722" type="curve"/>
      <point x="149" y="722"/>
      <point x="96" y="722"/>
      <point x="41" y="722" type="curve"/>
      <point x="41" y="700"/>
      <point x="41" y="722"/>
      <point x="41" y="700" type="curve"/>
      <point x="206" y="700"/>
      <point x="39" y="700"/>
      <point x="204" y="700" type="curve"/>
      <point x="204" y="722"/>
      <point x="204" y="700"/>
    </contour>
    <contour>
      <point x="204" y="700" type="curve"/>
      <point x="369" y="700"/>
      <point x="202" y="700"/>
      <point x="367" y="700" type="curve"/>
      <point x="367" y="722"/>
      <point x="367" y="700"/>
      <point x="367" y="722" type="curve"/>
      <point x="313" y="722"/>
      <point x="259" y="722"/>
      <point x="204" y="722" type="curve"/>
      <point x="204" y="700"/>
      <point x="204" y="722"/>
    </contour>
    <contour>
      <point x="218" y="0" type="curve"/>
      <point x="218" y="241"/>
      <point x="218" y="481"/>
      <point x="218" y="722" type="curve"/>
      <point x="193" y="722"/>
      <point x="218" y="722"/>
      <point x="193" y="722" type="curve"/>
      <point x="193" y="481"/>
      <point x="193" y="241"/>
      <point x="193" y="0" type="curve"/>
      <point x="218" y="0"/>
      <point x="193" y="0"/>
    </contour>
    <contour>
      <point x="204" y="0" type="curve"/>
      <point x="385" y="0"/>
      <point x="566" y="0"/>
      <point x="747" y="0" type="curve"/>
      <point x="747" y="22"/>
      <point x="747" y="0"/>
      <point x="747" y="22" type="curve"/>
      <point x="566" y="22"/>
      <point x="385" y="22"/>
      <point x="204" y="22" type="curve"/>
      <point x="204" y="0"/>
      <point x="204" y="22"/>
    </contour>
  </outline>
</glyph>
<glyph name="lslash" format="1">
  <advance width="400"/>
  <unicode hex="0142"/>
  <outline>
    <contour>
      <point x="15" y="235" type="curve"/>
      <point x="140" y="339"/>
      <point x="264" y="444"/>
      <point x="389" y="549" type="curve"/>
      <point x="389" y="573"/>
      <point x="389" y="549"/>
      <point x="389" y="573" type="curve"/>
      <point x="264" y="469"/>
      <point x="140" y="364"/>
      <point x="15" y="259" type="curve"/>
      <point x="15" y="235"/>
      <point x="15" y="259"/>
    </contour>
    <contour>
      <point x="205" y="22" type="curve"/>
      <point x="41" y="22"/>
      <point x="205" y="22"/>
      <point x="41" y="22" type="curve"/>
      <point x="41" y="0"/>
      <point x="41" y="22"/>
      <point x="41" y="0" type="curve"/>
      <point x="95" y="0"/>
      <point x="151" y="0"/>
      <point x="205" y="0" type="curve"/>
      <point x="205" y="22"/>
      <point x="205" y="0"/>
    </contour>
    <contour>
      <point x="208" y="800" type="curve"/>
      <point x="153" y="800"/>
      <point x="98" y="800"/>
      <point x="44" y="800" type="curve"/>
      <point x="44" y="778"/>
      <point x="44" y="800"/>
      <point x="44" y="778" type="curve"/>
      <point x="208" y="778"/>
      <point x="44" y="778"/>
      <point x="208" y="778" type="curve"/>
      <point x="208" y="800"/>
      <point x="208" y="778"/>
    </contour>
    <contour>
      <point x="205" y="0" type="curve"/>
      <point x="261" y="0"/>
      <point x="315" y="0"/>
      <point x="370" y="0" type="curve"/>
      <point x="370" y="22"/>
      <point x="370" y="0"/>
      <point x="370" y="22" type="curve"/>
      <point x="205" y="22"/>
      <point x="370" y="22"/>
      <point x="205" y="22" type="curve"/>
      <point x="205" y="0"/>
      <point x="205" y="22"/>
    </contour>
    <contour>
      <point x="216" y="0" type="curve"/>
      <point x="216" y="267"/>
      <point x="216" y="533"/>
      <point x="216" y="800" type="curve"/>
      <point x="192" y="800"/>
      <point x="216" y="800"/>
      <point x="192" y="800" type="curve"/>
      <point x="192" y="533"/>
      <point x="192" y="267"/>
      <point x="192" y="0" type="curve"/>
      <point x="216" y="0"/>
      <point x="192" y="0"/>
    </contour>
  </outline>
</glyph>
<glyph name="ncaron" format="1">
  <advance width="843"/>
  <unicode hex="0148"/>
  <outline>
    <contour>
      <point x="206" y="353" type="curve"/>
      <point x="253" y="456"/>
      <point x="357" y="516"/>
      <point x="468" y="516" type="curve"/>
      <point x="589" y="516"/>
      <point x="665" y="459"/>
      <point x="665" y="341" type="curve"/>
      <point x="665" y="228"/>
      <point x="665" y="114"/>
      <point x="665" y="0" type="curve"/>
      <point x="690" y="0"/>
      <point x="665" y="0"/>
      <point x="690" y="0" type="curve"/>
      <point x="690" y="115"/>
      <point x="690" y="229"/>
      <point x="690" y="344" type="curve"/>
      <point x="690" y="475"/>
      <point x="607" y="538"/>
      <point x="472" y="538" type="curve"/>
      <point x="352" y="538"/>
      <point x="236" y="479"/>
      <point x="194" y="364" type="curve"/>
      <point x="206" y="353"/>
      <point x="194" y="364"/>
    </contour>
    <contour>
      <point x="676" y="0" type="curve"/>
      <point x="730" y="0"/>
      <point x="785" y="0"/>
      <point x="839" y="0" type="curve"/>
      <point x="839" y="22"/>
      <point x="839" y="0"/>
      <point x="839" y="22" type="curve"/>
      <point x="675" y="22"/>
      <point x="840" y="22"/>
      <point x="676" y="22" type="curve"/>
      <point x="676" y="0"/>
      <point x="676" y="22"/>
    </contour>
    <contour>
      <point x="199" y="22" type="curve"/>
      <point x="35" y="22"/>
      <point x="200" y="22"/>
      <point x="36" y="22" type="curve"/>
      <point x="36" y="0"/>
      <point x="36" y="22"/>
      <point x="36" y="0" type="curve"/>
      <point x="91" y="0"/>
      <point x="145" y="0"/>
      <point x="199" y="0" type="curve"/>
      <point x="199" y="22"/>
      <point x="199" y="0"/>
    </contour>
    <contour>
      <point x="199" y="0" type="curve"/>
      <point x="249" y="0"/>
      <point x="198" y="0"/>
      <point x="348" y="0" type="curve"/>
      <point x="348" y="22"/>
      <point x="348" y="0"/>
      <point x="348" y="22" type="curve"/>
      <point x="198" y="22"/>
      <point x="350" y="22"/>
      <point x="199" y="22" type="curve"/>
      <point x="199" y="0"/>
      <point x="199" y="22"/>
    </contour>
    <contour>
      <point x="211" y="0" type="curve"/>
      <point x="211" y="178"/>
      <point x="211" y="355"/>
      <point x="211" y="533" type="curve"/>
      <point x="187" y="533"/>
      <point x="211" y="533"/>
      <point x="187" y="533" type="curve"/>
      <point x="187" y="355"/>
      <point x="187" y="178"/>
      <point x="187" y="0" type="curve"/>
      <point x="211" y="0"/>
      <point x="187" y="0"/>
    </contour>
    <contour>
      <point x="199" y="533" type="curve"/>
      <point x="145" y="533"/>
      <point x="91" y="533"/>
      <point x="36" y="533" type="curve"/>
      <point x="36" y="511"/>
      <point x="36" y="533"/>
      <point x="36" y="511" type="curve"/>
      <point x="200" y="511"/>
      <point x="35" y="511"/>
      <point x="199" y="511" type="curve"/>
      <point x="199" y="533"/>
      <point x="199" y="511"/>
    </contour>
    <contour>
      <point x="612" y="835" type="line"/>
      <point x="427" y="669" type="line"/>
      <point x="466" y="669" type="line"/>
      <point x="642" y="835" type="line"/>
    </contour>
    <contour>
      <point x="243" y="835" type="line"/>
      <point x="419" y="669" type="line"/>
      <point x="458" y="669" type="line"/>
      <point x="272" y="835" type="line"/>
    </contour>
  </outline>
</glyph>
<glyph name="OE" format="1">
  <advance width="1253"/>
  <unicode hex="0152"/>
  <outline>
    <contour>
      <point x="658" y="697" type="curve"/>
      <point x="595" y="722"/>
      <point x="548" y="723"/>
      <point x="480" y="723" type="curve"/>
      <point x="230" y="723"/>
      <point x="69" y="587"/>
      <point x="69" y="344" type="curve"/>
      <point x="69" y="121"/>
      <point x="221" y="-1"/>
      <point x="453" y="-1" type="curve"/>
      <point x="531" y="-1"/>
      <point x="584" y="3"/>
      <point x="657" y="26" type="curve"/>
      <point x="651" y="33"/>
      <point x="650" y="39"/>
      <point x="644" y="46" type="curve"/>
      <point x="576" y="23"/>
      <point x="526" y="23"/>
      <point x="454" y="23" type="curve"/>
      <point x="243" y="23"/>
      <point x="93" y="136"/>
      <point x="93" y="345" type="curve"/>
      <point x="93" y="573"/>
      <point x="248" y="699"/>
      <point x="479" y="699" type="curve"/>
      <point x="543" y="699"/>
      <point x="588" y="701"/>
      <point x="647" y="676" type="curve"/>
      <point x="652" y="683"/>
      <point x="653" y="690"/>
    </contour>
    <contour>
      <point x="1202" y="11" type="curve"/>
      <point x="1202" y="131"/>
      <point x="1202" y="10"/>
      <point x="1202" y="130" type="curve"/>
      <point x="1181" y="130"/>
      <point x="1202" y="130"/>
      <point x="1181" y="130" type="curve"/>
      <point x="1181" y="10"/>
      <point x="1181" y="131"/>
      <point x="1181" y="11" type="curve"/>
      <point x="1202" y="11"/>
      <point x="1181" y="11"/>
    </contour>
    <contour>
      <point x="1137" y="711" type="curve"/>
      <point x="1137" y="591"/>
      <point x="1137" y="712"/>
      <point x="1137" y="592" type="curve"/>
      <point x="1159" y="592"/>
      <point x="1137" y="592"/>
      <point x="1159" y="592" type="curve"/>
      <point x="1159" y="712"/>
      <point x="1159" y="591"/>
      <point x="1159" y="711" type="curve"/>
      <point x="1137" y="711"/>
      <point x="1159" y="711"/>
    </contour>
    <contour>
      <point x="652" y="22" type="curve"/>
      <point x="487" y="22"/>
      <point x="654" y="22"/>
      <point x="489" y="22" type="curve"/>
      <point x="489" y="0"/>
      <point x="489" y="22"/>
      <point x="489" y="0" type="curve"/>
      <point x="544" y="0"/>
      <point x="597" y="0"/>
      <point x="652" y="0" type="curve"/>
      <point x="652" y="22"/>
      <point x="652" y="0"/>
    </contour>
    <contour>
      <point x="652" y="722" type="curve"/>
      <point x="597" y="722"/>
      <point x="544" y="722"/>
      <point x="489" y="722" type="curve"/>
      <point x="489" y="700"/>
      <point x="489" y="722"/>
      <point x="489" y="700" type="curve"/>
      <point x="654" y="700"/>
      <point x="487" y="700"/>
      <point x="652" y="700" type="curve"/>
      <point x="652" y="722"/>
      <point x="652" y="700"/>
    </contour>
    <contour>
      <point x="656" y="363" type="curve"/>
      <point x="796" y="363"/>
      <point x="937" y="363"/>
      <point x="1078" y="363" type="curve"/>
      <point x="1078" y="385"/>
      <point x="1078" y="363"/>
      <point x="1078" y="385" type="curve"/>
      <point x="937" y="385"/>
      <point x="796" y="385"/>
      <point x="656" y="385" type="curve"/>
      <point x="656" y="363"/>
      <point x="656" y="385"/>
    </contour>
    <contour>
      <point x="636" y="700" type="curve"/>
      <point x="811" y="700"/>
      <point x="985" y="700"/>
      <point x="1159" y="700" type="curve"/>
      <point x="1159" y="722"/>
      <point x="1159" y="700"/>
      <point x="1159" y="722" type="curve"/>
      <point x="985" y="722"/>
      <point x="811" y="722"/>
      <point x="636" y="722" type="curve"/>
      <point x="636" y="700"/>
      <point x="636" y="722"/>
    </contour>
    <contour>
      <point x="663" y="0" type="curve"/>
      <point x="663" y="722" type="line"/>
      <point x="639" y="722"/>
      <point x="663" y="722"/>
      <point x="639" y="722" type="curve"/>
      <point x="639" y="481"/>
      <point x="639" y="241"/>
      <point x="639" y="0" type="curve"/>
      <point x="663" y="0"/>
      <point x="639" y="0"/>
    </contour>
    <contour>
      <point x="636" y="0" type="curve"/>
      <point x="825" y="0"/>
      <point x="1013" y="0"/>
      <point x="1202" y="0" type="curve"/>
      <point x="1202" y="22"/>
      <point x="1202" y="0"/>
      <point x="1202" y="22" type="curve"/>
      <point x="1013" y="22"/>
      <point x="825" y="22"/>
      <point x="636" y="22" type="curve"/>
      <point x="636" y="0"/>
      <point x="636" y="22"/>
    </contour>
  </outline>
</glyph>
<glyph name="oe" format="1">
  <advance width="1207"/>
  <unicode hex="0153"/>
  <outline>
    <contour>
      <point x="91" y="268" type="curve"/>
      <point x="91" y="428"/>
      <point x="192" y="517"/>
      <point x="351" y="517" type="curve"/>
      <point x="516" y="517"/>
      <point x="620" y="427"/>
      <point x="620" y="266" type="curve"/>
      <point x="620" y="107"/>
      <point x="517" y="17"/>
      <point x="356" y="17" type="curve"/>
      <point x="192" y="17"/>
      <point x="91" y="109"/>
      <point x="91" y="268" type="curve"/>
      <point x="67" y="268"/>
      <point x="91" y="268"/>
      <point x="67" y="268" type="curve"/>
      <point x="67" y="95"/>
      <point x="178" y="-5"/>
      <point x="355" y="-5" type="curve"/>
      <point x="533" y="-5"/>
      <point x="645" y="93"/>
      <point x="645" y="266" type="curve"/>
      <point x="645" y="440"/>
      <point x="531" y="538"/>
      <point x="352" y="538" type="curve"/>
      <point x="177" y="538"/>
      <point x="67" y="439"/>
      <point x="67" y="268" type="curve"/>
      <point x="91" y="268"/>
      <point x="67" y="268"/>
    </contour>
    <contour>
      <point x="636" y="273" type="curve"/>
      <point x="803" y="273"/>
      <point x="971" y="273"/>
      <point x="1138" y="273" type="curve"/>
      <point x="1139" y="273"/>
      <point x="1138" y="273"/>
      <point x="1139" y="273" type="curve"/>
      <point x="1139" y="276"/>
      <point x="1139" y="273"/>
      <point x="1139" y="276" type="curve"/>
      <point x="1139" y="285"/>
      <point x="1139" y="294"/>
      <point x="1139" y="303" type="curve"/>
      <point x="1139" y="458"/>
      <point x="1043" y="538"/>
      <point x="888" y="538" type="curve"/>
      <point x="722" y="538"/>
      <point x="623" y="448"/>
      <point x="623" y="281" type="curve"/>
      <point x="623" y="95"/>
      <point x="734" y="-5"/>
      <point x="919" y="-5" type="curve"/>
      <point x="1007" y="-5"/>
      <point x="1065" y="18"/>
      <point x="1137" y="74" type="curve"/>
      <point x="1122" y="90"/>
      <point x="1137" y="74"/>
      <point x="1122" y="90" type="curve"/>
      <point x="1055" y="39"/>
      <point x="1001" y="17"/>
      <point x="919" y="17" type="curve"/>
      <point x="750" y="17"/>
      <point x="647" y="110"/>
      <point x="647" y="281" type="curve"/>
      <point x="647" y="433"/>
      <point x="736" y="516"/>
      <point x="886" y="516" type="curve"/>
      <point x="1027" y="516"/>
      <point x="1116" y="445"/>
      <point x="1116" y="305" type="curve"/>
      <point x="1116" y="295"/>
      <point x="1116" y="286"/>
      <point x="1116" y="276" type="curve"/>
      <point x="1120" y="279"/>
      <point x="1124" y="282"/>
      <point x="1127" y="285" type="curve"/>
      <point x="1131" y="288"/>
      <point x="1134" y="292"/>
      <point x="1138" y="295" type="curve"/>
      <point x="971" y="295"/>
      <point x="803" y="295"/>
      <point x="636" y="295" type="curve"/>
      <point x="636" y="273"/>
      <point x="636" y="295"/>
    </contour>
  </outline>
</glyph>
<glyph name="Rcommaaccent" format="1">
  <advance width="920"/>
  <unicode hex="0156"/>
  <outline>
    <contour>
      <point x="739" y="0" type="curve"/>
      <point x="793" y="0"/>
      <point x="845" y="0"/>
      <point x="899" y="0" type="curve"/>
      <point x="899" y="22"/>
      <point x="899" y="0"/>
      <point x="899" y="22" type="curve"/>
      <point x="736" y="22"/>
      <point x="902" y="22"/>
      <point x="739" y="22" type="curve"/>
      <point x="739" y="0"/>
      <point x="739" y="22"/>
    </contour>
    <contour>
      <point x="204" y="722" type="curve"/>
      <point x="149" y="722"/>
      <point x="96" y="722"/>
      <point x="41" y="722" type="curve"/>
      <point x="41" y="700"/>
      <point x="41" y="722"/>
      <point x="41" y="700" type="curve"/>
      <point x="206" y="700"/>
      <point x="39" y="700"/>
      <point x="204" y="700" type="curve"/>
      <point x="204" y="722"/>
      <point x="204" y="700"/>
    </contour>
    <contour>
      <point x="204" y="22" type="curve"/>
      <point x="39" y="22"/>
      <point x="206" y="22"/>
      <point x="41" y="22" type="curve"/>
      <point x="41" y="0"/>
      <point x="41" y="22"/>
      <point x="41" y="0" type="curve"/>
      <point x="96" y="0"/>
      <point x="149" y="0"/>
      <point x="204" y="0" type="curve"/>
      <point x="204" y="22"/>
      <point x="204" y="0"/>
    </contour>
    <contour>
      <point x="204" y="0" type="curve"/>
      <point x="260" y="0"/>
      <point x="202" y="0"/>
      <point x="368" y="0" type="curve"/>
      <point x="368" y="22"/>
      <point x="368" y="0"/>
      <point x="368" y="22" type="curve"/>
      <point x="202" y="22"/>
      <point x="370" y="22"/>
      <point x="204" y="22" type="curve"/>
      <point x="204" y="0"/>
      <point x="204" y="22"/>
    </contour>
    <contour>
      <point x="455" y="354" type="curve"/>
      <point x="461" y="342"/>
      <point x="732" y="12"/>
      <point x="738" y="0" type="curve"/>
      <point x="768" y="0"/>
      <point x="740" y="0"/>
      <point x="770" y="0" type="curve"/>
      <point x="764" y="12"/>
      <point x="491" y="342"/>
      <point x="485" y="354" type="curve"/>
      <point x="456" y="354"/>
      <point x="484" y="354"/>
    </contour>
    <contour>
      <point x="218" y="0" type="curve"/>
      <point x="218" y="241"/>
      <point x="218" y="481"/>
      <point x="218" y="722" type="curve"/>
      <point x="193" y="722"/>
      <point x="218" y="722"/>
      <point x="193" y="722" type="curve"/>
      <point x="193" y="481"/>
      <point x="193" y="241"/>
      <point x="193" y="0" type="curve"/>
      <point x="218" y="0"/>
      <point x="193" y="0"/>
    </contour>
    <contour>
      <point x="208" y="340" type="curve"/>
      <point x="281" y="340"/>
      <point x="354" y="340"/>
      <point x="427" y="340" type="curve"/>
      <point x="588" y="340"/>
      <point x="705" y="392"/>
      <point x="705" y="537" type="curve"/>
      <point x="705" y="676"/>
      <point x="590" y="722"/>
      <point x="436" y="722" type="curve"/>
      <point x="359" y="722"/>
      <point x="284" y="722"/>
      <point x="208" y="722" type="curve"/>
      <point x="208" y="700"/>
      <point x="208" y="722"/>
      <point x="208" y="700" type="curve"/>
      <point x="283" y="700"/>
      <point x="356" y="700"/>
      <point x="432" y="700" type="curve"/>
      <point x="574" y="700"/>
      <point x="680" y="661"/>
      <point x="680" y="535" type="curve"/>
      <point x="680" y="406"/>
      <point x="573" y="362"/>
      <point x="430" y="362" type="curve"/>
      <point x="357" y="362"/>
      <point x="282" y="362"/>
      <point x="208" y="362" type="curve"/>
      <point x="208" y="340"/>
      <point x="208" y="362"/>
    </contour>
    <contour>
      <point x="392" y="-239" type="line"/>
      <point x="423" y="-213"/>
      <point x="451" y="-179"/>
      <point x="451" y="-125" type="curve"/>
      <point x="451" y="-104"/>
      <point x="447" y="-86"/>
      <point x="428" y="-86" type="curve"/>
      <point x="415" y="-86"/>
      <point x="408" y="-92"/>
      <point x="408" y="-104" type="curve"/>
      <point x="408" y="-114"/>
      <point x="412" y="-120"/>
      <point x="423" y="-125" type="curve"/>
      <point x="423" y="-150"/>
      <point x="410" y="-193"/>
      <point x="377" y="-220" type="curve"/>
    </contour>
  </outline>
</glyph>
<glyph name="rcommaaccent" format="1">
  <advance width="551"/>
  <unicode hex="0157"/>
  <outline>
    <contour>
      <point x="200" y="0" type="curve"/>
      <point x="251" y="0"/>
      <point x="300" y="0"/>
      <point x="351" y="0" type="curve"/>
      <point x="351" y="22"/>
      <point x="351" y="0"/>
      <point x="351" y="22" type="curve"/>
      <point x="199" y="22"/>
      <point x="352" y="22"/>
      <point x="200" y="22" type="curve"/>
      <point x="200" y="0"/>
      <point x="200" y="22"/>
    </contour>
    <contour>
      <point x="200" y="22" type="curve"/>
      <point x="36" y="22"/>
      <point x="201" y="22"/>
      <point x="37" y="22" type="curve"/>
      <point x="37" y="0"/>
      <point x="37" y="22"/>
      <point x="37" y="0" type="curve"/>
      <point x="91" y="0"/>
      <point x="146" y="0"/>
      <point x="200" y="0" type="curve"/>
      <point x="200" y="22"/>
      <point x="200" y="0"/>
    </contour>
    <contour>
      <point x="199" y="533" type="curve"/>
      <point x="144" y="533"/>
      <point x="90" y="533"/>
      <point x="36" y="533" type="curve"/>
      <point x="36" y="511"/>
      <point x="36" y="533"/>
      <point x="36" y="511" type="curve"/>
      <point x="200" y="511"/>
      <point x="35" y="511"/>
      <point x="199" y="511" type="curve"/>
      <point x="199" y="533"/>
      <point x="199" y="511"/>
    </contour>
    <contour>
      <point x="212" y="0" type="curve"/>
      <point x="212" y="178"/>
      <point x="212" y="355"/>
      <point x="212" y="533" type="curve"/>
      <point x="188" y="533"/>
      <point x="212" y="533"/>
      <point x="188" y="533" type="curve"/>
      <point x="188" y="355"/>
      <point x="188" y="178"/>
      <point x="188" y="0" type="curve"/>
      <point x="212" y="0"/>
      <point x="188" y="0"/>
    </contour>
    <contour>
      <point x="206" y="354" type="curve"/>
      <point x="272" y="478"/>
      <point x="392" y="516"/>
      <point x="520" y="516" type="curve"/>
      <point x="520" y="539"/>
      <point x="520" y="516"/>
      <point x="520" y="538" type="curve"/>
      <point x="386" y="538"/>
      <point x="250" y="490"/>
      <point x="199" y="376" type="curve"/>
      <point x="212" y="359"/>
      <point x="193" y="371"/>
    </contour>
    <contour>
      <point x="148" y="-240" type="line"/>
      <point x="179" y="-214"/>
      <point x="207" y="-180"/>
      <point x="207" y="-126" type="curve"/>
      <point x="207" y="-105"/>
      <point x="203" y="-87"/>
      <point x="184" y="-87" type="curve"/>
      <point x="171" y="-87"/>
      <point x="164" y="-93"/>
      <point x="164" y="-105" type="curve"/>
      <point x="164" y="-115"/>
      <point x="168" y="-121"/>
      <point x="179" y="-126" type="curve"/>
      <point x="179" y="-151"/>
      <point x="167" y="-194"/>
      <point x="133" y="-221" type="curve"/>
    </contour>
  </outline>
</glyph>
<glyph name="Scedilla" format="1">
  <advance width="686"/>
  <unicode hex="015E"/>
  <outline>
    <contour>
      <point x="560" y="663" type="curve"/>
      <point x="560" y="543"/>
      <point x="560" y="664"/>
      <point x="560" y="544" type="curve"/>
      <point x="582" y="544"/>
      <point x="560" y="544"/>
      <point x="582" y="544" type="curve"/>
      <point x="582" y="664"/>
      <point x="582" y="543"/>
      <point x="582" y="663" type="curve"/>
      <point x="560" y="663"/>
      <point x="582" y="663"/>
    </contour>
    <contour>
      <point x="96" y="58" type="curve"/>
      <point x="96" y="178"/>
      <point x="96" y="57"/>
      <point x="96" y="177" type="curve"/>
      <point x="74" y="177"/>
      <point x="96" y="177"/>
      <point x="74" y="177" type="curve"/>
      <point x="74" y="57"/>
      <point x="74" y="178"/>
      <point x="74" y="58" type="curve"/>
      <point x="96" y="58"/>
      <point x="74" y="58"/>
    </contour>
    <contour>
      <point x="74" y="58" type="curve"/>
      <point x="158" y="17"/>
      <point x="246" y="-5"/>
      <point x="340" y="-5" type="curve"/>
      <point x="496" y="-5"/>
      <point x="611" y="33"/>
      <point x="611" y="169" type="curve"/>
      <point x="611" y="301"/>
      <point x="489" y="333"/>
      <point x="360" y="383" type="curve"/>
      <point x="246" y="425"/>
      <point x="131" y="450"/>
      <point x="131" y="563" type="curve"/>
      <point x="131" y="664"/>
      <point x="228" y="706"/>
      <point x="343" y="706" type="curve"/>
      <point x="429" y="706"/>
      <point x="493" y="682"/>
      <point x="571" y="646" type="curve"/>
      <point x="581" y="662"/>
      <point x="572" y="647"/>
      <point x="582" y="663" type="curve"/>
      <point x="500" y="702"/>
      <point x="434" y="727"/>
      <point x="344" y="727" type="curve"/>
      <point x="214" y="727"/>
      <point x="107" y="677"/>
      <point x="107" y="562" type="curve"/>
      <point x="107" y="438"/>
      <point x="224" y="409"/>
      <point x="346" y="363" type="curve"/>
      <point x="468" y="318"/>
      <point x="587" y="287"/>
      <point x="587" y="169" type="curve"/>
      <point x="587" y="50"/>
      <point x="481" y="19"/>
      <point x="341" y="19" type="curve"/>
      <point x="251" y="19"/>
      <point x="167" y="41"/>
      <point x="87" y="78" type="curve"/>
      <point x="74" y="59"/>
      <point x="86" y="77"/>
    </contour>
    <contour>
      <point x="330" y="9" type="curve"/>
      <point x="311" y="-18"/>
      <point x="292" y="-44"/>
      <point x="273" y="-71" type="curve"/>
      <point x="289" y="-88"/>
      <point x="273" y="-71"/>
      <point x="289" y="-88" type="curve"/>
      <point x="308" y="-60"/>
      <point x="328" y="-33"/>
      <point x="347" y="-5" type="curve"/>
      <point x="330" y="9"/>
      <point x="347" y="-5"/>
    </contour>
    <contour>
      <point x="289" y="-89" type="curve"/>
      <point x="310" y="-78"/>
      <point x="327" y="-76"/>
      <point x="351" y="-76" type="curve"/>
      <point x="392" y="-76"/>
      <point x="421" y="-94"/>
      <point x="421" y="-133" type="curve"/>
      <point x="421" y="-176"/>
      <point x="382" y="-188"/>
      <point x="334" y="-188" type="curve"/>
      <point x="299" y="-188"/>
      <point x="274" y="-186"/>
      <point x="242" y="-171" type="curve"/>
      <point x="233" y="-188"/>
      <point x="242" y="-171"/>
      <point x="233" y="-188" type="curve"/>
      <point x="267" y="-203"/>
      <point x="295" y="-209"/>
      <point x="333" y="-209" type="curve"/>
      <point x="395" y="-209"/>
      <point x="445" y="-190"/>
      <point x="445" y="-133" type="curve"/>
      <point x="445" y="-82"/>
      <point x="406" y="-55"/>
      <point x="353" y="-55" type="curve"/>
      <point x="323" y="-55"/>
      <point x="302" y="-61"/>
      <point x="274" y="-72" type="curve"/>
      <point x="289" y="-89"/>
      <point x="274" y="-72"/>
    </contour>
  </outline>
</glyph>
<glyph name="scaron" format="1">
  <advance width="563"/>
  <unicode hex="0161"/>
  <outline>
    <contour>
      <point x="60" y="51" type="curve"/>
      <point x="139" y="19"/>
      <point x="211" y="-5"/>
      <point x="292" y="-5" type="curve"/>
      <point x="411" y="-5"/>
      <point x="499" y="30"/>
      <point x="499" y="139" type="curve"/>
      <point x="498" y="249"/>
      <point x="397" y="259"/>
      <point x="283" y="287" type="curve" smooth="yes"/>
      <point x="191" y="310"/>
      <point x="112" y="332"/>
      <point x="112" y="415" type="curve"/>
      <point x="112" y="494"/>
      <point x="180" y="516"/>
      <point x="270" y="516" type="curve"/>
      <point x="333" y="516"/>
      <point x="407" y="495"/>
      <point x="451" y="471" type="curve"/>
      <point x="461" y="489"/>
      <point x="452" y="472"/>
      <point x="462" y="490" type="curve"/>
      <point x="415" y="515"/>
      <point x="337" y="538"/>
      <point x="271" y="538" type="curve"/>
      <point x="167" y="538"/>
      <point x="90" y="509"/>
      <point x="90" y="415" type="curve"/>
      <point x="90" y="316"/>
      <point x="172" y="292"/>
      <point x="275" y="266" type="curve" smooth="yes"/>
      <point x="378" y="239"/>
      <point x="476" y="235"/>
      <point x="476" y="139" type="curve"/>
      <point x="476" y="45"/>
      <point x="398" y="17"/>
      <point x="296" y="17" type="curve"/>
      <point x="217" y="17"/>
      <point x="149" y="41"/>
      <point x="71" y="72" type="curve"/>
      <point x="58" y="52"/>
      <point x="73" y="71"/>
    </contour>
    <contour>
      <point x="440" y="490" type="curve"/>
      <point x="440" y="370"/>
      <point x="440" y="491"/>
      <point x="440" y="371" type="curve"/>
      <point x="462" y="371"/>
      <point x="440" y="371"/>
      <point x="462" y="371" type="curve"/>
      <point x="462" y="491"/>
      <point x="462" y="370"/>
      <point x="462" y="490" type="curve"/>
      <point x="442" y="490"/>
      <point x="461" y="490"/>
    </contour>
    <contour>
      <point x="79" y="51" type="curve"/>
      <point x="79" y="171"/>
      <point x="79" y="50"/>
      <point x="79" y="170" type="curve"/>
      <point x="58" y="170"/>
      <point x="79" y="170"/>
      <point x="58" y="170" type="curve"/>
      <point x="58" y="50"/>
      <point x="58" y="171"/>
      <point x="58" y="51" type="curve"/>
      <point x="79" y="51"/>
      <point x="58" y="51"/>
    </contour>
    <contour>
      <point x="441" y="837" type="line"/>
      <point x="256" y="671" type="line"/>
      <point x="295" y="671" type="line"/>
      <point x="471" y="837" type="line"/>
    </contour>
    <contour>
      <point x="72" y="837" type="line"/>
      <point x="248" y="671" type="line"/>
      <point x="287" y="671" type="line"/>
      <point x="101" y="837" type="line"/>
    </contour>
  </outline>
</glyph>
<glyph name="tcaron" format="1">
  <advance width="539"/>
  <unicode hex="0165"/>
  <outline>
    <contour>
      <point x="21" y="511" type="curve"/>
      <point x="524" y="511" type="line"/>
      <point x="524" y="533"/>
      <point x="524" y="511"/>
      <point x="524" y="533" type="curve"/>
      <point x="21" y="533" type="line"/>
      <point x="21" y="511"/>
      <point x="21" y="533"/>
    </contour>
    <contour>
      <point x="494" y="48" type="curve"/>
      <point x="448" y="29"/>
      <point x="415" y="17"/>
      <point x="367" y="17" type="curve"/>
      <point x="280" y="17"/>
      <point x="231" y="56"/>
      <point x="231" y="145" type="curve"/>
      <point x="231" y="673" type="line"/>
      <point x="209" y="660"/>
      <point x="229" y="671"/>
      <point x="207" y="658" type="curve"/>
      <point x="207" y="143" type="line"/>
      <point x="207" y="43"/>
      <point x="265" y="-5"/>
      <point x="365" y="-5" type="curve"/>
      <point x="417" y="-5"/>
      <point x="453" y="9"/>
      <point x="503" y="28" type="curve"/>
      <point x="494" y="48"/>
      <point x="503" y="28"/>
    </contour>
    <contour>
      <point x="393" y="672" type="line"/>
      <point x="424" y="698"/>
      <point x="452" y="732"/>
      <point x="452" y="787" type="curve"/>
      <point x="452" y="807"/>
      <point x="449" y="825"/>
      <point x="430" y="825" type="curve"/>
      <point x="417" y="825"/>
      <point x="410" y="819"/>
      <point x="410" y="807" type="curve"/>
      <point x="410" y="797"/>
      <point x="414" y="791"/>
      <point x="425" y="786" type="curve"/>
      <point x="425" y="761"/>
      <point x="412" y="719"/>
      <point x="378" y="691" type="curve"/>
    </contour>
  </outline>
</glyph>
<glyph name="Uogonek" format="1">
  <advance width="1023"/>
  <unicode hex="0172"/>
  <outline>
    <contour>
      <point x="833" y="700" type="curve"/>
      <point x="997" y="700"/>
      <point x="832" y="700"/>
      <point x="996" y="700" type="curve"/>
      <point x="996" y="722"/>
      <point x="996" y="700"/>
      <point x="996" y="722" type="curve"/>
      <point x="942" y="722"/>
      <point x="887" y="722"/>
      <point x="833" y="722" type="curve"/>
      <point x="833" y="700"/>
      <point x="833" y="722"/>
    </contour>
    <contour>
      <point x="833" y="722" type="curve"/>
      <point x="777" y="722"/>
      <point x="724" y="722"/>
      <point x="669" y="722" type="curve"/>
      <point x="669" y="700"/>
      <point x="669" y="722"/>
      <point x="669" y="700" type="curve"/>
      <point x="834" y="700"/>
      <point x="669" y="700"/>
      <point x="833" y="700" type="curve"/>
      <point x="833" y="722"/>
      <point x="833" y="700"/>
    </contour>
    <contour>
      <point x="190" y="722" type="curve"/>
      <point x="135" y="722"/>
      <point x="81" y="722"/>
      <point x="27" y="722" type="curve"/>
      <point x="27" y="700"/>
      <point x="27" y="722"/>
      <point x="27" y="700" type="curve"/>
      <point x="191" y="700"/>
      <point x="26" y="700"/>
      <point x="190" y="700" type="curve"/>
      <point x="190" y="722"/>
      <point x="190" y="700"/>
    </contour>
    <contour>
      <point x="190" y="700" type="curve"/>
      <point x="354" y="700"/>
      <point x="189" y="700"/>
      <point x="354" y="700" type="curve"/>
      <point x="354" y="722"/>
      <point x="354" y="700"/>
      <point x="354" y="722" type="curve"/>
      <point x="299" y="722"/>
      <point x="245" y="722"/>
      <point x="190" y="722" type="curve"/>
      <point x="190" y="700"/>
      <point x="190" y="722"/>
    </contour>
    <contour>
      <point x="175" y="721" type="curve"/>
      <point x="175" y="543"/>
      <point x="175" y="449"/>
      <point x="175" y="271" type="curve"/>
      <point x="175" y="72"/>
      <point x="300" y="-5"/>
      <point x="513" y="-5" type="curve"/>
      <point x="722" y="-5"/>
      <point x="845" y="69"/>
      <point x="845" y="263" type="curve"/>
      <point x="845" y="444"/>
      <point x="845" y="540"/>
      <point x="845" y="721" type="curve"/>
      <point x="834" y="721"/>
      <point x="832" y="721"/>
      <point x="822" y="721" type="curve"/>
      <point x="822" y="538"/>
      <point x="822" y="442"/>
      <point x="822" y="259" type="curve"/>
      <point x="822" y="87"/>
      <point x="706" y="19"/>
      <point x="515" y="19" type="curve"/>
      <point x="315" y="19"/>
      <point x="198" y="89"/>
      <point x="198" y="275" type="curve"/>
      <point x="198" y="451"/>
      <point x="198" y="545"/>
      <point x="198" y="721" type="curve"/>
      <point x="188" y="721"/>
      <point x="186" y="721"/>
    </contour>
    <contour>
      <point x="515" y="10" type="curve"/>
      <point x="444" y="-16"/>
      <point x="379" y="-32"/>
      <point x="379" y="-104" type="curve"/>
      <point x="379" y="-165"/>
      <point x="425" y="-199"/>
      <point x="490" y="-199" type="curve"/>
      <point x="528" y="-199"/>
      <point x="553" y="-187"/>
      <point x="587" y="-170" type="curve"/>
      <point x="578" y="-155"/>
      <point x="587" y="-170"/>
      <point x="577" y="-155" type="curve"/>
      <point x="547" y="-169"/>
      <point x="524" y="-178"/>
      <point x="492" y="-178" type="curve"/>
      <point x="439" y="-178"/>
      <point x="401" y="-153"/>
      <point x="401" y="-104" type="curve"/>
      <point x="401" y="-40"/>
      <point x="462" y="-30"/>
      <point x="524" y="-4" type="curve"/>
      <point x="515" y="9"/>
      <point x="523" y="-3"/>
    </contour>
  </outline>
</glyph>
<glyph name="Zdotaccent" format="1">
  <advance width="817"/>
  <unicode hex="017B"/>
  <outline>
    <contour>
      <point x="93" y="711" type="curve"/>
      <point x="93" y="591"/>
      <point x="93" y="712"/>
      <point x="93" y="592" type="curve"/>
      <point x="115" y="592"/>
      <point x="93" y="592"/>
      <point x="115" y="592" type="curve"/>
      <point x="115" y="712"/>
      <point x="115" y="591"/>
      <point x="115" y="711" type="curve"/>
      <point x="93" y="711"/>
      <point x="115" y="711"/>
    </contour>
    <contour>
      <point x="773" y="11" type="curve"/>
      <point x="773" y="131"/>
      <point x="773" y="10"/>
      <point x="773" y="130" type="curve"/>
      <point x="752" y="130"/>
      <point x="773" y="130"/>
      <point x="752" y="130" type="curve"/>
      <point x="752" y="10"/>
      <point x="752" y="131"/>
      <point x="752" y="11" type="curve"/>
      <point x="773" y="11"/>
      <point x="752" y="11"/>
    </contour>
    <contour>
      <point x="93" y="700" type="curve"/>
      <point x="300" y="700"/>
      <point x="508" y="700"/>
      <point x="716" y="700" type="curve"/>
      <point x="714" y="703"/>
      <point x="711" y="704"/>
      <point x="709" y="707" type="curve"/>
      <point x="707" y="709"/>
      <point x="705" y="710"/>
      <point x="703" y="712" type="curve"/>
      <point x="700" y="709"/>
      <point x="697" y="705"/>
      <point x="694" y="701" type="curve"/>
      <point x="43" y="22" type="line"/>
      <point x="43" y="10"/>
      <point x="43" y="22"/>
      <point x="43" y="10" type="curve"/>
      <point x="43" y="0"/>
      <point x="43" y="10"/>
      <point x="43" y="0" type="curve"/>
      <point x="48" y="0"/>
      <point x="43" y="0"/>
      <point x="48" y="0" type="curve"/>
      <point x="791" y="0"/>
      <point x="526" y="0"/>
      <point x="773" y="0" type="curve"/>
      <point x="773" y="22"/>
      <point x="773" y="0"/>
      <point x="773" y="22" type="curve"/>
      <point x="526" y="22"/>
      <point x="296" y="22"/>
      <point x="48" y="22" type="curve"/>
      <point x="50" y="20"/>
      <point x="52" y="18"/>
      <point x="54" y="16" type="curve"/>
      <point x="56" y="14"/>
      <point x="60" y="12"/>
      <point x="62" y="10" type="curve"/>
      <point x="65" y="13"/>
      <point x="69" y="17"/>
      <point x="73" y="21" type="curve"/>
      <point x="723" y="700" type="line"/>
      <point x="723" y="712"/>
      <point x="723" y="700"/>
      <point x="723" y="712" type="curve"/>
      <point x="723" y="722"/>
      <point x="723" y="712"/>
      <point x="723" y="722" type="curve"/>
      <point x="716" y="722"/>
      <point x="723" y="722"/>
      <point x="716" y="722" type="curve"/>
      <point x="508" y="722"/>
      <point x="300" y="722"/>
      <point x="93" y="722" type="curve"/>
      <point x="93" y="700"/>
      <point x="93" y="722"/>
    </contour>
    <contour>
      <point x="433" y="844" type="curve"/>
      <point x="433" y="855"/>
      <point x="425" y="861"/>
      <point x="414" y="861" type="curve"/>
      <point x="403" y="861"/>
      <point x="396" y="854"/>
      <point x="396" y="844" type="curve"/>
      <point x="412" y="844"/>
      <point x="417" y="844"/>
      <point x="433" y="844" type="curve"/>
      <point x="433" y="833"/>
      <point x="425" y="826"/>
      <point x="414" y="826" type="curve"/>
      <point x="403" y="826"/>
      <point x="396" y="833"/>
      <point x="396" y="844" type="curve"/>
      <point x="412" y="844"/>
      <point x="417" y="844"/>
    </contour>
  </outline>
</glyph>
<glyph name="dotaccent" format="1">
  <advance width="530"/>
  <unicode hex="02D9"/>
  <outline>
    <contour>
      <point x="249" y="651" type="move" name="_top"/>
    </contour>
    <contour>
      <point x="268" y="669" type="curve"/>
      <point x="268" y="680"/>
      <point x="260" y="687"/>
      <point x="248" y="687" type="curve"/>
      <point x="237" y="687"/>
      <point x="230" y="680"/>
      <point x="230" y="669" type="curve"/>
      <point x="246" y="669"/>
      <point x="252" y="669"/>
      <point x="268" y="669" type="curve"/>
      <point x="268" y="658"/>
      <point x="260" y="651"/>
      <point x="248" y="651" type="curve"/>
      <point x="237" y="651"/>
      <point x="230" y="658"/>
      <point x="230" y="669" type="curve"/>
      <point x="246" y="669"/>
      <point x="252" y="669"/>
    </contour>
  </outline>
</glyph>
<glyph name="hungarumlaut" format="1">
  <advance width="576"/>
  <unicode hex="02DD"/>
  <outline>
    <contour>
      <point x="235" y="637" type="move" name="_top"/>
    </contour>
    <contour>
      <point x="122" y="663" type="line"/>
      <point x="308" y="829" type="line"/>
      <point x="268" y="829" type="line"/>
      <point x="93" y="663" type="line"/>
    </contour>
    <contour>
      <point x="293" y="663" type="line"/>
      <point x="479" y="829" type="line"/>
      <point x="440" y="829" type="line"/>
      <point x="264" y="663" type="line"/>
    </contour>
  </outline>
</glyph>
<glyph name="dvA" format="1">
  <advance width="969"/>
  <unicode hex="0905"/>
  <outline>
    <contour>
      <point x="778" y="471" type="line"/>
      <point x="735" y="405"/>
      <point x="673" y="380"/>
      <point x="594" y="379" type="curve" smooth="yes"/>
      <point x="514" y="378"/>
      <point x="452" y="393"/>
      <point x="380" y="428" type="curve"/>
      <point x="372" y="408" type="line"/>
      <point x="447" y="371"/>
      <point x="512" y="356"/>
      <point x="595" y="358" type="curve" smooth="yes"/>
      <point x="681" y="362"/>
      <point x="750" y="385"/>
      <point x="794" y="459" type="curve"/>
    </contour>
    <component base="dvA_base"/>
    <component base="dvStem" xOffset="496"/>
  </outline>
</glyph>
<glyph name="dvUU" format="1">
  <advance width="1086"/>
  <unicode hex="090A"/>
  <outline>
    <contour>
      <point x="817" y="126" type="curve"/>
      <point x="818" y="104" type="line"/>
      <point x="920" y="104"/>
      <point x="1001" y="156"/>
      <point x="1001" y="251" type="curve"/>
      <point x="1001" y="352"/>
      <point x="905" y="390"/>
      <point x="793" y="390" type="curve"/>
      <point x="673" y="390"/>
      <point x="588" y="327"/>
      <point x="551" y="213" type="curve"/>
      <point x="571" y="207" type="line"/>
      <point x="609" y="310"/>
      <point x="684" y="369"/>
      <point x="793" y="369" type="curve"/>
      <point x="891" y="369"/>
      <point x="976" y="339"/>
      <point x="976" y="251" type="curve"/>
      <point x="976" y="169"/>
      <point x="905" y="126"/>
    </contour>
    <component base="dvU"/>
    <component base="dvTopbar" xScale="1.29684263573" xOffset="249"/>
  </outline>
</glyph>
<glyph name="dvvR" format="1">
  <advance width="1109"/>
  <unicode hex="090B"/>
  <outline>
    <contour>
      <point x="973" y="576" type="line"/>
      <point x="973" y="480"/>
      <point x="904" y="438"/>
      <point x="823" y="438" type="curve"/>
      <point x="751" y="438"/>
      <point x="679" y="438"/>
      <point x="606" y="438" type="curve"/>
      <point x="606" y="419"/>
      <point x="606" y="437"/>
      <point x="606" y="417" type="curve"/>
      <point x="679" y="417"/>
      <point x="752" y="417"/>
      <point x="824" y="417" type="curve"/>
      <point x="916" y="417"/>
      <point x="994" y="462"/>
      <point x="994" y="576" type="curve"/>
    </contour>
    <contour>
      <point x="617" y="0" type="curve"/>
      <point x="617" y="237"/>
      <point x="617" y="475"/>
      <point x="617" y="713" type="curve"/>
      <point x="594" y="713"/>
      <point x="617" y="713"/>
      <point x="594" y="713" type="curve"/>
      <point x="594" y="475"/>
      <point x="594" y="237"/>
      <point x="594" y="0" type="curve"/>
      <point x="617" y="0"/>
      <point x="594" y="0"/>
    </contour>
    <component base="dvmE" xScale="0.939816076243" yScale="0.939816076243" xOffset="1011" yOffset="-249"/>
    <component base="dvTopbar" xScale="1.71490029711"/>
    <component base="dvStroke_down" yScale="1.17601362792" xOffset="426" yOffset="231"/>
    <component base="dvmvR" xOffset="1104" yOffset="207"/>
    <component base="dvRaker" xOffset="235" yOffset="67"/>
  </outline>
</glyph>
<glyph name="dvCHA" format="1">
  <advance width="939"/>
  <unicode hex="091B"/>
  <outline>
    <contour>
      <point x="551" y="-32" type="move" name="blwm.virama"/>
    </contour>
    <contour>
      <point x="692" y="720" type="move" name="abvm.e"/>
    </contour>
    <contour>
      <point x="551" y="-111" type="move" name="blwm.u"/>
    </contour>
    <component base="dvCH"/>
    <component base="dvStem_short" yScale="0.775371988605" xOffset="370" yOffset="159"/>
  </outline>
</glyph>
<glyph name="dvTTA" format="1">
  <advance width="736"/>
  <unicode hex="091F"/>
  <outline>
    <contour>
      <point x="489" y="-12" type="move" name="blwm.virama"/>
    </contour>
    <contour>
      <point x="474" y="718" type="move" name="abvm.e"/>
    </contour>
    <contour>
      <point x="521" y="-98" type="move" name="blwm.u"/>
    </contour>
    <contour>
      <point x="456" y="533" type="curve"/>
      <point x="440" y="533"/>
      <point x="427" y="533"/>
      <point x="411" y="533" type="curve"/>
      <point x="238" y="533"/>
      <point x="108" y="454"/>
      <point x="108" y="298" type="curve"/>
      <point x="108" y="144"/>
      <point x="231" y="65"/>
      <point x="397" y="65" type="curve"/>
      <point x="492" y="65"/>
      <point x="585" y="93"/>
      <point x="648" y="157" type="curve"/>
      <point x="634" y="173" type="line"/>
      <point x="575" y="114"/>
      <point x="487" y="86"/>
      <point x="397" y="86" type="curve"/>
      <point x="245" y="86"/>
      <point x="131" y="157"/>
      <point x="131" y="298" type="curve"/>
      <point x="131" y="443"/>
      <point x="256" y="511"/>
      <point x="417" y="511" type="curve"/>
      <point x="439" y="511"/>
      <point x="458" y="511"/>
      <point x="480" y="511" type="curve"/>
      <point x="458" y="531"/>
      <point x="478" y="513"/>
    </contour>
    <contour>
      <point x="756" y="722" type="curve"/>
      <point x="497" y="722"/>
      <point x="239" y="722"/>
      <point x="-20" y="722" type="curve"/>
      <point x="-20" y="701"/>
      <point x="-20" y="722"/>
      <point x="-20" y="701" type="curve"/>
      <point x="239" y="701"/>
      <point x="497" y="701"/>
      <point x="756" y="701" type="curve"/>
      <point x="756" y="722"/>
      <point x="756" y="701"/>
    </contour>
    <contour>
      <point x="456" y="710" type="curve"/>
      <point x="456" y="651"/>
      <point x="456" y="592"/>
      <point x="456" y="533" type="curve"/>
      <point x="480" y="511"/>
      <point x="456" y="533"/>
      <point x="480" y="511" type="curve"/>
      <point x="480" y="578"/>
      <point x="480" y="644"/>
      <point x="480" y="710" type="curve"/>
      <point x="456" y="710"/>
      <point x="480" y="710"/>
    </contour>
  </outline>
</glyph>
<glyph name="dvPHA" format="1">
  <advance width="1136"/>
  <unicode hex="092B"/>
  <outline>
    <contour>
      <point x="582" y="0" type="move" name="blwm.virama"/>
    </contour>
    <contour>
      <point x="582" y="721" type="move" name="abvm.e"/>
    </contour>
    <contour>
      <point x="582" y="0" type="move" name="blwm.u"/>
    </contour>
    <component base="dvTopbar" xOffset="494"/>
    <component base="dvKA_right" xOffset="-10" yOffset="-11"/>
    <component base="dvPA"/>
  </outline>
</glyph>
<glyph name="dvBA" format="1">
  <advance width="801"/>
  <unicode hex="092C"/>
  <outline>
    <contour>
      <point x="602" y="301" type="curve"/>
      <point x="569" y="211"/>
      <point x="483" y="132"/>
      <point x="369" y="132" type="curve"/>
      <point x="218" y="132"/>
      <point x="107" y="203"/>
      <point x="107" y="344" type="curve"/>
      <point x="107" y="481"/>
      <point x="215" y="550"/>
      <point x="362" y="550" type="curve"/>
      <point x="472" y="550"/>
      <point x="558" y="484"/>
      <point x="605" y="410" type="curve"/>
      <point x="609" y="415"/>
      <point x="611" y="420"/>
      <point x="615" y="425" type="curve"/>
      <point x="569" y="506"/>
      <point x="477" y="571"/>
      <point x="362" y="571" type="curve"/>
      <point x="201" y="571"/>
      <point x="85" y="494"/>
      <point x="85" y="344" type="curve"/>
      <point x="85" y="190"/>
      <point x="204" y="110"/>
      <point x="369" y="110" type="curve"/>
      <point x="492" y="110"/>
      <point x="585" y="193"/>
      <point x="618" y="293" type="curve"/>
      <point x="612" y="296"/>
      <point x="608" y="298"/>
    </contour>
    <component base="dvDiagonal" xOffset="-15" yOffset="7"/>
    <component base="dvTopbar" xScale="0.974418972416"/>
    <component base="dvStemright" xOffset="526"/>
  </outline>
</glyph>
<glyph name="dvmII" format="1">
  <advance width="305"/>
  <unicode hex="0940"/>
  <outline>
    <contour>
      <point x="164" y="706" type="line"/>
      <point x="153" y="811" type="line" smooth="yes"/>
      <point x="144" y="903"/>
      <point x="91" y="965"/>
      <point x="-1" y="965" type="curve"/>
      <point x="-129" y="965"/>
      <point x="-183" y="848"/>
      <point x="-183" y="706" type="curve"/>
      <point x="-163" y="706" type="line"/>
      <point x="-163" y="835"/>
      <point x="-118" y="944"/>
      <point x="-4" y="944" type="curve"/>
      <point x="77" y="944"/>
      <point x="125" y="891"/>
      <point x="133" y="811" type="curve" smooth="yes"/>
      <point x="144" y="706" type="line"/>
    </contour>
    <component base="dvmAA" xOffset="-35"/>
  </outline>
</glyph>
<glyph name="dvmU" format="1">
  <advance width="0"/>
  <unicode hex="0941"/>
  <outline>
    <contour>
      <point x="-117" y="21" type="move" name="_blwm.u"/>
    </contour>
    <contour>
      <point x="-177" y="13" type="line"/>
      <point x="-88" y="13"/>
      <point x="-17" y="-30"/>
      <point x="-17" y="-113" type="curve"/>
      <point x="-17" y="-200"/>
      <point x="-102" y="-230"/>
      <point x="-201" y="-230" type="curve"/>
      <point x="-309" y="-230"/>
      <point x="-384" y="-171"/>
      <point x="-422" y="-69" type="curve"/>
      <point x="-442" y="-75" type="line"/>
      <point x="-405" y="-188"/>
      <point x="-320" y="-251"/>
      <point x="-201" y="-251" type="curve"/>
      <point x="-88" y="-251"/>
      <point x="8" y="-213"/>
      <point x="8" y="-113" type="curve"/>
      <point x="8" y="-17"/>
      <point x="-73" y="35"/>
      <point x="-176" y="35" type="curve"/>
    </contour>
  </outline>
</glyph>
<glyph name="dvmvR" format="1">
  <advance width="0"/>
  <unicode hex="0943"/>
  <outline>
    <contour>
      <point x="-96" y="36" type="move" name="_blwm.u"/>
    </contour>
    <contour>
      <point x="-74" y="-239" type="line"/>
      <point x="-194" y="-239"/>
      <point x="-302" y="-212"/>
      <point x="-302" y="-108" type="curve"/>
      <point x="-302" y="-11"/>
      <point x="-215" y="36"/>
      <point x="-110" y="36" type="curve"/>
      <point x="-110" y="57" type="line"/>
      <point x="-229" y="57"/>
      <point x="-325" y="2"/>
      <point x="-325" y="-107" type="curve"/>
      <point x="-325" y="-223"/>
      <point x="-207" y="-260"/>
      <point x="-74" y="-260" type="curve"/>
    </contour>
  </outline>
</glyph>
<glyph name="dvmAI" format="1">
  <advance width="0"/>
  <unicode hex="0948"/>
  <outline>
    <contour>
      <point x="-147" y="725" type="move" name="_abvm.e"/>
    </contour>
    <contour>
      <point x="-528" y="803" type="line"/>
      <point x="-491" y="822"/>
      <point x="-458" y="829"/>
      <point x="-416" y="829" type="curve"/>
      <point x="-311" y="829"/>
      <point x="-234" y="790"/>
      <point x="-169" y="713" type="curve"/>
      <point x="-149" y="718" type="line"/>
      <point x="-217" y="807"/>
      <point x="-300" y="852"/>
      <point x="-414" y="852" type="curve"/>
      <point x="-462" y="852"/>
      <point x="-505" y="844"/>
      <point x="-541" y="824" type="curve"/>
    </contour>
    <contour>
      <point x="-529" y="944" type="line"/>
      <point x="-498" y="962"/>
      <point x="-459" y="971"/>
      <point x="-417" y="971" type="curve"/>
      <point x="-276" y="971"/>
      <point x="-216" y="841"/>
      <point x="-169" y="713" type="curve"/>
      <point x="-149" y="718" type="line"/>
      <point x="-196" y="860"/>
      <point x="-263" y="993"/>
      <point x="-416" y="993" type="curve"/>
      <point x="-462" y="993"/>
      <point x="-509" y="983"/>
      <point x="-540" y="963" type="curve"/>
    </contour>
  </outline>
</glyph>
<glyph name="dvmvLL" format="1">
  <advance width="0"/>
  <unicode hex="0963"/>
  <outline>
    <contour>
      <point x="636" y="1" type="move" name="_blwm.u"/>
    </contour>
    <contour>
      <point x="411" y="-254" type="line"/>
      <point x="322" y="-254"/>
      <point x="258" y="-201"/>
      <point x="258" y="-114" type="curve"/>
      <point x="258" y="-50"/>
      <point x="305" y="-10"/>
      <point x="370" y="-10" type="curve"/>
      <point x="444" y="-10"/>
      <point x="473" y="-79"/>
      <point x="473" y="-161" type="curve"/>
      <point x="498" y="-161" type="line"/>
      <point x="498" y="-66"/>
      <point x="457" y="11"/>
      <point x="370" y="11" type="curve"/>
      <point x="291" y="11"/>
      <point x="233" y="-36"/>
      <point x="233" y="-113" type="curve"/>
      <point x="233" y="-214"/>
      <point x="307" y="-276"/>
      <point x="410" y="-276" type="curve"/>
    </contour>
    <contour>
      <point x="735" y="-140" type="line"/>
      <point x="735" y="-54"/>
      <point x="689" y="11"/>
      <point x="608" y="11" type="curve"/>
      <point x="520" y="11"/>
      <point x="479" y="-66"/>
      <point x="479" y="-161" type="curve"/>
      <point x="503" y="-161" type="line"/>
      <point x="503" y="-79"/>
      <point x="534" y="-10"/>
      <point x="608" y="-10" type="curve"/>
      <point x="676" y="-10"/>
      <point x="709" y="-68"/>
      <point x="709" y="-140" type="curve"/>
    </contour>
    <contour>
      <point x="725" y="-213" type="line"/>
      <point x="676" y="-213"/>
      <point x="625" y="-225"/>
      <point x="625" y="-182" type="curve"/>
      <point x="625" y="-137"/>
      <point x="676" y="-142"/>
      <point x="728" y="-142" type="curve"/>
      <point x="727" y="-120" type="line"/>
      <point x="662" y="-120"/>
      <point x="601" y="-125"/>
      <point x="601" y="-181" type="curve"/>
      <point x="601" y="-235"/>
      <point x="662" y="-234"/>
      <point x="725" y="-234" type="curve"/>
    </contour>
    <contour>
      <point x="725" y="-241" type="curve"/>
      <point x="725" y="-220" type="line"/>
      <point x="662" y="-220"/>
      <point x="602" y="-224"/>
      <point x="602" y="-278" type="curve"/>
      <point x="602" y="-321"/>
      <point x="641" y="-341"/>
      <point x="689" y="-341" type="curve"/>
      <point x="716" y="-341"/>
      <point x="740" y="-338"/>
      <point x="760" y="-319" type="curve"/>
      <point x="744" y="-304" type="line"/>
      <point x="729" y="-319"/>
      <point x="710" y="-320"/>
      <point x="689" y="-320" type="curve"/>
      <point x="655" y="-320"/>
      <point x="626" y="-310"/>
      <point x="626" y="-281" type="curve"/>
      <point x="626" y="-238"/>
      <point x="675" y="-241"/>
    </contour>
  </outline>
</glyph>
<glyph name="doubledanda" format="1">
  <advance width="496"/>
  <unicode hex="0965"/>
  <outline>
    <contour>
      <point x="422" y="722" type="curve"/>
      <point x="422" y="481"/>
      <point x="422" y="241"/>
      <point x="422" y="0" type="curve"/>
      <point x="445" y="0"/>
      <point x="422" y="0"/>
      <point x="445" y="0" type="curve"/>
      <point x="445" y="241"/>
      <point x="445" y="481"/>
      <point x="445" y="722" type="curve"/>
      <point x="422" y="722"/>
      <point x="445" y="722"/>
    </contour>
    <contour>
      <point x="200" y="722" type="curve"/>
      <point x="200" y="481"/>
      <point x="200" y="241"/>
      <point x="200" y="0" type="curve"/>
      <point x="223" y="0"/>
      <point x="200" y="0"/>
      <point x="223" y="0" type="curve"/>
      <point x="223" y="241"/>
      <point x="223" y="481"/>
      <point x="223" y="722" type="curve"/>
      <point x="200" y="722"/>
      <point x="223" y="722"/>
    </contour>
  </outline>
</glyph>
<glyph name="dvTwo" format="1">
  <advance width="701"/>
  <unicode hex="0968"/>
  <outline>
    <contour>
      <point x="625" y="22" type="curve"/>
      <point x="625" y="142"/>
      <point x="625" y="22"/>
      <point x="625" y="142" type="curve"/>
      <point x="604" y="142"/>
      <point x="625" y="142"/>
      <point x="604" y="142" type="curve"/>
      <point x="604" y="22"/>
      <point x="604" y="142"/>
      <point x="604" y="22" type="curve"/>
      <point x="625" y="22"/>
      <point x="604" y="22"/>
    </contour>
    <contour>
      <point x="53" y="0" type="curve"/>
      <point x="250" y="0"/>
      <point x="428" y="0"/>
      <point x="625" y="0" type="curve"/>
      <point x="625" y="22"/>
      <point x="625" y="0"/>
      <point x="625" y="22" type="curve"/>
      <point x="423" y="22"/>
      <point x="252" y="22"/>
      <point x="53" y="22" type="curve"/>
      <point x="53" y="0"/>
      <point x="53" y="22"/>
    </contour>
    <contour>
      <point x="100" y="563" type="curve"/>
      <point x="163" y="654"/>
      <point x="235" y="702"/>
      <point x="345" y="702" type="curve"/>
      <point x="472" y="702"/>
      <point x="562" y="649"/>
      <point x="562" y="526" type="curve"/>
      <point x="562" y="392"/>
      <point x="462" y="316"/>
      <point x="346" y="237" type="curve"/>
      <point x="248" y="165"/>
      <point x="150" y="93"/>
      <point x="53" y="22" type="curve"/>
      <point x="64" y="0"/>
      <point x="53" y="22"/>
      <point x="64" y="0" type="curve"/>
      <point x="163" y="73"/>
      <point x="262" y="147"/>
      <point x="361" y="220" type="curve"/>
      <point x="483" y="302"/>
      <point x="586" y="376"/>
      <point x="586" y="527" type="curve"/>
      <point x="586" y="663"/>
      <point x="489" y="727"/>
      <point x="347" y="727" type="curve"/>
      <point x="228" y="727"/>
      <point x="142" y="673"/>
      <point x="81" y="576" type="curve"/>
      <point x="100" y="563"/>
      <point x="81" y="576"/>
    </contour>
  </outline>
</glyph>
<glyph name="dvAbbreviationsign" format="1">
  <advance width="559"/>
  <unicode hex="0970"/>
  <outline>
    <contour>
      <point x="112" y="258" type="curve"/>
      <point x="112" y="373"/>
      <point x="184" y="444"/>
      <point x="300" y="444" type="curve"/>
      <point x="416" y="445"/>
      <point x="486" y="374"/>
      <point x="486" y="259" type="curve"/>
      <point x="486" y="143"/>
      <point x="418" y="71"/>
      <point x="302" y="71" type="curve"/>
      <point x="184" y="71"/>
      <point x="112" y="141"/>
      <point x="112" y="258" type="curve"/>
      <point x="103" y="258"/>
      <point x="98" y="258"/>
      <point x="89" y="258" type="curve"/>
      <point x="89" y="128"/>
      <point x="170" y="50"/>
      <point x="301" y="50" type="curve"/>
      <point x="430" y="50"/>
      <point x="510" y="129"/>
      <point x="510" y="260" type="curve"/>
      <point x="510" y="388"/>
      <point x="430" y="466"/>
      <point x="301" y="466" type="curve"/>
      <point x="170" y="466"/>
      <point x="89" y="387"/>
      <point x="89" y="258" type="curve"/>
      <point x="98" y="258"/>
      <point x="103" y="258"/>
    </contour>
  </outline>
</glyph>
<glyph name="emdash" format="1">
  <advance width="1037"/>
  <unicode hex="2014"/>
  <outline>
    <contour>
      <point x="90" y="260" type="curve"/>
      <point x="375" y="260"/>
      <point x="661" y="260"/>
      <point x="946" y="260" type="curve"/>
      <point x="946" y="284"/>
      <point x="946" y="260"/>
      <point x="946" y="284" type="curve"/>
      <point x="661" y="284"/>
      <point x="375" y="284"/>
      <point x="90" y="284" type="curve"/>
      <point x="90" y="260"/>
      <point x="90" y="284"/>
    </contour>
  </outline>
</glyph>
<glyph name="dagger" format="1">
  <advance width="681"/>
  <unicode hex="2020"/>
  <outline>
    <contour>
      <point x="36" y="501" type="curve"/>
      <point x="647" y="501" type="line"/>
      <point x="647" y="525"/>
      <point x="647" y="501"/>
      <point x="647" y="525" type="curve"/>
      <point x="36" y="525" type="line"/>
      <point x="36" y="501"/>
      <point x="36" y="525"/>
    </contour>
    <contour>
      <point x="348" y="-298" type="curve"/>
      <point x="348" y="792" type="line"/>
      <point x="324" y="792"/>
      <point x="348" y="792"/>
      <point x="324" y="792" type="curve"/>
      <point x="324" y="-298" type="line"/>
      <point x="348" y="-298"/>
      <point x="324" y="-298"/>
    </contour>
  </outline>
</glyph>
<glyph name="bullet" format="1">
  <advance width="301"/>
  <unicode hex="2022"/>
  <outline>
    <contour>
      <point x="188" y="440" type="curve"/>
      <point x="188" y="462"/>
      <point x="172" y="476"/>
      <point x="148" y="476" type="curve"/>
      <point x="126" y="476"/>
      <point x="113" y="462"/>
      <point x="113" y="440" type="curve"/>
      <point x="145" y="440"/>
      <point x="156" y="440"/>
      <point x="188" y="440" type="curve"/>
      <point x="188" y="418"/>
      <point x="172" y="404"/>
      <point x="148" y="404" type="curve"/>
      <point x="126" y="404"/>
      <point x="113" y="418"/>
      <point x="113" y="440" type="curve"/>
      <point x="145" y="440"/>
      <point x="156" y="440"/>
    </contour>
  </outline>
</glyph>
